<svg version="1.1" xmlns="http://www.w3.org/2000/svg" xmlns:xlink="http://www.w3.org/1999/xlink" width="722.17529296875" height="500"><defs/><g><text fill="#eeeeee" stroke="none" font-family="Arial" font-size="24px" font-style="normal" font-weight="normal" text-decoration="none" x="0" y="0">UNREGISTERED</text><text fill="#eeeeee" stroke="none" font-family="Arial" font-size="24px" font-style="normal" font-weight="normal" text-decoration="none" x="0" y="30">UNREGISTERED</text><text fill="#eeeeee" stroke="none" font-family="Arial" font-size="24px" font-style="normal" font-weight="normal" text-decoration="none" x="0" y="60">UNREGISTERED</text><text fill="#eeeeee" stroke="none" font-family="Arial" font-size="24px" font-style="normal" font-weight="normal" text-decoration="none" x="0" y="90">UNREGISTERED</text><text fill="#eeeeee" stroke="none" font-family="Arial" font-size="24px" font-style="normal" font-weight="normal" text-decoration="none" x="0" y="120">UNREGISTERED</text><text fill="#eeeeee" stroke="none" font-family="Arial" font-size="24px" font-style="normal" font-weight="normal" text-decoration="none" x="0" y="150">UNREGISTERED</text><text fill="#eeeeee" stroke="none" font-family="Arial" font-size="24px" font-style="normal" font-weight="normal" text-decoration="none" x="0" y="180">UNREGISTERED</text><text fill="#eeeeee" stroke="none" font-family="Arial" font-size="24px" font-style="normal" font-weight="normal" text-decoration="none" x="0" y="210">UNREGISTERED</text><text fill="#eeeeee" stroke="none" font-family="Arial" font-size="24px" font-style="normal" font-weight="normal" text-decoration="none" x="0" y="240">UNREGISTERED</text><text fill="#eeeeee" stroke="none" font-family="Arial" font-size="24px" font-style="normal" font-weight="normal" text-decoration="none" x="0" y="270">UNREGISTERED</text><text fill="#eeeeee" stroke="none" font-family="Arial" font-size="24px" font-style="normal" font-weight="normal" text-decoration="none" x="0" y="300">UNREGISTERED</text><text fill="#eeeeee" stroke="none" font-family="Arial" font-size="24px" font-style="normal" font-weight="normal" text-decoration="none" x="0" y="330">UNREGISTERED</text><text fill="#eeeeee" stroke="none" font-family="Arial" font-size="24px" font-style="normal" font-weight="normal" text-decoration="none" x="0" y="360">UNREGISTERED</text><text fill="#eeeeee" stroke="none" font-family="Arial" font-size="24px" font-style="normal" font-weight="normal" text-decoration="none" x="0" y="390">UNREGISTERED</text><text fill="#eeeeee" stroke="none" font-family="Arial" font-size="24px" font-style="normal" font-weight="normal" text-decoration="none" x="0" y="420">UNREGISTERED</text><text fill="#eeeeee" stroke="none" font-family="Arial" font-size="24px" font-style="normal" font-weight="normal" text-decoration="none" x="0" y="450">UNREGISTERED</text><text fill="#eeeeee" stroke="none" font-family="Arial" font-size="24px" font-style="normal" font-weight="normal" text-decoration="none" x="0" y="480">UNREGISTERED</text><text fill="#eeeeee" stroke="none" font-family="Arial" font-size="24px" font-style="normal" font-weight="normal" text-decoration="none" x="200" y="0">UNREGISTERED</text><text fill="#eeeeee" stroke="none" font-family="Arial" font-size="24px" font-style="normal" font-weight="normal" text-decoration="none" x="200" y="30">UNREGISTERED</text><text fill="#eeeeee" stroke="none" font-family="Arial" font-size="24px" font-style="normal" font-weight="normal" text-decoration="none" x="200" y="60">UNREGISTERED</text><text fill="#eeeeee" stroke="none" font-family="Arial" font-size="24px" font-style="normal" font-weight="normal" text-decoration="none" x="200" y="90">UNREGISTERED</text><text fill="#eeeeee" stroke="none" font-family="Arial" font-size="24px" font-style="normal" font-weight="normal" text-decoration="none" x="200" y="120">UNREGISTERED</text><text fill="#eeeeee" stroke="none" font-family="Arial" font-size="24px" font-style="normal" font-weight="normal" text-decoration="none" x="200" y="150">UNREGISTERED</text><text fill="#eeeeee" stroke="none" font-family="Arial" font-size="24px" font-style="normal" font-weight="normal" text-decoration="none" x="200" y="180">UNREGISTERED</text><text fill="#eeeeee" stroke="none" font-family="Arial" font-size="24px" font-style="normal" font-weight="normal" text-decoration="none" x="200" y="210">UNREGISTERED</text><text fill="#eeeeee" stroke="none" font-family="Arial" font-size="24px" font-style="normal" font-weight="normal" text-decoration="none" x="200" y="240">UNREGISTERED</text><text fill="#eeeeee" stroke="none" font-family="Arial" font-size="24px" font-style="normal" font-weight="normal" text-decoration="none" x="200" y="270">UNREGISTERED</text><text fill="#eeeeee" stroke="none" font-family="Arial" font-size="24px" font-style="normal" font-weight="normal" text-decoration="none" x="200" y="300">UNREGISTERED</text><text fill="#eeeeee" stroke="none" font-family="Arial" font-size="24px" font-style="normal" font-weight="normal" text-decoration="none" x="200" y="330">UNREGISTERED</text><text fill="#eeeeee" stroke="none" font-family="Arial" font-size="24px" font-style="normal" font-weight="normal" text-decoration="none" x="200" y="360">UNREGISTERED</text><text fill="#eeeeee" stroke="none" font-family="Arial" font-size="24px" font-style="normal" font-weight="normal" text-decoration="none" x="200" y="390">UNREGISTERED</text><text fill="#eeeeee" stroke="none" font-family="Arial" font-size="24px" font-style="normal" font-weight="normal" text-decoration="none" x="200" y="420">UNREGISTERED</text><text fill="#eeeeee" stroke="none" font-family="Arial" font-size="24px" font-style="normal" font-weight="normal" text-decoration="none" x="200" y="450">UNREGISTERED</text><text fill="#eeeeee" stroke="none" font-family="Arial" font-size="24px" font-style="normal" font-weight="normal" text-decoration="none" x="200" y="480">UNREGISTERED</text><text fill="#eeeeee" stroke="none" font-family="Arial" font-size="24px" font-style="normal" font-weight="normal" text-decoration="none" x="400" y="0">UNREGISTERED</text><text fill="#eeeeee" stroke="none" font-family="Arial" font-size="24px" font-style="normal" font-weight="normal" text-decoration="none" x="400" y="30">UNREGISTERED</text><text fill="#eeeeee" stroke="none" font-family="Arial" font-size="24px" font-style="normal" font-weight="normal" text-decoration="none" x="400" y="60">UNREGISTERED</text><text fill="#eeeeee" stroke="none" font-family="Arial" font-size="24px" font-style="normal" font-weight="normal" text-decoration="none" x="400" y="90">UNREGISTERED</text><text fill="#eeeeee" stroke="none" font-family="Arial" font-size="24px" font-style="normal" font-weight="normal" text-decoration="none" x="400" y="120">UNREGISTERED</text><text fill="#eeeeee" stroke="none" font-family="Arial" font-size="24px" font-style="normal" font-weight="normal" text-decoration="none" x="400" y="150">UNREGISTERED</text><text fill="#eeeeee" stroke="none" font-family="Arial" font-size="24px" font-style="normal" font-weight="normal" text-decoration="none" x="400" y="180">UNREGISTERED</text><text fill="#eeeeee" stroke="none" font-family="Arial" font-size="24px" font-style="normal" font-weight="normal" text-decoration="none" x="400" y="210">UNREGISTERED</text><text fill="#eeeeee" stroke="none" font-family="Arial" font-size="24px" font-style="normal" font-weight="normal" text-decoration="none" x="400" y="240">UNREGISTERED</text><text fill="#eeeeee" stroke="none" font-family="Arial" font-size="24px" font-style="normal" font-weight="normal" text-decoration="none" x="400" y="270">UNREGISTERED</text><text fill="#eeeeee" stroke="none" font-family="Arial" font-size="24px" font-style="normal" font-weight="normal" text-decoration="none" x="400" y="300">UNREGISTERED</text><text fill="#eeeeee" stroke="none" font-family="Arial" font-size="24px" font-style="normal" font-weight="normal" text-decoration="none" x="400" y="330">UNREGISTERED</text><text fill="#eeeeee" stroke="none" font-family="Arial" font-size="24px" font-style="normal" font-weight="normal" text-decoration="none" x="400" y="360">UNREGISTERED</text><text fill="#eeeeee" stroke="none" font-family="Arial" font-size="24px" font-style="normal" font-weight="normal" text-decoration="none" x="400" y="390">UNREGISTERED</text><text fill="#eeeeee" stroke="none" font-family="Arial" font-size="24px" font-style="normal" font-weight="normal" text-decoration="none" x="400" y="420">UNREGISTERED</text><text fill="#eeeeee" stroke="none" font-family="Arial" font-size="24px" font-style="normal" font-weight="normal" text-decoration="none" x="400" y="450">UNREGISTERED</text><text fill="#eeeeee" stroke="none" font-family="Arial" font-size="24px" font-style="normal" font-weight="normal" text-decoration="none" x="400" y="480">UNREGISTERED</text><text fill="#eeeeee" stroke="none" font-family="Arial" font-size="24px" font-style="normal" font-weight="normal" text-decoration="none" x="600" y="0">UNREGISTERED</text><text fill="#eeeeee" stroke="none" font-family="Arial" font-size="24px" font-style="normal" font-weight="normal" text-decoration="none" x="600" y="30">UNREGISTERED</text><text fill="#eeeeee" stroke="none" font-family="Arial" font-size="24px" font-style="normal" font-weight="normal" text-decoration="none" x="600" y="60">UNREGISTERED</text><text fill="#eeeeee" stroke="none" font-family="Arial" font-size="24px" font-style="normal" font-weight="normal" text-decoration="none" x="600" y="90">UNREGISTERED</text><text fill="#eeeeee" stroke="none" font-family="Arial" font-size="24px" font-style="normal" font-weight="normal" text-decoration="none" x="600" y="120">UNREGISTERED</text><text fill="#eeeeee" stroke="none" font-family="Arial" font-size="24px" font-style="normal" font-weight="normal" text-decoration="none" x="600" y="150">UNREGISTERED</text><text fill="#eeeeee" stroke="none" font-family="Arial" font-size="24px" font-style="normal" font-weight="normal" text-decoration="none" x="600" y="180">UNREGISTERED</text><text fill="#eeeeee" stroke="none" font-family="Arial" font-size="24px" font-style="normal" font-weight="normal" text-decoration="none" x="600" y="210">UNREGISTERED</text><text fill="#eeeeee" stroke="none" font-family="Arial" font-size="24px" font-style="normal" font-weight="normal" text-decoration="none" x="600" y="240">UNREGISTERED</text><text fill="#eeeeee" stroke="none" font-family="Arial" font-size="24px" font-style="normal" font-weight="normal" text-decoration="none" x="600" y="270">UNREGISTERED</text><text fill="#eeeeee" stroke="none" font-family="Arial" font-size="24px" font-style="normal" font-weight="normal" text-decoration="none" x="600" y="300">UNREGISTERED</text><text fill="#eeeeee" stroke="none" font-family="Arial" font-size="24px" font-style="normal" font-weight="normal" text-decoration="none" x="600" y="330">UNREGISTERED</text><text fill="#eeeeee" stroke="none" font-family="Arial" font-size="24px" font-style="normal" font-weight="normal" text-decoration="none" x="600" y="360">UNREGISTERED</text><text fill="#eeeeee" stroke="none" font-family="Arial" font-size="24px" font-style="normal" font-weight="normal" text-decoration="none" x="600" y="390">UNREGISTERED</text><text fill="#eeeeee" stroke="none" font-family="Arial" font-size="24px" font-style="normal" font-weight="normal" text-decoration="none" x="600" y="420">UNREGISTERED</text><text fill="#eeeeee" stroke="none" font-family="Arial" font-size="24px" font-style="normal" font-weight="normal" text-decoration="none" x="600" y="450">UNREGISTERED</text><text fill="#eeeeee" stroke="none" font-family="Arial" font-size="24px" font-style="normal" font-weight="normal" text-decoration="none" x="600" y="480">UNREGISTERED</text><g transform="translate(-14,-22) scale(1,1)"><rect fill="#C0C0C0" stroke="none" x="215" y="119" width="360" height="400" opacity="0.2"/></g><g transform="translate(-14,-22) scale(1,1)"><rect fill="#ffffff" stroke="none" x="208" y="112" width="360" height="400"/></g><g transform="translate(-14,-22) scale(1,1)"><path fill="none" stroke="#000000" d="M 208 112 L 568 112 L 568 512 L 208 512 L 208 112 Z Z" stroke-miterlimit="10"/></g><g transform="translate(-14,-22) scale(1,1)"><g><path fill="none" stroke="none"/><text fill="#000000" stroke="none" font-family="Arial" font-size="13px" font-style="normal" font-weight="bold" text-decoration="none" x="331.2646484375" y="131.5">logiciel bibliotheque</text></g></g><g transform="translate(-14,-22) scale(1,1)"><path fill="#ffffff" stroke="none" d="M 82.41887180397727 153.68 C 82.41887180397727 148.886167936 86.30471412892273 145 91.09814453125 145 C 95.89157493357727 145 99.77741725852273 148.886167936 99.77741725852273 153.68 C 99.77741725852273 158.47383206400002 95.89157493357727 162.36 91.09814453125 162.36 C 86.30471412892273 162.36 82.41887180397727 158.47383206400002 82.41887180397727 153.68 Z"/></g><g transform="translate(-14,-22) scale(1,1)"><path fill="none" stroke="#000000" d="M 82.41887180397727 153.68 C 82.41887180397727 148.886167936 86.30471412892273 145 91.09814453125 145 C 95.89157493357727 145 99.77741725852273 148.886167936 99.77741725852273 153.68 C 99.77741725852273 158.47383206400002 95.89157493357727 162.36 91.09814453125 162.36 C 86.30471412892273 162.36 82.41887180397727 158.47383206400002 82.41887180397727 153.68 Z" stroke-miterlimit="10"/></g><g transform="translate(-14,-22) scale(1,1)"><path fill="none" stroke="#000000" d="M 91.09814453125 162.36 L 91.09814453125 179.64" stroke-miterlimit="10"/></g><g transform="translate(-14,-22) scale(1,1)"><path fill="none" stroke="#000000" d="M 81.90832634943182 168.84 L 100.28796271306818 168.84" stroke-miterlimit="10"/></g><g transform="translate(-14,-22) scale(1,1)"><path fill="none" stroke="#000000" d="M 91.09814453125 179.64 L 78.33450816761363 197" stroke-miterlimit="10"/></g><g transform="translate(-14,-22) scale(1,1)"><path fill="none" stroke="#000000" d="M 91.09814453125 179.64 L 103.86178089488637 197" stroke-miterlimit="10"/></g><g transform="translate(-14,-22) scale(1,1)"><g><path fill="none" stroke="none"/><text fill="#000000" stroke="none" font-family="Arial" font-size="13px" font-style="normal" font-weight="bold" text-decoration="none" x="52.075927734375" y="217.5">Bibliothecaire</text></g></g><g transform="translate(-14,-22) scale(1,1)"><path fill="#ffffff" stroke="none" d="M 100.72478000710227 289.68 C 100.72478000710227 284.886167936 104.61062233204773 281 109.404052734375 281 C 114.19748313670227 281 118.08332546164773 284.886167936 118.08332546164773 289.68 C 118.08332546164773 294.473832064 114.19748313670227 298.36 109.404052734375 298.36 C 104.61062233204773 298.36 100.72478000710227 294.473832064 100.72478000710227 289.68 Z"/></g><g transform="translate(-14,-22) scale(1,1)"><path fill="none" stroke="#000000" d="M 100.72478000710227 289.68 C 100.72478000710227 284.886167936 104.61062233204773 281 109.404052734375 281 C 114.19748313670227 281 118.08332546164773 284.886167936 118.08332546164773 289.68 C 118.08332546164773 294.473832064 114.19748313670227 298.36 109.404052734375 298.36 C 104.61062233204773 298.36 100.72478000710227 294.473832064 100.72478000710227 289.68 Z" stroke-miterlimit="10"/></g><g transform="translate(-14,-22) scale(1,1)"><path fill="none" stroke="#000000" d="M 109.404052734375 298.36 L 109.404052734375 315.64" stroke-miterlimit="10"/></g><g transform="translate(-14,-22) scale(1,1)"><path fill="none" stroke="#000000" d="M 100.21423455255682 304.84 L 118.59387091619318 304.84" stroke-miterlimit="10"/></g><g transform="translate(-14,-22) scale(1,1)"><path fill="none" stroke="#000000" d="M 109.404052734375 315.64 L 96.64041637073863 333" stroke-miterlimit="10"/></g><g transform="translate(-14,-22) scale(1,1)"><path fill="none" stroke="#000000" d="M 109.404052734375 315.64 L 122.16768909801137 333" stroke-miterlimit="10"/></g><g transform="translate(-14,-22) scale(1,1)"><g><path fill="none" stroke="none"/><text fill="#000000" stroke="none" font-family="Arial" font-size="13px" font-style="normal" font-weight="bold" text-decoration="none" x="33.5146484375" y="353.5">Responsable abonnement</text></g></g><g transform="translate(-14,-22) scale(1,1)"><path fill="#ffffff" stroke="none" d="M 662.4083737571023 153.68 C 662.4083737571023 148.886167936 666.2942160820477 145 671.087646484375 145 C 675.8810768867023 145 679.7669192116477 148.886167936 679.7669192116477 153.68 C 679.7669192116477 158.47383206400002 675.8810768867023 162.36 671.087646484375 162.36 C 666.2942160820477 162.36 662.4083737571023 158.47383206400002 662.4083737571023 153.68 Z"/></g><g transform="translate(-14,-22) scale(1,1)"><path fill="none" stroke="#000000" d="M 662.4083737571023 153.68 C 662.4083737571023 148.886167936 666.2942160820477 145 671.087646484375 145 C 675.8810768867023 145 679.7669192116477 148.886167936 679.7669192116477 153.68 C 679.7669192116477 158.47383206400002 675.8810768867023 162.36 671.087646484375 162.36 C 666.2942160820477 162.36 662.4083737571023 158.47383206400002 662.4083737571023 153.68 Z" stroke-miterlimit="10"/></g><g transform="translate(-14,-22) scale(1,1)"><path fill="none" stroke="#000000" d="M 671.087646484375 162.36 L 671.087646484375 179.64" stroke-miterlimit="10"/></g><g transform="translate(-14,-22) scale(1,1)"><path fill="none" stroke="#000000" d="M 661.8978283025568 168.84 L 680.2774646661932 168.84" stroke-miterlimit="10"/></g><g transform="translate(-14,-22) scale(1,1)"><path fill="none" stroke="#000000" d="M 671.087646484375 179.64 L 658.3240101207386 197" stroke-miterlimit="10"/></g><g transform="translate(-14,-22) scale(1,1)"><path fill="none" stroke="#000000" d="M 671.087646484375 179.64 L 683.8512828480114 197" stroke-miterlimit="10"/></g><g transform="translate(-14,-22) scale(1,1)"><g><path fill="none" stroke="none"/><text fill="#000000" stroke="none" font-family="Arial" font-size="13px" font-style="normal" font-weight="normal" text-decoration="none" x="620.5" y="215.5">«logiciel externe»</text></g></g><g transform="translate(-14,-22) scale(1,1)"><g><path fill="none" stroke="none"/><text fill="#000000" stroke="none" font-family="Arial" font-size="13px" font-style="normal" font-weight="bold" text-decoration="none" x="626.285888671875" y="230.5">logiciel_compta</text></g></g><g transform="translate(-14,-22) scale(1,1)"><path fill="#ffffff" stroke="none" d="M 144 136 L 308 136 L 318 146 L 318 230 L 144 230 L 144 136"/></g><g transform="translate(-14,-22) scale(1,1)"><path fill="none" stroke="#000000" d="M 144 136 L 308 136 L 318 146 L 318 230 L 144 230 L 144 136 L 144 136" stroke-miterlimit="10"/></g><g transform="translate(-14,-22) scale(1,1)"><path fill="none" stroke="#000000" d="M 308 136 L 308 146 L 318 146 L 308 136" stroke-miterlimit="10"/></g><g transform="translate(-14,-22) scale(1,1)"><g><path fill="none" stroke="none"/><text fill="#000000" stroke="none" font-family="Arial" font-size="13px" font-style="normal" font-weight="normal" text-decoration="none" x="149" y="154">--&gt; enregistrer début et fin</text><text fill="#000000" stroke="none" font-family="Arial" font-size="13px" font-style="normal" font-weight="normal" text-decoration="none" x="149" y="167">emprunt</text></g></g><g transform="translate(-14,-22) scale(1,1)"><g><path fill="none" stroke="none"/><text fill="#000000" stroke="none" font-family="Arial" font-size="13px" font-style="normal" font-weight="normal" text-decoration="none" x="149" y="182">--&gt; enregistrer nouveau livre</text></g></g><g transform="translate(-14,-22) scale(1,1)"><g><path fill="none" stroke="none"/><text fill="#000000" stroke="none" font-family="Arial" font-size="13px" font-style="normal" font-weight="normal" text-decoration="none" x="149" y="197">--&gt; lancer restauration</text></g></g><g transform="translate(-14,-22) scale(1,1)"><g><path fill="none" stroke="none"/><text fill="#000000" stroke="none" font-family="Arial" font-size="13px" font-style="normal" font-weight="normal" text-decoration="none" x="149" y="212">--&gt; réintégrer livre réparé</text></g></g><g transform="translate(-14,-22) scale(1,1)"><path fill="#ffffff" stroke="none" d="M 144 272 L 301 272 L 311 282 L 311 327 L 144 327 L 144 272"/></g><g transform="translate(-14,-22) scale(1,1)"><path fill="none" stroke="#000000" d="M 144 272 L 301 272 L 311 282 L 311 327 L 144 327 L 144 272 L 144 272" stroke-miterlimit="10"/></g><g transform="translate(-14,-22) scale(1,1)"><path fill="none" stroke="#000000" d="M 301 272 L 301 282 L 311 282 L 301 272" stroke-miterlimit="10"/></g><g transform="translate(-14,-22) scale(1,1)"><g><path fill="none" stroke="none"/><text fill="#000000" stroke="none" font-family="Arial" font-size="13px" font-style="normal" font-weight="normal" text-decoration="none" x="149" y="290">--&gt; gérer inscription</text></g></g><g transform="translate(-14,-22) scale(1,1)"><g><path fill="none" stroke="none"/><text fill="#000000" stroke="none" font-family="Arial" font-size="13px" font-style="normal" font-weight="normal" text-decoration="none" x="149" y="305">--&gt; gérer contentieux</text></g></g><g transform="translate(-14,-22) scale(1,1)"><g><path fill="none" stroke="none"/><text fill="#000000" stroke="none" font-family="Arial" font-size="16px" font-style="normal" font-weight="normal" text-decoration="none" x="117" y="53">Diagramme de  contexte (diag. de Use Cases préliminaire)</text></g></g><g transform="translate(-14,-22) scale(1,1)"><path fill="#ffffff" stroke="none" d="M 448 160 L 596 160 L 606 170 L 606 230 L 448 230 L 448 160"/></g><g transform="translate(-14,-22) scale(1,1)"><path fill="none" stroke="#000000" d="M 448 160 L 596 160 L 606 170 L 606 230 L 448 230 L 448 160 L 448 160" stroke-miterlimit="10"/></g><g transform="translate(-14,-22) scale(1,1)"><path fill="none" stroke="#000000" d="M 596 160 L 596 170 L 606 170 L 596 160" stroke-miterlimit="10"/></g><g transform="translate(-14,-22) scale(1,1)"><g><path fill="none" stroke="none"/><text fill="#000000" stroke="none" font-family="Arial" font-size="13px" font-style="normal" font-weight="normal" text-decoration="none" x="453" y="178"> --&gt; envoyer message</text><text fill="#000000" stroke="none" font-family="Arial" font-size="13px" font-style="normal" font-weight="normal" text-decoration="none" x="453" y="191">"achat_livre_neuf"</text></g></g><g transform="translate(-14,-22) scale(1,1)"><path fill="#ffffff" stroke="none" d="M 100.01164524147727 433.68 C 100.01164524147727 428.886167936 103.89748756642273 425 108.69091796875 425 C 113.48434837107727 425 117.37019069602273 428.886167936 117.37019069602273 433.68 C 117.37019069602273 438.473832064 113.48434837107727 442.36 108.69091796875 442.36 C 103.89748756642273 442.36 100.01164524147727 438.473832064 100.01164524147727 433.68 Z"/></g><g transform="translate(-14,-22) scale(1,1)"><path fill="none" stroke="#000000" d="M 100.01164524147727 433.68 C 100.01164524147727 428.886167936 103.89748756642273 425 108.69091796875 425 C 113.48434837107727 425 117.37019069602273 428.886167936 117.37019069602273 433.68 C 117.37019069602273 438.473832064 113.48434837107727 442.36 108.69091796875 442.36 C 103.89748756642273 442.36 100.01164524147727 438.473832064 100.01164524147727 433.68 Z" stroke-miterlimit="10"/></g><g transform="translate(-14,-22) scale(1,1)"><path fill="none" stroke="#000000" d="M 108.69091796875 442.36 L 108.69091796875 459.64" stroke-miterlimit="10"/></g><g transform="translate(-14,-22) scale(1,1)"><path fill="none" stroke="#000000" d="M 99.50109978693182 448.84 L 117.88073615056818 448.84" stroke-miterlimit="10"/></g><g transform="translate(-14,-22) scale(1,1)"><path fill="none" stroke="#000000" d="M 108.69091796875 459.64 L 95.92728160511363 477" stroke-miterlimit="10"/></g><g transform="translate(-14,-22) scale(1,1)"><path fill="none" stroke="#000000" d="M 108.69091796875 459.64 L 121.45455433238637 477" stroke-miterlimit="10"/></g><g transform="translate(-14,-22) scale(1,1)"><g><path fill="none" stroke="none"/><text fill="#000000" stroke="none" font-family="Arial" font-size="13px" font-style="normal" font-weight="bold" text-decoration="none" x="86.280517578125" y="497.5">Abonné</text></g></g><g transform="translate(-14,-22) scale(1,1)"><path fill="#ffffff" stroke="none" d="M 144 392 L 365 392 L 375 402 L 375 462 L 144 462 L 144 392"/></g><g transform="translate(-14,-22) scale(1,1)"><path fill="none" stroke="#000000" d="M 144 392 L 365 392 L 375 402 L 375 462 L 144 462 L 144 392 L 144 392" stroke-miterlimit="10"/></g><g transform="translate(-14,-22) scale(1,1)"><path fill="none" stroke="#000000" d="M 365 392 L 365 402 L 375 402 L 365 392" stroke-miterlimit="10"/></g><g transform="translate(-14,-22) scale(1,1)"><g><path fill="none" stroke="none"/><text fill="#000000" stroke="none" font-family="Arial" font-size="13px" font-style="normal" font-weight="normal" text-decoration="none" x="149" y="410">--&gt; consulter catalogue de livres (V2)</text></g></g><g transform="translate(-14,-22) scale(1,1)"><g><path fill="none" stroke="none"/><text fill="#000000" stroke="none" font-family="Arial" font-size="13px" font-style="normal" font-weight="normal" text-decoration="none" x="149" y="425">--&gt; effectuer réservation (V2)</text></g></g></g></svg>