<svg version="1.1" xmlns="http://www.w3.org/2000/svg" xmlns:xlink="http://www.w3.org/1999/xlink" width="660" height="413"><defs/><g><text fill="#eeeeee" stroke="none" font-family="Arial" font-size="24px" font-style="normal" font-weight="normal" text-decoration="none" x="0" y="0">UNREGISTERED</text><text fill="#eeeeee" stroke="none" font-family="Arial" font-size="24px" font-style="normal" font-weight="normal" text-decoration="none" x="0" y="30">UNREGISTERED</text><text fill="#eeeeee" stroke="none" font-family="Arial" font-size="24px" font-style="normal" font-weight="normal" text-decoration="none" x="0" y="60">UNREGISTERED</text><text fill="#eeeeee" stroke="none" font-family="Arial" font-size="24px" font-style="normal" font-weight="normal" text-decoration="none" x="0" y="90">UNREGISTERED</text><text fill="#eeeeee" stroke="none" font-family="Arial" font-size="24px" font-style="normal" font-weight="normal" text-decoration="none" x="0" y="120">UNREGISTERED</text><text fill="#eeeeee" stroke="none" font-family="Arial" font-size="24px" font-style="normal" font-weight="normal" text-decoration="none" x="0" y="150">UNREGISTERED</text><text fill="#eeeeee" stroke="none" font-family="Arial" font-size="24px" font-style="normal" font-weight="normal" text-decoration="none" x="0" y="180">UNREGISTERED</text><text fill="#eeeeee" stroke="none" font-family="Arial" font-size="24px" font-style="normal" font-weight="normal" text-decoration="none" x="0" y="210">UNREGISTERED</text><text fill="#eeeeee" stroke="none" font-family="Arial" font-size="24px" font-style="normal" font-weight="normal" text-decoration="none" x="0" y="240">UNREGISTERED</text><text fill="#eeeeee" stroke="none" font-family="Arial" font-size="24px" font-style="normal" font-weight="normal" text-decoration="none" x="0" y="270">UNREGISTERED</text><text fill="#eeeeee" stroke="none" font-family="Arial" font-size="24px" font-style="normal" font-weight="normal" text-decoration="none" x="0" y="300">UNREGISTERED</text><text fill="#eeeeee" stroke="none" font-family="Arial" font-size="24px" font-style="normal" font-weight="normal" text-decoration="none" x="0" y="330">UNREGISTERED</text><text fill="#eeeeee" stroke="none" font-family="Arial" font-size="24px" font-style="normal" font-weight="normal" text-decoration="none" x="0" y="360">UNREGISTERED</text><text fill="#eeeeee" stroke="none" font-family="Arial" font-size="24px" font-style="normal" font-weight="normal" text-decoration="none" x="0" y="390">UNREGISTERED</text><text fill="#eeeeee" stroke="none" font-family="Arial" font-size="24px" font-style="normal" font-weight="normal" text-decoration="none" x="200" y="0">UNREGISTERED</text><text fill="#eeeeee" stroke="none" font-family="Arial" font-size="24px" font-style="normal" font-weight="normal" text-decoration="none" x="200" y="30">UNREGISTERED</text><text fill="#eeeeee" stroke="none" font-family="Arial" font-size="24px" font-style="normal" font-weight="normal" text-decoration="none" x="200" y="60">UNREGISTERED</text><text fill="#eeeeee" stroke="none" font-family="Arial" font-size="24px" font-style="normal" font-weight="normal" text-decoration="none" x="200" y="90">UNREGISTERED</text><text fill="#eeeeee" stroke="none" font-family="Arial" font-size="24px" font-style="normal" font-weight="normal" text-decoration="none" x="200" y="120">UNREGISTERED</text><text fill="#eeeeee" stroke="none" font-family="Arial" font-size="24px" font-style="normal" font-weight="normal" text-decoration="none" x="200" y="150">UNREGISTERED</text><text fill="#eeeeee" stroke="none" font-family="Arial" font-size="24px" font-style="normal" font-weight="normal" text-decoration="none" x="200" y="180">UNREGISTERED</text><text fill="#eeeeee" stroke="none" font-family="Arial" font-size="24px" font-style="normal" font-weight="normal" text-decoration="none" x="200" y="210">UNREGISTERED</text><text fill="#eeeeee" stroke="none" font-family="Arial" font-size="24px" font-style="normal" font-weight="normal" text-decoration="none" x="200" y="240">UNREGISTERED</text><text fill="#eeeeee" stroke="none" font-family="Arial" font-size="24px" font-style="normal" font-weight="normal" text-decoration="none" x="200" y="270">UNREGISTERED</text><text fill="#eeeeee" stroke="none" font-family="Arial" font-size="24px" font-style="normal" font-weight="normal" text-decoration="none" x="200" y="300">UNREGISTERED</text><text fill="#eeeeee" stroke="none" font-family="Arial" font-size="24px" font-style="normal" font-weight="normal" text-decoration="none" x="200" y="330">UNREGISTERED</text><text fill="#eeeeee" stroke="none" font-family="Arial" font-size="24px" font-style="normal" font-weight="normal" text-decoration="none" x="200" y="360">UNREGISTERED</text><text fill="#eeeeee" stroke="none" font-family="Arial" font-size="24px" font-style="normal" font-weight="normal" text-decoration="none" x="200" y="390">UNREGISTERED</text><text fill="#eeeeee" stroke="none" font-family="Arial" font-size="24px" font-style="normal" font-weight="normal" text-decoration="none" x="400" y="0">UNREGISTERED</text><text fill="#eeeeee" stroke="none" font-family="Arial" font-size="24px" font-style="normal" font-weight="normal" text-decoration="none" x="400" y="30">UNREGISTERED</text><text fill="#eeeeee" stroke="none" font-family="Arial" font-size="24px" font-style="normal" font-weight="normal" text-decoration="none" x="400" y="60">UNREGISTERED</text><text fill="#eeeeee" stroke="none" font-family="Arial" font-size="24px" font-style="normal" font-weight="normal" text-decoration="none" x="400" y="90">UNREGISTERED</text><text fill="#eeeeee" stroke="none" font-family="Arial" font-size="24px" font-style="normal" font-weight="normal" text-decoration="none" x="400" y="120">UNREGISTERED</text><text fill="#eeeeee" stroke="none" font-family="Arial" font-size="24px" font-style="normal" font-weight="normal" text-decoration="none" x="400" y="150">UNREGISTERED</text><text fill="#eeeeee" stroke="none" font-family="Arial" font-size="24px" font-style="normal" font-weight="normal" text-decoration="none" x="400" y="180">UNREGISTERED</text><text fill="#eeeeee" stroke="none" font-family="Arial" font-size="24px" font-style="normal" font-weight="normal" text-decoration="none" x="400" y="210">UNREGISTERED</text><text fill="#eeeeee" stroke="none" font-family="Arial" font-size="24px" font-style="normal" font-weight="normal" text-decoration="none" x="400" y="240">UNREGISTERED</text><text fill="#eeeeee" stroke="none" font-family="Arial" font-size="24px" font-style="normal" font-weight="normal" text-decoration="none" x="400" y="270">UNREGISTERED</text><text fill="#eeeeee" stroke="none" font-family="Arial" font-size="24px" font-style="normal" font-weight="normal" text-decoration="none" x="400" y="300">UNREGISTERED</text><text fill="#eeeeee" stroke="none" font-family="Arial" font-size="24px" font-style="normal" font-weight="normal" text-decoration="none" x="400" y="330">UNREGISTERED</text><text fill="#eeeeee" stroke="none" font-family="Arial" font-size="24px" font-style="normal" font-weight="normal" text-decoration="none" x="400" y="360">UNREGISTERED</text><text fill="#eeeeee" stroke="none" font-family="Arial" font-size="24px" font-style="normal" font-weight="normal" text-decoration="none" x="400" y="390">UNREGISTERED</text><text fill="#eeeeee" stroke="none" font-family="Arial" font-size="24px" font-style="normal" font-weight="normal" text-decoration="none" x="600" y="0">UNREGISTERED</text><text fill="#eeeeee" stroke="none" font-family="Arial" font-size="24px" font-style="normal" font-weight="normal" text-decoration="none" x="600" y="30">UNREGISTERED</text><text fill="#eeeeee" stroke="none" font-family="Arial" font-size="24px" font-style="normal" font-weight="normal" text-decoration="none" x="600" y="60">UNREGISTERED</text><text fill="#eeeeee" stroke="none" font-family="Arial" font-size="24px" font-style="normal" font-weight="normal" text-decoration="none" x="600" y="90">UNREGISTERED</text><text fill="#eeeeee" stroke="none" font-family="Arial" font-size="24px" font-style="normal" font-weight="normal" text-decoration="none" x="600" y="120">UNREGISTERED</text><text fill="#eeeeee" stroke="none" font-family="Arial" font-size="24px" font-style="normal" font-weight="normal" text-decoration="none" x="600" y="150">UNREGISTERED</text><text fill="#eeeeee" stroke="none" font-family="Arial" font-size="24px" font-style="normal" font-weight="normal" text-decoration="none" x="600" y="180">UNREGISTERED</text><text fill="#eeeeee" stroke="none" font-family="Arial" font-size="24px" font-style="normal" font-weight="normal" text-decoration="none" x="600" y="210">UNREGISTERED</text><text fill="#eeeeee" stroke="none" font-family="Arial" font-size="24px" font-style="normal" font-weight="normal" text-decoration="none" x="600" y="240">UNREGISTERED</text><text fill="#eeeeee" stroke="none" font-family="Arial" font-size="24px" font-style="normal" font-weight="normal" text-decoration="none" x="600" y="270">UNREGISTERED</text><text fill="#eeeeee" stroke="none" font-family="Arial" font-size="24px" font-style="normal" font-weight="normal" text-decoration="none" x="600" y="300">UNREGISTERED</text><text fill="#eeeeee" stroke="none" font-family="Arial" font-size="24px" font-style="normal" font-weight="normal" text-decoration="none" x="600" y="330">UNREGISTERED</text><text fill="#eeeeee" stroke="none" font-family="Arial" font-size="24px" font-style="normal" font-weight="normal" text-decoration="none" x="600" y="360">UNREGISTERED</text><text fill="#eeeeee" stroke="none" font-family="Arial" font-size="24px" font-style="normal" font-weight="normal" text-decoration="none" x="600" y="390">UNREGISTERED</text><g transform="translate(-6,-54) scale(1,1)"><rect fill="#C0C0C0" stroke="none" x="223" y="183" width="130.05615234375" height="100" opacity="0.2"/></g><g transform="translate(-6,-54) scale(1,1)"><rect fill="#ffffff" stroke="none" x="216" y="176" width="130.05615234375" height="100"/></g><g transform="translate(-6,-54) scale(1,1)"><path fill="none" stroke="#000000" d="M 216 176 L 346.05615234375 176 L 346.05615234375 276 L 216 276 L 216 176 Z Z" stroke-miterlimit="10"/></g><g transform="translate(-6,-54) scale(1,1)"><path fill="none" stroke="#000000" d="M 216 214 L 346.05615234375 214" stroke-miterlimit="10"/></g><g transform="translate(-6,-54) scale(1,1)"><path fill="none" stroke="#000000" d="M 216 267 L 346.05615234375 267" stroke-miterlimit="10"/></g><g transform="translate(-6,-54) scale(1,1)"><g><path fill="none" stroke="none"/><text fill="#000000" stroke="none" font-family="Arial" font-size="13px" font-style="normal" font-weight="normal" text-decoration="none" x="258.26220703125" y="193.5">«entity»</text></g></g><g transform="translate(-6,-54) scale(1,1)"><g><path fill="none" stroke="none"/><text fill="#000000" stroke="none" font-family="Arial" font-size="13px" font-style="normal" font-weight="bold" text-decoration="none" x="256.462646484375" y="208.5">Emprunt</text></g></g><g transform="translate(-6,-54) scale(1,1)"><g><path fill="none" stroke="none"/><text fill="#000000" stroke="none" font-family="Arial" font-size="13px" font-style="normal" font-weight="normal" text-decoration="none" x="221" y="231.5">+numero: integer {id}</text></g></g><g transform="translate(-6,-54) scale(1,1)"><g><path fill="none" stroke="none"/><text fill="#000000" stroke="none" font-family="Arial" font-size="13px" font-style="normal" font-weight="normal" text-decoration="none" x="221" y="246.5">+date_debut: Date</text></g></g><g transform="translate(-6,-54) scale(1,1)"><g><path fill="none" stroke="none"/><text fill="#000000" stroke="none" font-family="Arial" font-size="13px" font-style="normal" font-weight="normal" text-decoration="none" x="221" y="261.5">+date_fin: Date</text></g></g><g transform="translate(-6,-54) scale(1,1)"><rect fill="#C0C0C0" stroke="none" x="399" y="287" width="98.99072265625" height="100" opacity="0.2"/></g><g transform="translate(-6,-54) scale(1,1)"><rect fill="#ffffff" stroke="none" x="392" y="280" width="98.99072265625" height="100"/></g><g transform="translate(-6,-54) scale(1,1)"><path fill="none" stroke="#000000" d="M 392 280 L 490.99072265625 280 L 490.99072265625 380 L 392 380 L 392 280 Z Z" stroke-miterlimit="10"/></g><g transform="translate(-6,-54) scale(1,1)"><path fill="none" stroke="#000000" d="M 392 318 L 490.99072265625 318" stroke-miterlimit="10"/></g><g transform="translate(-6,-54) scale(1,1)"><path fill="none" stroke="#000000" d="M 392 371 L 490.99072265625 371" stroke-miterlimit="10"/></g><g transform="translate(-6,-54) scale(1,1)"><g><path fill="none" stroke="none"/><text fill="#000000" stroke="none" font-family="Arial" font-size="13px" font-style="normal" font-weight="normal" text-decoration="none" x="418.7294921875" y="297.5">«entity»</text></g></g><g transform="translate(-6,-54) scale(1,1)"><g><path fill="none" stroke="none"/><text fill="#000000" stroke="none" font-family="Arial" font-size="13px" font-style="normal" font-weight="bold" text-decoration="none" x="406.805419921875" y="312.5">Contentieux</text></g></g><g transform="translate(-6,-54) scale(1,1)"><g><path fill="none" stroke="none"/><text fill="#000000" stroke="none" font-family="Arial" font-size="13px" font-style="normal" font-weight="normal" text-decoration="none" x="397" y="335.5">+numero {id}</text></g></g><g transform="translate(-6,-54) scale(1,1)"><g><path fill="none" stroke="none"/><text fill="#000000" stroke="none" font-family="Arial" font-size="13px" font-style="normal" font-weight="normal" text-decoration="none" x="397" y="350.5">+raison</text></g></g><g transform="translate(-6,-54) scale(1,1)"><g><path fill="none" stroke="none"/><text fill="#000000" stroke="none" font-family="Arial" font-size="13px" font-style="normal" font-weight="normal" text-decoration="none" x="397" y="365.5">+regle: boolean</text></g></g><g transform="translate(-6,-54) scale(1,1)"><rect fill="#C0C0C0" stroke="none" x="39" y="311" width="107.97900390625" height="52" opacity="0.2"/></g><g transform="translate(-6,-54) scale(1,1)"><rect fill="#ffffff" stroke="none" x="32" y="304" width="107.97900390625" height="52"/></g><g transform="translate(-6,-54) scale(1,1)"><path fill="none" stroke="#000000" d="M 32 304 L 139.97900390625 304 L 139.97900390625 356 L 32 356 L 32 304 Z Z" stroke-miterlimit="10"/></g><g transform="translate(-6,-54) scale(1,1)"><g><path fill="none" stroke="none"/><text fill="#000000" stroke="none" font-family="Arial" font-size="13px" font-style="normal" font-weight="normal" text-decoration="none" x="63.2236328125" y="321.5">«entity»</text></g></g><g transform="translate(-6,-54) scale(1,1)"><g><path fill="none" stroke="none"/><text fill="#000000" stroke="none" font-family="Arial" font-size="13px" font-style="normal" font-weight="bold" text-decoration="none" x="63.5791015625" y="336.5">Abonné</text></g></g><g transform="translate(-6,-54) scale(1,1)"><g><path fill="none" stroke="none"/><text fill="#000000" stroke="none" font-family="Arial" font-size="13px" font-style="normal" font-weight="normal" text-decoration="none" x="36.5" y="351.5">(from personnes)</text></g></g><g transform="translate(-6,-54) scale(1,1)"><rect fill="#C0C0C0" stroke="none" x="23" y="71" width="175.58154296875" height="52" opacity="0.2"/></g><g transform="translate(-6,-54) scale(1,1)"><rect fill="#ffffff" stroke="none" x="16" y="64" width="175.58154296875" height="52"/></g><g transform="translate(-6,-54) scale(1,1)"><path fill="none" stroke="#000000" d="M 16 64 L 191.58154296875 64 L 191.58154296875 116 L 16 116 L 16 64 Z Z" stroke-miterlimit="10"/></g><g transform="translate(-6,-54) scale(1,1)"><g><path fill="none" stroke="none"/><text fill="#000000" stroke="none" font-family="Arial" font-size="13px" font-style="normal" font-weight="normal" text-decoration="none" x="81.02490234375" y="81.5">«entity»</text></g></g><g transform="translate(-6,-54) scale(1,1)"><g><path fill="none" stroke="none"/><text fill="#000000" stroke="none" font-family="Arial" font-size="13px" font-style="normal" font-weight="bold" text-decoration="none" x="71.278076171875" y="96.5">Exemplaire</text></g></g><g transform="translate(-6,-54) scale(1,1)"><g><path fill="none" stroke="none"/><text fill="#000000" stroke="none" font-family="Arial" font-size="13px" font-style="normal" font-weight="normal" text-decoration="none" x="69.488037109375" y="111.5">(from livres)</text></g></g><g transform="translate(-6,-54) scale(1,1)"><path fill="none" stroke="#000000" d="M 215 176 L 138 117" stroke-miterlimit="10"/></g><g transform="translate(-6,-54) scale(1,1)"><path fill="none" stroke="#000000" d="M 148.62714158780489 119.83969393997805 L 138 117 L 143.5065570399136 126.52249072281923" stroke-miterlimit="10"/></g><g transform="translate(-6,-54) scale(1,1)"><g><path fill="none" stroke="none"/><text fill="#000000" stroke="none" font-family="Arial" font-size="13px" font-style="normal" font-weight="normal" text-decoration="none" x="213.5" y="164.5">*</text></g></g><g transform="translate(-6,-54) scale(1,1)"><g><path fill="none" stroke="none"/><text fill="#000000" stroke="none" font-family="Arial" font-size="13px" font-style="normal" font-weight="normal" text-decoration="none" x="31.5" y="139.5">+exemp_emprunté</text></g></g><g transform="translate(-6,-54) scale(1,1)"><g><path fill="none" stroke="none"/><text fill="#000000" stroke="none" font-family="Arial" font-size="13px" font-style="normal" font-weight="normal" text-decoration="none" x="158.5" y="127.5">1</text></g></g><g transform="translate(-6,-54) scale(1,1)"><path fill="none" stroke="#000000" d="M 347 269 L 391 298" stroke-miterlimit="10"/></g><g transform="translate(-6,-54) scale(1,1)"><g><path fill="none" stroke="none"/><text fill="#000000" stroke="none" font-family="Arial" font-size="13px" font-style="normal" font-weight="normal" text-decoration="none" x="355.5" y="302.5">0..1</text></g></g><g transform="translate(-6,-54) scale(1,1)"><path fill="#ffffff" stroke="none" d="M 352 64 L 645 64 L 655 74 L 655 169 L 352 169 L 352 64"/></g><g transform="translate(-6,-54) scale(1,1)"><path fill="none" stroke="#000000" d="M 352 64 L 645 64 L 655 74 L 655 169 L 352 169 L 352 64 L 352 64" stroke-miterlimit="10"/></g><g transform="translate(-6,-54) scale(1,1)"><path fill="none" stroke="#000000" d="M 645 64 L 645 74 L 655 74 L 645 64" stroke-miterlimit="10"/></g><g transform="translate(-6,-54) scale(1,1)"><g><path fill="none" stroke="none"/><text fill="#000000" stroke="none" font-family="Arial" font-size="13px" font-style="normal" font-weight="normal" text-decoration="none" x="357" y="82">NB: chaque emprunt précis ne référence qu'un</text><text fill="#000000" stroke="none" font-family="Arial" font-size="13px" font-style="normal" font-weight="normal" text-decoration="none" x="357" y="95">seul exemplaire emprunté.</text></g></g><g transform="translate(-6,-54) scale(1,1)"><g><path fill="none" stroke="none"/><text fill="#000000" stroke="none" font-family="Arial" font-size="13px" font-style="normal" font-weight="normal" text-decoration="none" x="357" y="110">Si un abonné veut emprunter plusieurs livres le</text><text fill="#000000" stroke="none" font-family="Arial" font-size="13px" font-style="normal" font-weight="normal" text-decoration="none" x="357" y="123">même jour on construira plusieurs instances de la</text><text fill="#000000" stroke="none" font-family="Arial" font-size="13px" font-style="normal" font-weight="normal" text-decoration="none" x="357" y="136">classe Emprunt.</text></g></g><g transform="translate(-6,-54) scale(1,1)"><g><path fill="none" stroke="none"/><text fill="#000000" stroke="none" font-family="Arial" font-size="13px" font-style="normal" font-weight="normal" text-decoration="none" x="357" y="151">Chaque instance pourra ultérieurement avoir si</text><text fill="#000000" stroke="none" font-family="Arial" font-size="13px" font-style="normal" font-weight="normal" text-decoration="none" x="357" y="164">besoin une date_fin différente</text></g></g><g transform="translate(-6,-54) scale(1,1)"><path fill="none" stroke="#000000" d="M 394 171 L 347 194" stroke-miterlimit="10" stroke-dasharray="3"/></g><g transform="translate(-6,-54) scale(1,1)"><path fill="none" stroke="#000000" d="M 215 261 L 136 303" stroke-miterlimit="10"/></g><g transform="translate(-6,-54) scale(1,1)"><path fill="none" stroke="#000000" d="M 142.9972830079551 294.5124779525127 L 136 303 L 146.94941066005504 301.94624186955787" stroke-miterlimit="10"/></g><g transform="translate(-6,-54) scale(1,1)"><g><path fill="none" stroke="none"/><text fill="#000000" stroke="none" font-family="Arial" font-size="13px" font-style="normal" font-weight="normal" text-decoration="none" x="187.5" y="266.5">*</text></g></g><g transform="translate(-6,-54) scale(1,1)"><g><path fill="none" stroke="none"/><text fill="#000000" stroke="none" font-family="Arial" font-size="13px" font-style="normal" font-weight="normal" text-decoration="none" x="73.5" y="282.5">+emprunteur</text></g></g><g transform="translate(-6,-54) scale(1,1)"><rect fill="#C0C0C0" stroke="none" x="199" y="407" width="141.9580078125" height="57" opacity="0.2"/></g><g transform="translate(-6,-54) scale(1,1)"><rect fill="#ffffff" stroke="none" x="192" y="400" width="141.9580078125" height="57"/></g><g transform="translate(-6,-54) scale(1,1)"><path fill="none" stroke="#000000" d="M 192 400 L 333.9580078125 400 L 333.9580078125 457 L 192 457 L 192 400 Z Z" stroke-miterlimit="10"/></g><g transform="translate(-6,-54) scale(1,1)"><path fill="none" stroke="#000000" d="M 192 438 L 333.9580078125 438" stroke-miterlimit="10"/></g><g transform="translate(-6,-54) scale(1,1)"><path fill="none" stroke="#000000" d="M 192 448 L 333.9580078125 448" stroke-miterlimit="10"/></g><g transform="translate(-6,-54) scale(1,1)"><g><path fill="none" stroke="none"/><text fill="#000000" stroke="none" font-family="Arial" font-size="13px" font-style="normal" font-weight="normal" text-decoration="none" x="196.5" y="417.5">«service,transactional»</text></g></g><g transform="translate(-6,-54) scale(1,1)"><g><path fill="none" stroke="none"/><text fill="#000000" stroke="none" font-family="Arial" font-size="13px" font-style="normal" font-weight="bold" text-decoration="none" x="216.739501953125" y="432.5">ServiceEmprunt</text></g></g><g transform="translate(-6,-54) scale(1,1)"><path fill="none" stroke="#000000" d="M 265 399 L 276 277" stroke-miterlimit="10" stroke-dasharray="3"/></g><g transform="translate(-6,-54) scale(1,1)"><path fill="none" stroke="#000000" d="M 279.2799059376535 287.499629376323 L 276 277 L 270.8948845982253 286.7436028621123" stroke-miterlimit="10"/></g></g></svg>