<svg version="1.1" xmlns="http://www.w3.org/2000/svg" xmlns:xlink="http://www.w3.org/1999/xlink" width="650.63623046875" height="332"><defs/><g><text fill="#eeeeee" stroke="none" font-family="Arial" font-size="24px" font-style="normal" font-weight="normal" text-decoration="none" x="0" y="0">UNREGISTERED</text><text fill="#eeeeee" stroke="none" font-family="Arial" font-size="24px" font-style="normal" font-weight="normal" text-decoration="none" x="0" y="30">UNREGISTERED</text><text fill="#eeeeee" stroke="none" font-family="Arial" font-size="24px" font-style="normal" font-weight="normal" text-decoration="none" x="0" y="60">UNREGISTERED</text><text fill="#eeeeee" stroke="none" font-family="Arial" font-size="24px" font-style="normal" font-weight="normal" text-decoration="none" x="0" y="90">UNREGISTERED</text><text fill="#eeeeee" stroke="none" font-family="Arial" font-size="24px" font-style="normal" font-weight="normal" text-decoration="none" x="0" y="120">UNREGISTERED</text><text fill="#eeeeee" stroke="none" font-family="Arial" font-size="24px" font-style="normal" font-weight="normal" text-decoration="none" x="0" y="150">UNREGISTERED</text><text fill="#eeeeee" stroke="none" font-family="Arial" font-size="24px" font-style="normal" font-weight="normal" text-decoration="none" x="0" y="180">UNREGISTERED</text><text fill="#eeeeee" stroke="none" font-family="Arial" font-size="24px" font-style="normal" font-weight="normal" text-decoration="none" x="0" y="210">UNREGISTERED</text><text fill="#eeeeee" stroke="none" font-family="Arial" font-size="24px" font-style="normal" font-weight="normal" text-decoration="none" x="0" y="240">UNREGISTERED</text><text fill="#eeeeee" stroke="none" font-family="Arial" font-size="24px" font-style="normal" font-weight="normal" text-decoration="none" x="0" y="270">UNREGISTERED</text><text fill="#eeeeee" stroke="none" font-family="Arial" font-size="24px" font-style="normal" font-weight="normal" text-decoration="none" x="0" y="300">UNREGISTERED</text><text fill="#eeeeee" stroke="none" font-family="Arial" font-size="24px" font-style="normal" font-weight="normal" text-decoration="none" x="0" y="330">UNREGISTERED</text><text fill="#eeeeee" stroke="none" font-family="Arial" font-size="24px" font-style="normal" font-weight="normal" text-decoration="none" x="200" y="0">UNREGISTERED</text><text fill="#eeeeee" stroke="none" font-family="Arial" font-size="24px" font-style="normal" font-weight="normal" text-decoration="none" x="200" y="30">UNREGISTERED</text><text fill="#eeeeee" stroke="none" font-family="Arial" font-size="24px" font-style="normal" font-weight="normal" text-decoration="none" x="200" y="60">UNREGISTERED</text><text fill="#eeeeee" stroke="none" font-family="Arial" font-size="24px" font-style="normal" font-weight="normal" text-decoration="none" x="200" y="90">UNREGISTERED</text><text fill="#eeeeee" stroke="none" font-family="Arial" font-size="24px" font-style="normal" font-weight="normal" text-decoration="none" x="200" y="120">UNREGISTERED</text><text fill="#eeeeee" stroke="none" font-family="Arial" font-size="24px" font-style="normal" font-weight="normal" text-decoration="none" x="200" y="150">UNREGISTERED</text><text fill="#eeeeee" stroke="none" font-family="Arial" font-size="24px" font-style="normal" font-weight="normal" text-decoration="none" x="200" y="180">UNREGISTERED</text><text fill="#eeeeee" stroke="none" font-family="Arial" font-size="24px" font-style="normal" font-weight="normal" text-decoration="none" x="200" y="210">UNREGISTERED</text><text fill="#eeeeee" stroke="none" font-family="Arial" font-size="24px" font-style="normal" font-weight="normal" text-decoration="none" x="200" y="240">UNREGISTERED</text><text fill="#eeeeee" stroke="none" font-family="Arial" font-size="24px" font-style="normal" font-weight="normal" text-decoration="none" x="200" y="270">UNREGISTERED</text><text fill="#eeeeee" stroke="none" font-family="Arial" font-size="24px" font-style="normal" font-weight="normal" text-decoration="none" x="200" y="300">UNREGISTERED</text><text fill="#eeeeee" stroke="none" font-family="Arial" font-size="24px" font-style="normal" font-weight="normal" text-decoration="none" x="200" y="330">UNREGISTERED</text><text fill="#eeeeee" stroke="none" font-family="Arial" font-size="24px" font-style="normal" font-weight="normal" text-decoration="none" x="400" y="0">UNREGISTERED</text><text fill="#eeeeee" stroke="none" font-family="Arial" font-size="24px" font-style="normal" font-weight="normal" text-decoration="none" x="400" y="30">UNREGISTERED</text><text fill="#eeeeee" stroke="none" font-family="Arial" font-size="24px" font-style="normal" font-weight="normal" text-decoration="none" x="400" y="60">UNREGISTERED</text><text fill="#eeeeee" stroke="none" font-family="Arial" font-size="24px" font-style="normal" font-weight="normal" text-decoration="none" x="400" y="90">UNREGISTERED</text><text fill="#eeeeee" stroke="none" font-family="Arial" font-size="24px" font-style="normal" font-weight="normal" text-decoration="none" x="400" y="120">UNREGISTERED</text><text fill="#eeeeee" stroke="none" font-family="Arial" font-size="24px" font-style="normal" font-weight="normal" text-decoration="none" x="400" y="150">UNREGISTERED</text><text fill="#eeeeee" stroke="none" font-family="Arial" font-size="24px" font-style="normal" font-weight="normal" text-decoration="none" x="400" y="180">UNREGISTERED</text><text fill="#eeeeee" stroke="none" font-family="Arial" font-size="24px" font-style="normal" font-weight="normal" text-decoration="none" x="400" y="210">UNREGISTERED</text><text fill="#eeeeee" stroke="none" font-family="Arial" font-size="24px" font-style="normal" font-weight="normal" text-decoration="none" x="400" y="240">UNREGISTERED</text><text fill="#eeeeee" stroke="none" font-family="Arial" font-size="24px" font-style="normal" font-weight="normal" text-decoration="none" x="400" y="270">UNREGISTERED</text><text fill="#eeeeee" stroke="none" font-family="Arial" font-size="24px" font-style="normal" font-weight="normal" text-decoration="none" x="400" y="300">UNREGISTERED</text><text fill="#eeeeee" stroke="none" font-family="Arial" font-size="24px" font-style="normal" font-weight="normal" text-decoration="none" x="400" y="330">UNREGISTERED</text><text fill="#eeeeee" stroke="none" font-family="Arial" font-size="24px" font-style="normal" font-weight="normal" text-decoration="none" x="600" y="0">UNREGISTERED</text><text fill="#eeeeee" stroke="none" font-family="Arial" font-size="24px" font-style="normal" font-weight="normal" text-decoration="none" x="600" y="30">UNREGISTERED</text><text fill="#eeeeee" stroke="none" font-family="Arial" font-size="24px" font-style="normal" font-weight="normal" text-decoration="none" x="600" y="60">UNREGISTERED</text><text fill="#eeeeee" stroke="none" font-family="Arial" font-size="24px" font-style="normal" font-weight="normal" text-decoration="none" x="600" y="90">UNREGISTERED</text><text fill="#eeeeee" stroke="none" font-family="Arial" font-size="24px" font-style="normal" font-weight="normal" text-decoration="none" x="600" y="120">UNREGISTERED</text><text fill="#eeeeee" stroke="none" font-family="Arial" font-size="24px" font-style="normal" font-weight="normal" text-decoration="none" x="600" y="150">UNREGISTERED</text><text fill="#eeeeee" stroke="none" font-family="Arial" font-size="24px" font-style="normal" font-weight="normal" text-decoration="none" x="600" y="180">UNREGISTERED</text><text fill="#eeeeee" stroke="none" font-family="Arial" font-size="24px" font-style="normal" font-weight="normal" text-decoration="none" x="600" y="210">UNREGISTERED</text><text fill="#eeeeee" stroke="none" font-family="Arial" font-size="24px" font-style="normal" font-weight="normal" text-decoration="none" x="600" y="240">UNREGISTERED</text><text fill="#eeeeee" stroke="none" font-family="Arial" font-size="24px" font-style="normal" font-weight="normal" text-decoration="none" x="600" y="270">UNREGISTERED</text><text fill="#eeeeee" stroke="none" font-family="Arial" font-size="24px" font-style="normal" font-weight="normal" text-decoration="none" x="600" y="300">UNREGISTERED</text><text fill="#eeeeee" stroke="none" font-family="Arial" font-size="24px" font-style="normal" font-weight="normal" text-decoration="none" x="600" y="330">UNREGISTERED</text><g transform="translate(-14,-62) scale(1,1)"><rect fill="#C0C0C0" stroke="none" x="367" y="79" width="175.58154296875" height="100" opacity="0.2"/></g><g transform="translate(-14,-62) scale(1,1)"><rect fill="#ffffff" stroke="none" x="360" y="72" width="175.58154296875" height="100"/></g><g transform="translate(-14,-62) scale(1,1)"><path fill="none" stroke="#000000" d="M 360 72 L 535.58154296875 72 L 535.58154296875 172 L 360 172 L 360 72 Z Z" stroke-miterlimit="10"/></g><g transform="translate(-14,-62) scale(1,1)"><path fill="none" stroke="#000000" d="M 360 110 L 535.58154296875 110" stroke-miterlimit="10"/></g><g transform="translate(-14,-62) scale(1,1)"><path fill="none" stroke="#000000" d="M 360 163 L 535.58154296875 163" stroke-miterlimit="10"/></g><g transform="translate(-14,-62) scale(1,1)"><g><path fill="none" stroke="none"/><text fill="#000000" stroke="none" font-family="Arial" font-size="13px" font-style="normal" font-weight="normal" text-decoration="none" x="425.02490234375" y="89.5">«entity»</text></g></g><g transform="translate(-14,-62) scale(1,1)"><g><path fill="none" stroke="none"/><text fill="#000000" stroke="none" font-family="Arial" font-size="13px" font-style="normal" font-weight="bold" text-decoration="none" x="415.278076171875" y="104.5">Exemplaire</text></g></g><g transform="translate(-14,-62) scale(1,1)"><g><path fill="none" stroke="none"/><text fill="#000000" stroke="none" font-family="Arial" font-size="13px" font-style="normal" font-weight="normal" text-decoration="none" x="365" y="127.5">+numero: integer {id}</text></g></g><g transform="translate(-14,-62) scale(1,1)"><g><path fill="none" stroke="none"/><text fill="#000000" stroke="none" font-family="Arial" font-size="13px" font-style="normal" font-weight="normal" text-decoration="none" x="365" y="142.5">+etatPhysique: EtatPhysique</text></g></g><g transform="translate(-14,-62) scale(1,1)"><g><path fill="none" stroke="none"/><text fill="#000000" stroke="none" font-family="Arial" font-size="13px" font-style="normal" font-weight="normal" text-decoration="none" x="365" y="157.5">+usage: Usage</text></g></g><g transform="translate(-14,-62) scale(1,1)"><rect fill="#C0C0C0" stroke="none" x="567" y="215" width="94.63623046875" height="115" opacity="0.2"/></g><g transform="translate(-14,-62) scale(1,1)"><rect fill="#ffffff" stroke="none" x="560" y="208" width="94.63623046875" height="115"/></g><g transform="translate(-14,-62) scale(1,1)"><path fill="none" stroke="#000000" d="M 560 208 L 654.63623046875 208 L 654.63623046875 323 L 560 323 L 560 208 Z Z" stroke-miterlimit="10"/></g><g transform="translate(-14,-62) scale(1,1)"><path fill="none" stroke="#000000" d="M 560 246 L 654.63623046875 246" stroke-miterlimit="10"/></g><g transform="translate(-14,-62) scale(1,1)"><path fill="none" stroke="#000000" d="M 560 314 L 654.63623046875 314" stroke-miterlimit="10"/></g><g transform="translate(-14,-62) scale(1,1)"><g><path fill="none" stroke="none"/><text fill="#000000" stroke="none" font-family="Arial" font-size="13px" font-style="normal" font-weight="normal" text-decoration="none" x="584.55224609375" y="225.5">«entity»</text></g></g><g transform="translate(-14,-62) scale(1,1)"><g><path fill="none" stroke="none"/><text fill="#000000" stroke="none" font-family="Arial" font-size="13px" font-style="normal" font-weight="bold" text-decoration="none" x="586.002685546875" y="240.5">Oeuvre</text></g></g><g transform="translate(-14,-62) scale(1,1)"><g><path fill="none" stroke="none"/><text fill="#000000" stroke="none" font-family="Arial" font-size="13px" font-style="normal" font-weight="normal" text-decoration="none" x="565" y="263.5">+numISBN {id}</text></g></g><g transform="translate(-14,-62) scale(1,1)"><g><path fill="none" stroke="none"/><text fill="#000000" stroke="none" font-family="Arial" font-size="13px" font-style="normal" font-weight="normal" text-decoration="none" x="565" y="278.5">+titre</text></g></g><g transform="translate(-14,-62) scale(1,1)"><g><path fill="none" stroke="none"/><text fill="#000000" stroke="none" font-family="Arial" font-size="13px" font-style="normal" font-weight="normal" text-decoration="none" x="565" y="293.5">+auteur</text></g></g><g transform="translate(-14,-62) scale(1,1)"><g><path fill="none" stroke="none"/><text fill="#000000" stroke="none" font-family="Arial" font-size="13px" font-style="normal" font-weight="normal" text-decoration="none" x="565" y="308.5">+editeur</text></g></g><g transform="translate(-14,-62) scale(1,1)"><rect fill="#C0C0C0" stroke="none" x="87" y="271" width="125.34619140625" height="90" opacity="0.2"/></g><g transform="translate(-14,-62) scale(1,1)"><rect fill="#ffffff" stroke="none" x="80" y="264" width="125.34619140625" height="90"/></g><g transform="translate(-14,-62) scale(1,1)"><path fill="none" stroke="#000000" d="M 80 264 L 205.34619140625 264 L 205.34619140625 354 L 80 354 L 80 264 Z Z" stroke-miterlimit="10"/></g><g transform="translate(-14,-62) scale(1,1)"><path fill="none" stroke="#000000" d="M 80 302 L 205.34619140625 302" stroke-miterlimit="10"/></g><g transform="translate(-14,-62) scale(1,1)"><g><path fill="none" stroke="none"/><text fill="#000000" stroke="none" font-family="Arial" font-size="13px" font-style="normal" font-weight="normal" text-decoration="none" x="99.30908203125" y="281.5">«enumeration»</text></g></g><g transform="translate(-14,-62) scale(1,1)"><g><path fill="none" stroke="none"/><text fill="#000000" stroke="none" font-family="Arial" font-size="13px" font-style="normal" font-weight="bold" text-decoration="none" x="104.371337890625" y="296.5">EtatPhysique</text></g></g><g transform="translate(-14,-62) scale(1,1)"><g><path fill="none" stroke="none"/><text fill="#000000" stroke="none" font-family="Arial" font-size="13px" font-style="normal" font-weight="normal" text-decoration="none" x="85" y="319.5">BON_ETAT</text></g></g><g transform="translate(-14,-62) scale(1,1)"><g><path fill="none" stroke="none"/><text fill="#000000" stroke="none" font-family="Arial" font-size="13px" font-style="normal" font-weight="normal" text-decoration="none" x="85" y="334.5">ABIME</text></g></g><g transform="translate(-14,-62) scale(1,1)"><g><path fill="none" stroke="none"/><text fill="#000000" stroke="none" font-family="Arial" font-size="13px" font-style="normal" font-weight="normal" text-decoration="none" x="85" y="349.5">HS</text></g></g><g transform="translate(-14,-62) scale(1,1)"><rect fill="#C0C0C0" stroke="none" x="263" y="271" width="166.23779296875" height="120" opacity="0.2"/></g><g transform="translate(-14,-62) scale(1,1)"><rect fill="#ffffff" stroke="none" x="256" y="264" width="166.23779296875" height="120"/></g><g transform="translate(-14,-62) scale(1,1)"><path fill="none" stroke="#000000" d="M 256 264 L 422.23779296875 264 L 422.23779296875 384 L 256 384 L 256 264 Z Z" stroke-miterlimit="10"/></g><g transform="translate(-14,-62) scale(1,1)"><path fill="none" stroke="#000000" d="M 256 302 L 422.23779296875 302" stroke-miterlimit="10"/></g><g transform="translate(-14,-62) scale(1,1)"><g><path fill="none" stroke="none"/><text fill="#000000" stroke="none" font-family="Arial" font-size="13px" font-style="normal" font-weight="normal" text-decoration="none" x="295.7548828125" y="281.5">«enumeration»</text></g></g><g transform="translate(-14,-62) scale(1,1)"><g><path fill="none" stroke="none"/><text fill="#000000" stroke="none" font-family="Arial" font-size="13px" font-style="normal" font-weight="bold" text-decoration="none" x="320.329833984375" y="296.5">Usage</text></g></g><g transform="translate(-14,-62) scale(1,1)"><g><path fill="none" stroke="none"/><text fill="#000000" stroke="none" font-family="Arial" font-size="13px" font-style="normal" font-weight="normal" text-decoration="none" x="261" y="319.5">DISPONIBLE</text></g></g><g transform="translate(-14,-62) scale(1,1)"><g><path fill="none" stroke="none"/><text fill="#000000" stroke="none" font-family="Arial" font-size="13px" font-style="normal" font-weight="normal" text-decoration="none" x="261" y="334.5">EN_REPARATION</text></g></g><g transform="translate(-14,-62) scale(1,1)"><g><path fill="none" stroke="none"/><text fill="#000000" stroke="none" font-family="Arial" font-size="13px" font-style="normal" font-weight="normal" text-decoration="none" x="261" y="349.5">EMPRUNTE</text></g></g><g transform="translate(-14,-62) scale(1,1)"><g><path fill="none" stroke="none"/><text fill="#000000" stroke="none" font-family="Arial" font-size="13px" font-style="normal" font-weight="normal" text-decoration="none" x="261" y="364.5">RENDU</text></g></g><g transform="translate(-14,-62) scale(1,1)"><g><path fill="none" stroke="none"/><text fill="#000000" stroke="none" font-family="Arial" font-size="13px" font-style="normal" font-weight="normal" text-decoration="none" x="261" y="379.5">PERDU_OU_EN_RETARD</text></g></g><g transform="translate(-14,-62) scale(1,1)"><path fill="none" stroke="#000000" d="M 559 222 L 504 173" stroke-miterlimit="10"/></g><g transform="translate(-14,-62) scale(1,1)"><g><path fill="none" stroke="none"/><text fill="#000000" stroke="none" font-family="Arial" font-size="13px" font-style="normal" font-weight="normal" text-decoration="none" x="547.5" y="204.5">1</text></g></g><g transform="translate(-14,-62) scale(1,1)"><g><path fill="none" stroke="none"/><text fill="#000000" stroke="none" font-family="Arial" font-size="13px" font-style="normal" font-weight="normal" text-decoration="none" x="518.5" y="184.5">1..*</text></g></g><g transform="translate(-14,-62) scale(1,1)"><rect fill="#C0C0C0" stroke="none" x="31" y="103" width="209.4970703125" height="85" opacity="0.2"/></g><g transform="translate(-14,-62) scale(1,1)"><rect fill="#ffffff" stroke="none" x="24" y="96" width="209.4970703125" height="85"/></g><g transform="translate(-14,-62) scale(1,1)"><path fill="none" stroke="#000000" d="M 24 96 L 233.4970703125 96 L 233.4970703125 181 L 24 181 L 24 96 Z Z" stroke-miterlimit="10"/></g><g transform="translate(-14,-62) scale(1,1)"><path fill="none" stroke="#000000" d="M 24 134 L 233.4970703125 134" stroke-miterlimit="10"/></g><g transform="translate(-14,-62) scale(1,1)"><path fill="none" stroke="#000000" d="M 24 144 L 233.4970703125 144" stroke-miterlimit="10"/></g><g transform="translate(-14,-62) scale(1,1)"><g><path fill="none" stroke="none"/><text fill="#000000" stroke="none" font-family="Arial" font-size="13px" font-style="normal" font-weight="normal" text-decoration="none" x="100.929931640625" y="113.5">«service»</text></g></g><g transform="translate(-14,-62) scale(1,1)"><g><path fill="none" stroke="none"/><text fill="#000000" stroke="none" font-family="Arial" font-size="13px" font-style="normal" font-weight="bold" text-decoration="none" x="92.98583984375" y="128.5">ServiceLivre</text></g></g><g transform="translate(-14,-62) scale(1,1)"><g><path fill="none" stroke="none"/><text fill="#000000" stroke="none" font-family="Arial" font-size="13px" font-style="normal" font-weight="normal" text-decoration="none" x="29" y="161.5">+findExemplaireById(): Exemplaire</text></g></g><g transform="translate(-14,-62) scale(1,1)"><g><path fill="none" stroke="none"/><text fill="#000000" stroke="none" font-family="Arial" font-size="13px" font-style="normal" font-weight="normal" text-decoration="none" x="29" y="176.5">+ajouterExemplaire()</text></g></g><g transform="translate(-14,-62) scale(1,1)"><path fill="none" stroke="#000000" d="M 234 133 L 359 126" stroke-miterlimit="10" stroke-dasharray="3"/></g><g transform="translate(-14,-62) scale(1,1)"><path fill="none" stroke="#000000" d="M 349.08858706704024 130.7711522373907 L 359 126 L 348.6178586028318 122.36528680509646" stroke-miterlimit="10"/></g></g></svg>