<svg version="1.1" xmlns="http://www.w3.org/2000/svg" xmlns:xlink="http://www.w3.org/1999/xlink" width="607.43896484375" height="558"><defs/><g><text fill="#eeeeee" stroke="none" font-family="Arial" font-size="24px" font-style="normal" font-weight="normal" text-decoration="none" x="0" y="0">UNREGISTERED</text><text fill="#eeeeee" stroke="none" font-family="Arial" font-size="24px" font-style="normal" font-weight="normal" text-decoration="none" x="0" y="30">UNREGISTERED</text><text fill="#eeeeee" stroke="none" font-family="Arial" font-size="24px" font-style="normal" font-weight="normal" text-decoration="none" x="0" y="60">UNREGISTERED</text><text fill="#eeeeee" stroke="none" font-family="Arial" font-size="24px" font-style="normal" font-weight="normal" text-decoration="none" x="0" y="90">UNREGISTERED</text><text fill="#eeeeee" stroke="none" font-family="Arial" font-size="24px" font-style="normal" font-weight="normal" text-decoration="none" x="0" y="120">UNREGISTERED</text><text fill="#eeeeee" stroke="none" font-family="Arial" font-size="24px" font-style="normal" font-weight="normal" text-decoration="none" x="0" y="150">UNREGISTERED</text><text fill="#eeeeee" stroke="none" font-family="Arial" font-size="24px" font-style="normal" font-weight="normal" text-decoration="none" x="0" y="180">UNREGISTERED</text><text fill="#eeeeee" stroke="none" font-family="Arial" font-size="24px" font-style="normal" font-weight="normal" text-decoration="none" x="0" y="210">UNREGISTERED</text><text fill="#eeeeee" stroke="none" font-family="Arial" font-size="24px" font-style="normal" font-weight="normal" text-decoration="none" x="0" y="240">UNREGISTERED</text><text fill="#eeeeee" stroke="none" font-family="Arial" font-size="24px" font-style="normal" font-weight="normal" text-decoration="none" x="0" y="270">UNREGISTERED</text><text fill="#eeeeee" stroke="none" font-family="Arial" font-size="24px" font-style="normal" font-weight="normal" text-decoration="none" x="0" y="300">UNREGISTERED</text><text fill="#eeeeee" stroke="none" font-family="Arial" font-size="24px" font-style="normal" font-weight="normal" text-decoration="none" x="0" y="330">UNREGISTERED</text><text fill="#eeeeee" stroke="none" font-family="Arial" font-size="24px" font-style="normal" font-weight="normal" text-decoration="none" x="0" y="360">UNREGISTERED</text><text fill="#eeeeee" stroke="none" font-family="Arial" font-size="24px" font-style="normal" font-weight="normal" text-decoration="none" x="0" y="390">UNREGISTERED</text><text fill="#eeeeee" stroke="none" font-family="Arial" font-size="24px" font-style="normal" font-weight="normal" text-decoration="none" x="0" y="420">UNREGISTERED</text><text fill="#eeeeee" stroke="none" font-family="Arial" font-size="24px" font-style="normal" font-weight="normal" text-decoration="none" x="0" y="450">UNREGISTERED</text><text fill="#eeeeee" stroke="none" font-family="Arial" font-size="24px" font-style="normal" font-weight="normal" text-decoration="none" x="0" y="480">UNREGISTERED</text><text fill="#eeeeee" stroke="none" font-family="Arial" font-size="24px" font-style="normal" font-weight="normal" text-decoration="none" x="0" y="510">UNREGISTERED</text><text fill="#eeeeee" stroke="none" font-family="Arial" font-size="24px" font-style="normal" font-weight="normal" text-decoration="none" x="0" y="540">UNREGISTERED</text><text fill="#eeeeee" stroke="none" font-family="Arial" font-size="24px" font-style="normal" font-weight="normal" text-decoration="none" x="200" y="0">UNREGISTERED</text><text fill="#eeeeee" stroke="none" font-family="Arial" font-size="24px" font-style="normal" font-weight="normal" text-decoration="none" x="200" y="30">UNREGISTERED</text><text fill="#eeeeee" stroke="none" font-family="Arial" font-size="24px" font-style="normal" font-weight="normal" text-decoration="none" x="200" y="60">UNREGISTERED</text><text fill="#eeeeee" stroke="none" font-family="Arial" font-size="24px" font-style="normal" font-weight="normal" text-decoration="none" x="200" y="90">UNREGISTERED</text><text fill="#eeeeee" stroke="none" font-family="Arial" font-size="24px" font-style="normal" font-weight="normal" text-decoration="none" x="200" y="120">UNREGISTERED</text><text fill="#eeeeee" stroke="none" font-family="Arial" font-size="24px" font-style="normal" font-weight="normal" text-decoration="none" x="200" y="150">UNREGISTERED</text><text fill="#eeeeee" stroke="none" font-family="Arial" font-size="24px" font-style="normal" font-weight="normal" text-decoration="none" x="200" y="180">UNREGISTERED</text><text fill="#eeeeee" stroke="none" font-family="Arial" font-size="24px" font-style="normal" font-weight="normal" text-decoration="none" x="200" y="210">UNREGISTERED</text><text fill="#eeeeee" stroke="none" font-family="Arial" font-size="24px" font-style="normal" font-weight="normal" text-decoration="none" x="200" y="240">UNREGISTERED</text><text fill="#eeeeee" stroke="none" font-family="Arial" font-size="24px" font-style="normal" font-weight="normal" text-decoration="none" x="200" y="270">UNREGISTERED</text><text fill="#eeeeee" stroke="none" font-family="Arial" font-size="24px" font-style="normal" font-weight="normal" text-decoration="none" x="200" y="300">UNREGISTERED</text><text fill="#eeeeee" stroke="none" font-family="Arial" font-size="24px" font-style="normal" font-weight="normal" text-decoration="none" x="200" y="330">UNREGISTERED</text><text fill="#eeeeee" stroke="none" font-family="Arial" font-size="24px" font-style="normal" font-weight="normal" text-decoration="none" x="200" y="360">UNREGISTERED</text><text fill="#eeeeee" stroke="none" font-family="Arial" font-size="24px" font-style="normal" font-weight="normal" text-decoration="none" x="200" y="390">UNREGISTERED</text><text fill="#eeeeee" stroke="none" font-family="Arial" font-size="24px" font-style="normal" font-weight="normal" text-decoration="none" x="200" y="420">UNREGISTERED</text><text fill="#eeeeee" stroke="none" font-family="Arial" font-size="24px" font-style="normal" font-weight="normal" text-decoration="none" x="200" y="450">UNREGISTERED</text><text fill="#eeeeee" stroke="none" font-family="Arial" font-size="24px" font-style="normal" font-weight="normal" text-decoration="none" x="200" y="480">UNREGISTERED</text><text fill="#eeeeee" stroke="none" font-family="Arial" font-size="24px" font-style="normal" font-weight="normal" text-decoration="none" x="200" y="510">UNREGISTERED</text><text fill="#eeeeee" stroke="none" font-family="Arial" font-size="24px" font-style="normal" font-weight="normal" text-decoration="none" x="200" y="540">UNREGISTERED</text><text fill="#eeeeee" stroke="none" font-family="Arial" font-size="24px" font-style="normal" font-weight="normal" text-decoration="none" x="400" y="0">UNREGISTERED</text><text fill="#eeeeee" stroke="none" font-family="Arial" font-size="24px" font-style="normal" font-weight="normal" text-decoration="none" x="400" y="30">UNREGISTERED</text><text fill="#eeeeee" stroke="none" font-family="Arial" font-size="24px" font-style="normal" font-weight="normal" text-decoration="none" x="400" y="60">UNREGISTERED</text><text fill="#eeeeee" stroke="none" font-family="Arial" font-size="24px" font-style="normal" font-weight="normal" text-decoration="none" x="400" y="90">UNREGISTERED</text><text fill="#eeeeee" stroke="none" font-family="Arial" font-size="24px" font-style="normal" font-weight="normal" text-decoration="none" x="400" y="120">UNREGISTERED</text><text fill="#eeeeee" stroke="none" font-family="Arial" font-size="24px" font-style="normal" font-weight="normal" text-decoration="none" x="400" y="150">UNREGISTERED</text><text fill="#eeeeee" stroke="none" font-family="Arial" font-size="24px" font-style="normal" font-weight="normal" text-decoration="none" x="400" y="180">UNREGISTERED</text><text fill="#eeeeee" stroke="none" font-family="Arial" font-size="24px" font-style="normal" font-weight="normal" text-decoration="none" x="400" y="210">UNREGISTERED</text><text fill="#eeeeee" stroke="none" font-family="Arial" font-size="24px" font-style="normal" font-weight="normal" text-decoration="none" x="400" y="240">UNREGISTERED</text><text fill="#eeeeee" stroke="none" font-family="Arial" font-size="24px" font-style="normal" font-weight="normal" text-decoration="none" x="400" y="270">UNREGISTERED</text><text fill="#eeeeee" stroke="none" font-family="Arial" font-size="24px" font-style="normal" font-weight="normal" text-decoration="none" x="400" y="300">UNREGISTERED</text><text fill="#eeeeee" stroke="none" font-family="Arial" font-size="24px" font-style="normal" font-weight="normal" text-decoration="none" x="400" y="330">UNREGISTERED</text><text fill="#eeeeee" stroke="none" font-family="Arial" font-size="24px" font-style="normal" font-weight="normal" text-decoration="none" x="400" y="360">UNREGISTERED</text><text fill="#eeeeee" stroke="none" font-family="Arial" font-size="24px" font-style="normal" font-weight="normal" text-decoration="none" x="400" y="390">UNREGISTERED</text><text fill="#eeeeee" stroke="none" font-family="Arial" font-size="24px" font-style="normal" font-weight="normal" text-decoration="none" x="400" y="420">UNREGISTERED</text><text fill="#eeeeee" stroke="none" font-family="Arial" font-size="24px" font-style="normal" font-weight="normal" text-decoration="none" x="400" y="450">UNREGISTERED</text><text fill="#eeeeee" stroke="none" font-family="Arial" font-size="24px" font-style="normal" font-weight="normal" text-decoration="none" x="400" y="480">UNREGISTERED</text><text fill="#eeeeee" stroke="none" font-family="Arial" font-size="24px" font-style="normal" font-weight="normal" text-decoration="none" x="400" y="510">UNREGISTERED</text><text fill="#eeeeee" stroke="none" font-family="Arial" font-size="24px" font-style="normal" font-weight="normal" text-decoration="none" x="400" y="540">UNREGISTERED</text><text fill="#eeeeee" stroke="none" font-family="Arial" font-size="24px" font-style="normal" font-weight="normal" text-decoration="none" x="600" y="0">UNREGISTERED</text><text fill="#eeeeee" stroke="none" font-family="Arial" font-size="24px" font-style="normal" font-weight="normal" text-decoration="none" x="600" y="30">UNREGISTERED</text><text fill="#eeeeee" stroke="none" font-family="Arial" font-size="24px" font-style="normal" font-weight="normal" text-decoration="none" x="600" y="60">UNREGISTERED</text><text fill="#eeeeee" stroke="none" font-family="Arial" font-size="24px" font-style="normal" font-weight="normal" text-decoration="none" x="600" y="90">UNREGISTERED</text><text fill="#eeeeee" stroke="none" font-family="Arial" font-size="24px" font-style="normal" font-weight="normal" text-decoration="none" x="600" y="120">UNREGISTERED</text><text fill="#eeeeee" stroke="none" font-family="Arial" font-size="24px" font-style="normal" font-weight="normal" text-decoration="none" x="600" y="150">UNREGISTERED</text><text fill="#eeeeee" stroke="none" font-family="Arial" font-size="24px" font-style="normal" font-weight="normal" text-decoration="none" x="600" y="180">UNREGISTERED</text><text fill="#eeeeee" stroke="none" font-family="Arial" font-size="24px" font-style="normal" font-weight="normal" text-decoration="none" x="600" y="210">UNREGISTERED</text><text fill="#eeeeee" stroke="none" font-family="Arial" font-size="24px" font-style="normal" font-weight="normal" text-decoration="none" x="600" y="240">UNREGISTERED</text><text fill="#eeeeee" stroke="none" font-family="Arial" font-size="24px" font-style="normal" font-weight="normal" text-decoration="none" x="600" y="270">UNREGISTERED</text><text fill="#eeeeee" stroke="none" font-family="Arial" font-size="24px" font-style="normal" font-weight="normal" text-decoration="none" x="600" y="300">UNREGISTERED</text><text fill="#eeeeee" stroke="none" font-family="Arial" font-size="24px" font-style="normal" font-weight="normal" text-decoration="none" x="600" y="330">UNREGISTERED</text><text fill="#eeeeee" stroke="none" font-family="Arial" font-size="24px" font-style="normal" font-weight="normal" text-decoration="none" x="600" y="360">UNREGISTERED</text><text fill="#eeeeee" stroke="none" font-family="Arial" font-size="24px" font-style="normal" font-weight="normal" text-decoration="none" x="600" y="390">UNREGISTERED</text><text fill="#eeeeee" stroke="none" font-family="Arial" font-size="24px" font-style="normal" font-weight="normal" text-decoration="none" x="600" y="420">UNREGISTERED</text><text fill="#eeeeee" stroke="none" font-family="Arial" font-size="24px" font-style="normal" font-weight="normal" text-decoration="none" x="600" y="450">UNREGISTERED</text><text fill="#eeeeee" stroke="none" font-family="Arial" font-size="24px" font-style="normal" font-weight="normal" text-decoration="none" x="600" y="480">UNREGISTERED</text><text fill="#eeeeee" stroke="none" font-family="Arial" font-size="24px" font-style="normal" font-weight="normal" text-decoration="none" x="600" y="510">UNREGISTERED</text><text fill="#eeeeee" stroke="none" font-family="Arial" font-size="24px" font-style="normal" font-weight="normal" text-decoration="none" x="600" y="540">UNREGISTERED</text><g transform="translate(7,-94) scale(1,1)"><path fill="#C0C0C0" stroke="none" d="M 111 120.5 C 111 115.2532944 115.2532944 111 120.5 111 C 125.7467056 111 130 115.2532944 130 120.5 C 130 125.7467056 125.7467056 130 120.5 130 C 115.2532944 130 111 125.7467056 111 120.5 Z" opacity="0.2"/></g><g transform="translate(7,-94) scale(1,1)"><path fill="#000000" stroke="none" d="M 104 113.5 C 104 108.2532944 108.2532944 104 113.5 104 C 118.7467056 104 123 108.2532944 123 113.5 C 123 118.7467056 118.7467056 123 113.5 123 C 108.2532944 123 104 118.7467056 104 113.5 Z"/></g><g transform="translate(7,-94) scale(1,1)"><path fill="#C0C0C0" stroke="none" d="M 479 587.5 C 479 580.59644 484.59644 575 491.5 575 C 498.40356 575 504 580.59644 504 587.5 C 504 594.40356 498.40356 600 491.5 600 C 484.59644 600 479 594.40356 479 587.5 Z" opacity="0.2"/></g><g transform="translate(7,-94) scale(1,1)"><path fill="none" stroke="#000000" d="M 472 580.5 C 472 573.59644 477.59644 568 484.5 568 C 491.40356 568 497 573.59644 497 580.5 C 497 587.40356 491.40356 593 484.5 593 C 477.59644 593 472 587.40356 472 580.5 Z" stroke-miterlimit="10"/></g><g transform="translate(7,-94) scale(1,1)"><path fill="#000000" stroke="none" d="M 477 580.5 C 477 576.357864 480.357864 573 484.5 573 C 488.642136 573 492 576.357864 492 580.5 C 492 584.642136 488.642136 588 484.5 588 C 480.357864 588 477 584.642136 477 580.5 Z"/></g><g transform="translate(7,-94) scale(1,1)"><path fill="#C0C0C0" stroke="none" d="M 511 251.5 C 511 244.59644 516.59644 239 523.5 239 C 530.40356 239 536 244.59644 536 251.5 C 536 258.40356 530.40356 264 523.5 264 C 516.59644 264 511 258.40356 511 251.5 Z" opacity="0.2"/></g><g transform="translate(7,-94) scale(1,1)"><path fill="none" stroke="#000000" d="M 504 244.5 C 504 237.59644 509.59644 232 516.5 232 C 523.40356 232 529 237.59644 529 244.5 C 529 251.40356 523.40356 257 516.5 257 C 509.59644 257 504 251.40356 504 244.5 Z" stroke-miterlimit="10"/></g><g transform="translate(7,-94) scale(1,1)"><path fill="#000000" stroke="none" d="M 509 244.5 C 509 240.357864 512.357864 237 516.5 237 C 520.642136 237 524 240.357864 524 244.5 C 524 248.642136 520.642136 252 516.5 252 C 512.357864 252 509 248.642136 509 244.5 Z"/></g><g transform="translate(7,-94) scale(1,1)"><g><path fill="none" stroke="none"/><text fill="#000000" stroke="none" font-family="Arial" font-size="13px" font-style="normal" font-weight="normal" text-decoration="none" x="437" y="610">début</text><text fill="#000000" stroke="none" font-family="Arial" font-size="13px" font-style="normal" font-weight="normal" text-decoration="none" x="437" y="623">emprunt</text><text fill="#000000" stroke="none" font-family="Arial" font-size="13px" font-style="normal" font-weight="normal" text-decoration="none" x="437" y="636">enregistré</text></g></g><g transform="translate(7,-94) scale(1,1)"><g><path fill="none" stroke="none"/><text fill="#000000" stroke="none" font-family="Arial" font-size="13px" font-style="normal" font-weight="normal" text-decoration="none" x="525" y="282">Annulation</text><text fill="#000000" stroke="none" font-family="Arial" font-size="13px" font-style="normal" font-weight="normal" text-decoration="none" x="525" y="295">explicité</text></g></g><g transform="translate(7,-94) scale(1,1)"><path fill="#C0C0C0" stroke="none" d="M 217 119 L 336.736328125 119 Q 346.736328125 119 346.736328125 129 L 346.736328125 149 Q 346.736328125 159 336.736328125 159 L 217 159 Q 207 159 207 149 L 207 129 Q 207 119 217 119 Z" opacity="0.2"/></g><g transform="translate(7,-94) scale(1,1)"><path fill="#ffffff" stroke="none" d="M 210 112 L 329.736328125 112 Q 339.736328125 112 339.736328125 122 L 339.736328125 142 Q 339.736328125 152 329.736328125 152 L 210 152 Q 200 152 200 142 L 200 122 Q 200 112 210 112 Z"/></g><g transform="translate(7,-94) scale(1,1)"><path fill="none" stroke="#000000" d="M 210 112 L 329.736328125 112 Q 339.736328125 112 339.736328125 122 L 339.736328125 142 Q 339.736328125 152 329.736328125 152 L 210 152 Q 200 152 200 142 L 200 122 Q 200 112 210 112 Z" stroke-miterlimit="10"/></g><g transform="translate(7,-94) scale(1,1)"><g><path fill="none" stroke="none"/><text fill="#000000" stroke="none" font-family="Arial" font-size="13px" font-style="normal" font-weight="bold" text-decoration="none" x="210.254150390625" y="131.5">identifier emprunteur</text></g></g><g transform="translate(7,-94) scale(1,1)"><path fill="#C0C0C0" stroke="none" d="M 73 247 L 297.7138671875 247 Q 307.7138671875 247 307.7138671875 257 L 307.7138671875 277 Q 307.7138671875 287 297.7138671875 287 L 73 287 Q 63 287 63 277 L 63 257 Q 63 247 73 247 Z" opacity="0.2"/></g><g transform="translate(7,-94) scale(1,1)"><path fill="#ffffff" stroke="none" d="M 66 240 L 290.7138671875 240 Q 300.7138671875 240 300.7138671875 250 L 300.7138671875 270 Q 300.7138671875 280 290.7138671875 280 L 66 280 Q 56 280 56 270 L 56 250 Q 56 240 66 240 Z"/></g><g transform="translate(7,-94) scale(1,1)"><path fill="none" stroke="#000000" d="M 66 240 L 290.7138671875 240 Q 300.7138671875 240 300.7138671875 250 L 300.7138671875 270 Q 300.7138671875 280 290.7138671875 280 L 66 280 Q 56 280 56 270 L 56 250 Q 56 240 66 240 Z" stroke-miterlimit="10"/></g><g transform="translate(7,-94) scale(1,1)"><g><path fill="none" stroke="none"/><text fill="#000000" stroke="none" font-family="Arial" font-size="13px" font-style="normal" font-weight="bold" text-decoration="none" x="70.177001953125" y="259.5">calculer nombre d'emprunts autorisés</text></g></g><g transform="translate(7,-94) scale(1,1)"><path fill="none" stroke="#000000" d="M 124 114 L 199 123" stroke-miterlimit="10"/></g><g transform="translate(7,-94) scale(1,1)"><path fill="none" stroke="#000000" d="M 188.4081715950539 125.9686985431627 L 199 123 L 189.41125943852933 117.60963318086728" stroke-miterlimit="10"/></g><g transform="translate(7,-94) scale(1,1)"><path fill="#C0C0C0" stroke="none" d="M 231 200.5 L 242.5 191 L 253 200.5 L 242.5 209 L 231 200.5" opacity="0.2"/></g><g transform="translate(7,-94) scale(1,1)"><path fill="#ffffff" stroke="none" d="M 224 193 L 235 184 L 246 193 L 235 202 L 224 193"/></g><g transform="translate(7,-94) scale(1,1)"><path fill="none" stroke="#000000" d="M 224 193 L 235 184 L 246 193 L 235 202 L 224 193 L 224 193" stroke-miterlimit="10"/></g><g transform="translate(7,-94) scale(1,1)"><path fill="none" stroke="#000000" d="M 257 153 L 241 183" stroke-miterlimit="10"/></g><g transform="translate(7,-94) scale(1,1)"><path fill="none" stroke="#000000" d="M 242.06815485416197 172.05198441691235 L 241 183 L 249.49671560007252 176.01388348139798" stroke-miterlimit="10"/></g><g transform="translate(7,-94) scale(1,1)"><g><path fill="none" stroke="none"/><text fill="#000000" stroke="none" font-family="Arial" font-size="13px" font-style="normal" font-weight="normal" text-decoration="none" x="261.5" y="180.5">identification  ok ?</text></g></g><g transform="translate(7,-94) scale(1,1)"><path fill="none" stroke="#000000" d="M 226 203 L 196 239" stroke-miterlimit="10"/></g><g transform="translate(7,-94) scale(1,1)"><path fill="none" stroke="#000000" d="M 199.27214478569894 228.49794931923182 L 196 239 L 205.7398270197279 233.88768451425597" stroke-miterlimit="10"/></g><g transform="translate(7,-94) scale(1,1)"><g><path fill="none" stroke="none"/><text fill="#000000" stroke="none" font-family="Arial" font-size="13px" font-style="normal" font-weight="normal" text-decoration="none" x="128.5" y="198.5"> [abonné valide]</text></g></g><g transform="translate(7,-94) scale(1,1)"><path fill="none" stroke="#000000" d="M 247 195 L 503 242" stroke-miterlimit="10"/></g><g transform="translate(7,-94) scale(1,1)"><path fill="none" stroke="#000000" d="M 492.2442519012647 244.30518607417113 L 503 242 L 493.7645248777068 236.02455028759317" stroke-miterlimit="10"/></g><g transform="translate(7,-94) scale(1,1)"><g><path fill="none" stroke="none"/><text fill="#000000" stroke="none" font-family="Arial" font-size="13px" font-style="normal" font-weight="normal" text-decoration="none" x="341.5" y="239.5"> [invalide]</text></g></g><g transform="translate(7,-94) scale(1,1)"><path fill="#C0C0C0" stroke="none" d="M 191 352.5 L 202.5 343 L 213 352.5 L 202.5 361 L 191 352.5" opacity="0.2"/></g><g transform="translate(7,-94) scale(1,1)"><path fill="#ffffff" stroke="none" d="M 184 345 L 195 336 L 206 345 L 195 354 L 184 345"/></g><g transform="translate(7,-94) scale(1,1)"><path fill="none" stroke="#000000" d="M 184 345 L 195 336 L 206 345 L 195 354 L 184 345 L 184 345" stroke-miterlimit="10"/></g><g transform="translate(7,-94) scale(1,1)"><path fill="none" stroke="#000000" d="M 182 281 L 193 335" stroke-miterlimit="10"/></g><g transform="translate(7,-94) scale(1,1)"><path fill="none" stroke="#000000" d="M 186.8466768173537 325.882071846636 L 193 335 L 195.09629227833386 324.201594623103" stroke-miterlimit="10"/></g><g transform="translate(7,-94) scale(1,1)"><g><path fill="none" stroke="none"/><text fill="#000000" stroke="none" font-family="Arial" font-size="13px" font-style="normal" font-weight="normal" text-decoration="none" x="118.5" y="310.5">au moins droit à 1 emprunt ?</text></g></g><g transform="translate(7,-94) scale(1,1)"><path fill="#C0C0C0" stroke="none" d="M 65 391 L 322.04248046875 391 Q 332.04248046875 391 332.04248046875 401 L 332.04248046875 421 Q 332.04248046875 431 322.04248046875 431 L 65 431 Q 55 431 55 421 L 55 401 Q 55 391 65 391 Z" opacity="0.2"/></g><g transform="translate(7,-94) scale(1,1)"><path fill="#ffffff" stroke="none" d="M 58 384 L 315.04248046875 384 Q 325.04248046875 384 325.04248046875 394 L 325.04248046875 414 Q 325.04248046875 424 315.04248046875 424 L 58 424 Q 48 424 48 414 L 48 394 Q 48 384 58 384 Z"/></g><g transform="translate(7,-94) scale(1,1)"><path fill="none" stroke="#000000" d="M 58 384 L 315.04248046875 384 Q 325.04248046875 384 325.04248046875 394 L 325.04248046875 414 Q 325.04248046875 424 315.04248046875 424 L 58 424 Q 48 424 48 414 L 48 394 Q 48 384 58 384 Z" stroke-miterlimit="10"/></g><g transform="translate(7,-94) scale(1,1)"><g><path fill="none" stroke="none"/><text fill="#000000" stroke="none" font-family="Arial" font-size="13px" font-style="normal" font-weight="bold" text-decoration="none" x="61.513671875" y="403.5">renseigner numéro exemplaire à emprunter</text></g></g><g transform="translate(7,-94) scale(1,1)"><path fill="none" stroke="#000000" d="M 193 355 L 189 383" stroke-miterlimit="10"/></g><g transform="translate(7,-94) scale(1,1)"><path fill="none" stroke="#000000" d="M 186.2700092902383 372.3441494602911 L 189 383 L 194.60442923248974 373.53478088061274" stroke-miterlimit="10"/></g><g transform="translate(7,-94) scale(1,1)"><g><path fill="none" stroke="none"/><text fill="#000000" stroke="none" font-family="Arial" font-size="13px" font-style="normal" font-weight="normal" text-decoration="none" x="201.5" y="366.5"> [oui]</text></g></g><g transform="translate(7,-94) scale(1,1)"><path fill="none" stroke="#000000" d="M 207 346 L 416 360 L 504 258" stroke-miterlimit="10"/></g><g transform="translate(7,-94) scale(1,1)"><path fill="none" stroke="#000000" d="M 500.54866750309515 268.44453464716395 L 504 258 L 494.1741381119616 262.94494066265656" stroke-miterlimit="10"/></g><g transform="translate(7,-94) scale(1,1)"><g><path fill="none" stroke="none"/><text fill="#000000" stroke="none" font-family="Arial" font-size="13px" font-style="normal" font-weight="normal" text-decoration="none" x="377.5" y="314.5"> [non]</text></g></g><g transform="translate(7,-94) scale(1,1)"><path fill="#C0C0C0" stroke="none" d="M 113 455 L 295.81298828125 455 Q 305.81298828125 455 305.81298828125 465 L 305.81298828125 485 Q 305.81298828125 495 295.81298828125 495 L 113 495 Q 103 495 103 485 L 103 465 Q 103 455 113 455 Z" opacity="0.2"/></g><g transform="translate(7,-94) scale(1,1)"><path fill="#ffffff" stroke="none" d="M 106 448 L 288.81298828125 448 Q 298.81298828125 448 298.81298828125 458 L 298.81298828125 478 Q 298.81298828125 488 288.81298828125 488 L 106 488 Q 96 488 96 478 L 96 458 Q 96 448 106 448 Z"/></g><g transform="translate(7,-94) scale(1,1)"><path fill="none" stroke="#000000" d="M 106 448 L 288.81298828125 448 Q 298.81298828125 448 298.81298828125 458 L 298.81298828125 478 Q 298.81298828125 488 288.81298828125 488 L 106 488 Q 96 488 96 478 L 96 458 Q 96 448 106 448 Z" stroke-miterlimit="10"/></g><g transform="translate(7,-94) scale(1,1)"><g><path fill="none" stroke="none"/><text fill="#000000" stroke="none" font-family="Arial" font-size="13px" font-style="normal" font-weight="bold" text-decoration="none" x="108.37109375" y="467.5">enregistrer détails de l'emprunt</text></g></g><g transform="translate(7,-94) scale(1,1)"><path fill="none" stroke="#000000" d="M 190 425 L 193 447" stroke-miterlimit="10"/></g><g transform="translate(7,-94) scale(1,1)"><path fill="none" stroke="#000000" d="M 187.45597124574496 437.4992765974378 L 193 447 L 195.7978056169025 436.3617537286436" stroke-miterlimit="10"/></g><g transform="translate(7,-94) scale(1,1)"><path fill="#C0C0C0" stroke="none" d="M 201 599 L 369.16259765625 599 Q 379.16259765625 599 379.16259765625 609 L 379.16259765625 629 Q 379.16259765625 639 369.16259765625 639 L 201 639 Q 191 639 191 629 L 191 609 Q 191 599 201 599 Z" opacity="0.2"/></g><g transform="translate(7,-94) scale(1,1)"><path fill="#ffffff" stroke="none" d="M 194 592 L 362.16259765625 592 Q 372.16259765625 592 372.16259765625 602 L 372.16259765625 622 Q 372.16259765625 632 362.16259765625 632 L 194 632 Q 184 632 184 622 L 184 602 Q 184 592 194 592 Z"/></g><g transform="translate(7,-94) scale(1,1)"><path fill="none" stroke="#000000" d="M 194 592 L 362.16259765625 592 Q 372.16259765625 592 372.16259765625 602 L 372.16259765625 622 Q 372.16259765625 632 362.16259765625 632 L 194 632 Q 184 632 184 622 L 184 602 Q 184 592 194 592 Z" stroke-miterlimit="10"/></g><g transform="translate(7,-94) scale(1,1)"><g><path fill="none" stroke="none"/><text fill="#000000" stroke="none" font-family="Arial" font-size="13px" font-style="normal" font-weight="bold" text-decoration="none" x="195.104736328125" y="611.5">résumé sur emprunt effectué</text></g></g><g transform="translate(7,-94) scale(1,1)"><path fill="#C0C0C0" stroke="none" d="M 119 568.5 L 130.5 559 L 141 568.5 L 130.5 577 L 119 568.5" opacity="0.2"/></g><g transform="translate(7,-94) scale(1,1)"><path fill="#ffffff" stroke="none" d="M 112 561 L 123 552 L 134 561 L 123 570 L 112 561"/></g><g transform="translate(7,-94) scale(1,1)"><path fill="none" stroke="#000000" d="M 112 561 L 123 552 L 134 561 L 123 570 L 112 561 L 112 561" stroke-miterlimit="10"/></g><g transform="translate(7,-94) scale(1,1)"><path fill="none" stroke="#000000" d="M 180 489 L 131 551" stroke-miterlimit="10"/></g><g transform="translate(7,-94) scale(1,1)"><path fill="none" stroke="#000000" d="M 133.99879823251453 540.4166541603958 L 131 551 L 140.60402617644783 545.6369149547946" stroke-miterlimit="10"/></g><g transform="translate(7,-94) scale(1,1)"><g><path fill="none" stroke="none"/><text fill="#000000" stroke="none" font-family="Arial" font-size="13px" font-style="normal" font-weight="normal" text-decoration="none" x="152.5" y="547.5">droit et envie à autre emprunt ?</text></g></g><g transform="translate(7,-94) scale(1,1)"><path fill="none" stroke="#000000" d="M 135 565 L 214 591" stroke-miterlimit="10"/></g><g transform="translate(7,-94) scale(1,1)"><path fill="none" stroke="#000000" d="M 203.0307179361181 591.821493154566 L 214 591 L 205.6626628875892 583.8244296481731" stroke-miterlimit="10"/></g><g transform="translate(7,-94) scale(1,1)"><g><path fill="none" stroke="none"/><text fill="#000000" stroke="none" font-family="Arial" font-size="13px" font-style="normal" font-weight="normal" text-decoration="none" x="160.5" y="572.5"> [non]</text></g></g><g transform="translate(7,-94) scale(1,1)"><path fill="none" stroke="#000000" d="M 111 561 L 32 560 L 32 408 L 47 408" stroke-miterlimit="10"/></g><g transform="translate(7,-94) scale(1,1)"><path fill="none" stroke="#000000" d="M 36.837325142375846 412.209517756016 L 47 408 L 36.837325142375846 403.790482243984" stroke-miterlimit="10"/></g><g transform="translate(7,-94) scale(1,1)"><g><path fill="none" stroke="none"/><text fill="#000000" stroke="none" font-family="Arial" font-size="13px" font-style="normal" font-weight="normal" text-decoration="none" x="2.5" y="489.5"> [oui]</text></g></g><g transform="translate(7,-94) scale(1,1)"><path fill="none" stroke="#000000" d="M 373 597 L 471 582" stroke-miterlimit="10"/></g><g transform="translate(7,-94) scale(1,1)"><path fill="none" stroke="#000000" d="M 461.59121431022936 587.6986622854814 L 471 582 L 460.31742109027635 579.3765465817881" stroke-miterlimit="10"/></g></g></svg>