<svg version="1.1" xmlns="http://www.w3.org/2000/svg" xmlns:xlink="http://www.w3.org/1999/xlink" width="494.404296875" height="307"><defs/><g><text fill="#eeeeee" stroke="none" font-family="Arial" font-size="24px" font-style="normal" font-weight="normal" text-decoration="none" x="0" y="0">UNREGISTERED</text><text fill="#eeeeee" stroke="none" font-family="Arial" font-size="24px" font-style="normal" font-weight="normal" text-decoration="none" x="0" y="30">UNREGISTERED</text><text fill="#eeeeee" stroke="none" font-family="Arial" font-size="24px" font-style="normal" font-weight="normal" text-decoration="none" x="0" y="60">UNREGISTERED</text><text fill="#eeeeee" stroke="none" font-family="Arial" font-size="24px" font-style="normal" font-weight="normal" text-decoration="none" x="0" y="90">UNREGISTERED</text><text fill="#eeeeee" stroke="none" font-family="Arial" font-size="24px" font-style="normal" font-weight="normal" text-decoration="none" x="0" y="120">UNREGISTERED</text><text fill="#eeeeee" stroke="none" font-family="Arial" font-size="24px" font-style="normal" font-weight="normal" text-decoration="none" x="0" y="150">UNREGISTERED</text><text fill="#eeeeee" stroke="none" font-family="Arial" font-size="24px" font-style="normal" font-weight="normal" text-decoration="none" x="0" y="180">UNREGISTERED</text><text fill="#eeeeee" stroke="none" font-family="Arial" font-size="24px" font-style="normal" font-weight="normal" text-decoration="none" x="0" y="210">UNREGISTERED</text><text fill="#eeeeee" stroke="none" font-family="Arial" font-size="24px" font-style="normal" font-weight="normal" text-decoration="none" x="0" y="240">UNREGISTERED</text><text fill="#eeeeee" stroke="none" font-family="Arial" font-size="24px" font-style="normal" font-weight="normal" text-decoration="none" x="0" y="270">UNREGISTERED</text><text fill="#eeeeee" stroke="none" font-family="Arial" font-size="24px" font-style="normal" font-weight="normal" text-decoration="none" x="0" y="300">UNREGISTERED</text><text fill="#eeeeee" stroke="none" font-family="Arial" font-size="24px" font-style="normal" font-weight="normal" text-decoration="none" x="200" y="0">UNREGISTERED</text><text fill="#eeeeee" stroke="none" font-family="Arial" font-size="24px" font-style="normal" font-weight="normal" text-decoration="none" x="200" y="30">UNREGISTERED</text><text fill="#eeeeee" stroke="none" font-family="Arial" font-size="24px" font-style="normal" font-weight="normal" text-decoration="none" x="200" y="60">UNREGISTERED</text><text fill="#eeeeee" stroke="none" font-family="Arial" font-size="24px" font-style="normal" font-weight="normal" text-decoration="none" x="200" y="90">UNREGISTERED</text><text fill="#eeeeee" stroke="none" font-family="Arial" font-size="24px" font-style="normal" font-weight="normal" text-decoration="none" x="200" y="120">UNREGISTERED</text><text fill="#eeeeee" stroke="none" font-family="Arial" font-size="24px" font-style="normal" font-weight="normal" text-decoration="none" x="200" y="150">UNREGISTERED</text><text fill="#eeeeee" stroke="none" font-family="Arial" font-size="24px" font-style="normal" font-weight="normal" text-decoration="none" x="200" y="180">UNREGISTERED</text><text fill="#eeeeee" stroke="none" font-family="Arial" font-size="24px" font-style="normal" font-weight="normal" text-decoration="none" x="200" y="210">UNREGISTERED</text><text fill="#eeeeee" stroke="none" font-family="Arial" font-size="24px" font-style="normal" font-weight="normal" text-decoration="none" x="200" y="240">UNREGISTERED</text><text fill="#eeeeee" stroke="none" font-family="Arial" font-size="24px" font-style="normal" font-weight="normal" text-decoration="none" x="200" y="270">UNREGISTERED</text><text fill="#eeeeee" stroke="none" font-family="Arial" font-size="24px" font-style="normal" font-weight="normal" text-decoration="none" x="200" y="300">UNREGISTERED</text><text fill="#eeeeee" stroke="none" font-family="Arial" font-size="24px" font-style="normal" font-weight="normal" text-decoration="none" x="400" y="0">UNREGISTERED</text><text fill="#eeeeee" stroke="none" font-family="Arial" font-size="24px" font-style="normal" font-weight="normal" text-decoration="none" x="400" y="30">UNREGISTERED</text><text fill="#eeeeee" stroke="none" font-family="Arial" font-size="24px" font-style="normal" font-weight="normal" text-decoration="none" x="400" y="60">UNREGISTERED</text><text fill="#eeeeee" stroke="none" font-family="Arial" font-size="24px" font-style="normal" font-weight="normal" text-decoration="none" x="400" y="90">UNREGISTERED</text><text fill="#eeeeee" stroke="none" font-family="Arial" font-size="24px" font-style="normal" font-weight="normal" text-decoration="none" x="400" y="120">UNREGISTERED</text><text fill="#eeeeee" stroke="none" font-family="Arial" font-size="24px" font-style="normal" font-weight="normal" text-decoration="none" x="400" y="150">UNREGISTERED</text><text fill="#eeeeee" stroke="none" font-family="Arial" font-size="24px" font-style="normal" font-weight="normal" text-decoration="none" x="400" y="180">UNREGISTERED</text><text fill="#eeeeee" stroke="none" font-family="Arial" font-size="24px" font-style="normal" font-weight="normal" text-decoration="none" x="400" y="210">UNREGISTERED</text><text fill="#eeeeee" stroke="none" font-family="Arial" font-size="24px" font-style="normal" font-weight="normal" text-decoration="none" x="400" y="240">UNREGISTERED</text><text fill="#eeeeee" stroke="none" font-family="Arial" font-size="24px" font-style="normal" font-weight="normal" text-decoration="none" x="400" y="270">UNREGISTERED</text><text fill="#eeeeee" stroke="none" font-family="Arial" font-size="24px" font-style="normal" font-weight="normal" text-decoration="none" x="400" y="300">UNREGISTERED</text><g transform="translate(-37,-70) scale(1,1)"><rect fill="#C0C0C0" stroke="none" x="407" y="231" width="121.404296875" height="72" opacity="0.2"/></g><g transform="translate(-37,-70) scale(1,1)"><rect fill="#ffffff" stroke="none" x="400" y="224" width="121.404296875" height="72"/></g><g transform="translate(-37,-70) scale(1,1)"><path fill="none" stroke="#000000" d="M 400 224 L 521.404296875 224 L 521.404296875 296 L 400 296 L 400 224 Z Z" stroke-miterlimit="10"/></g><g transform="translate(-37,-70) scale(1,1)"><path fill="none" stroke="#000000" d="M 400 249 L 521.404296875 249" stroke-miterlimit="10"/></g><g transform="translate(-37,-70) scale(1,1)"><path fill="none" stroke="#000000" d="M 400 287 L 521.404296875 287" stroke-miterlimit="10"/></g><g transform="translate(-37,-70) scale(1,1)"><g><path fill="none" stroke="none"/><text fill="#000000" stroke="none" font-family="Arial" font-size="13px" font-style="normal" font-weight="bold" text-decoration="none" x="438.291748046875" y="243.5">Abonné</text></g></g><g transform="translate(-37,-70) scale(1,1)"><g><path fill="none" stroke="none"/><text fill="#000000" stroke="none" font-family="Arial" font-size="13px" font-style="normal" font-weight="normal" text-decoration="none" x="405" y="266.5">+numero</text></g></g><g transform="translate(-37,-70) scale(1,1)"><g><path fill="none" stroke="none"/><text fill="#000000" stroke="none" font-family="Arial" font-size="13px" font-style="normal" font-weight="normal" text-decoration="none" x="405" y="281.5">+date_abonnement</text></g></g><g transform="translate(-37,-70) scale(1,1)"><rect fill="#C0C0C0" stroke="none" x="207" y="87" width="102.58984375" height="117" opacity="0.2"/></g><g transform="translate(-37,-70) scale(1,1)"><rect fill="#ffffff" stroke="none" x="200" y="80" width="102.58984375" height="117"/></g><g transform="translate(-37,-70) scale(1,1)"><path fill="none" stroke="#000000" d="M 200 80 L 302.58984375 80 L 302.58984375 197 L 200 197 L 200 80 Z Z" stroke-miterlimit="10"/></g><g transform="translate(-37,-70) scale(1,1)"><path fill="none" stroke="#000000" d="M 200 105 L 302.58984375 105" stroke-miterlimit="10"/></g><g transform="translate(-37,-70) scale(1,1)"><path fill="none" stroke="#000000" d="M 200 188 L 302.58984375 188" stroke-miterlimit="10"/></g><g transform="translate(-37,-70) scale(1,1)"><g><path fill="none" stroke="none"/><text fill="#000000" stroke="none" font-family="Arial" font-size="13px" font-style="normal" font-weight="bold" text-decoration="none" x="223.469970703125" y="99.5">Personne</text></g></g><g transform="translate(-37,-70) scale(1,1)"><g><path fill="none" stroke="none"/><text fill="#000000" stroke="none" font-family="Arial" font-size="13px" font-style="normal" font-weight="normal" text-decoration="none" x="205" y="122.5">+nom</text></g></g><g transform="translate(-37,-70) scale(1,1)"><g><path fill="none" stroke="none"/><text fill="#000000" stroke="none" font-family="Arial" font-size="13px" font-style="normal" font-weight="normal" text-decoration="none" x="205" y="137.5">+prenom</text></g></g><g transform="translate(-37,-70) scale(1,1)"><g><path fill="none" stroke="none"/><text fill="#000000" stroke="none" font-family="Arial" font-size="13px" font-style="normal" font-weight="normal" text-decoration="none" x="205" y="152.5">+dateNaissance</text></g></g><g transform="translate(-37,-70) scale(1,1)"><g><path fill="none" stroke="none"/><text fill="#000000" stroke="none" font-family="Arial" font-size="13px" font-style="normal" font-weight="normal" text-decoration="none" x="205" y="167.5">+email</text></g></g><g transform="translate(-37,-70) scale(1,1)"><g><path fill="none" stroke="none"/><text fill="#000000" stroke="none" font-family="Arial" font-size="13px" font-style="normal" font-weight="normal" text-decoration="none" x="205" y="182.5">+telephone</text></g></g><g transform="translate(-37,-70) scale(1,1)"><path fill="none" stroke="#000000" d="M 399 224 L 304 169" stroke-miterlimit="10"/></g><g transform="translate(-37,-70) scale(1,1)"><path fill="#FFFFFF" stroke="none" d="M 325.8083340596789 171.8976827882724 L 304 169 L 317.37184975066555 186.46979204929545"/></g><g transform="translate(-37,-70) scale(1,1)"><path fill="none" stroke="#000000" d="M 325.8083340596789 171.8976827882724 L 304 169 L 317.37184975066555 186.46979204929545 L 325.8083340596789 171.8976827882724" stroke-miterlimit="10"/></g><g transform="translate(-37,-70) scale(1,1)"><rect fill="#C0C0C0" stroke="none" x="103" y="287" width="60.30810546875" height="87" opacity="0.2"/></g><g transform="translate(-37,-70) scale(1,1)"><rect fill="#ffffff" stroke="none" x="96" y="280" width="60.30810546875" height="87"/></g><g transform="translate(-37,-70) scale(1,1)"><path fill="none" stroke="#000000" d="M 96 280 L 156.30810546875 280 L 156.30810546875 367 L 96 367 L 96 280 Z Z" stroke-miterlimit="10"/></g><g transform="translate(-37,-70) scale(1,1)"><path fill="none" stroke="#000000" d="M 96 305 L 156.30810546875 305" stroke-miterlimit="10"/></g><g transform="translate(-37,-70) scale(1,1)"><path fill="none" stroke="#000000" d="M 96 358 L 156.30810546875 358" stroke-miterlimit="10"/></g><g transform="translate(-37,-70) scale(1,1)"><g><path fill="none" stroke="none"/><text fill="#000000" stroke="none" font-family="Arial" font-size="13px" font-style="normal" font-weight="bold" text-decoration="none" x="102.30908203125" y="299.5">Adresse</text></g></g><g transform="translate(-37,-70) scale(1,1)"><g><path fill="none" stroke="none"/><text fill="#000000" stroke="none" font-family="Arial" font-size="13px" font-style="normal" font-weight="normal" text-decoration="none" x="101" y="322.5">+rue</text></g></g><g transform="translate(-37,-70) scale(1,1)"><g><path fill="none" stroke="none"/><text fill="#000000" stroke="none" font-family="Arial" font-size="13px" font-style="normal" font-weight="normal" text-decoration="none" x="101" y="337.5">+cp</text></g></g><g transform="translate(-37,-70) scale(1,1)"><g><path fill="none" stroke="none"/><text fill="#000000" stroke="none" font-family="Arial" font-size="13px" font-style="normal" font-weight="normal" text-decoration="none" x="101" y="352.5">+ville</text></g></g><g transform="translate(-37,-70) scale(1,1)"><path fill="none" stroke="#000000" d="M 210 198 L 156 279" stroke-miterlimit="10"/></g><g transform="translate(-37,-70) scale(1,1)"><path fill="none" stroke="#000000" d="M 158.13470724978384 268.20912306817837 L 156 279 L 165.1397682256108 272.87916371872967" stroke-miterlimit="10"/></g><g transform="translate(-37,-70) scale(1,1)"><path fill="#000000" stroke="none" d="M 207.86529275021616 208.79087693182163 L 210 198 L 200.8602317743892 204.12083628127033 L 197.79659568304496 216.30510647543255"/></g><g transform="translate(-37,-70) scale(1,1)"><path fill="none" stroke="#000000" d="M 207.86529275021616 208.79087693182163 L 210 198 L 200.8602317743892 204.12083628127033 L 197.79659568304496 216.30510647543255 L 207.86529275021616 208.79087693182163" stroke-miterlimit="10"/></g><g transform="translate(-37,-70) scale(1,1)"><g><path fill="none" stroke="none"/><text fill="#000000" stroke="none" font-family="Arial" font-size="13px" font-style="normal" font-weight="normal" text-decoration="none" x="46.5" y="268.5">+adresse principale</text></g></g></g></svg>