<svg version="1.1" xmlns="http://www.w3.org/2000/svg" xmlns:xlink="http://www.w3.org/1999/xlink" width="716" height="516"><defs/><g><text fill="#eeeeee" stroke="none" font-family="Arial" font-size="24px" font-style="normal" font-weight="normal" text-decoration="none" x="0" y="0">UNREGISTERED</text><text fill="#eeeeee" stroke="none" font-family="Arial" font-size="24px" font-style="normal" font-weight="normal" text-decoration="none" x="0" y="30">UNREGISTERED</text><text fill="#eeeeee" stroke="none" font-family="Arial" font-size="24px" font-style="normal" font-weight="normal" text-decoration="none" x="0" y="60">UNREGISTERED</text><text fill="#eeeeee" stroke="none" font-family="Arial" font-size="24px" font-style="normal" font-weight="normal" text-decoration="none" x="0" y="90">UNREGISTERED</text><text fill="#eeeeee" stroke="none" font-family="Arial" font-size="24px" font-style="normal" font-weight="normal" text-decoration="none" x="0" y="120">UNREGISTERED</text><text fill="#eeeeee" stroke="none" font-family="Arial" font-size="24px" font-style="normal" font-weight="normal" text-decoration="none" x="0" y="150">UNREGISTERED</text><text fill="#eeeeee" stroke="none" font-family="Arial" font-size="24px" font-style="normal" font-weight="normal" text-decoration="none" x="0" y="180">UNREGISTERED</text><text fill="#eeeeee" stroke="none" font-family="Arial" font-size="24px" font-style="normal" font-weight="normal" text-decoration="none" x="0" y="210">UNREGISTERED</text><text fill="#eeeeee" stroke="none" font-family="Arial" font-size="24px" font-style="normal" font-weight="normal" text-decoration="none" x="0" y="240">UNREGISTERED</text><text fill="#eeeeee" stroke="none" font-family="Arial" font-size="24px" font-style="normal" font-weight="normal" text-decoration="none" x="0" y="270">UNREGISTERED</text><text fill="#eeeeee" stroke="none" font-family="Arial" font-size="24px" font-style="normal" font-weight="normal" text-decoration="none" x="0" y="300">UNREGISTERED</text><text fill="#eeeeee" stroke="none" font-family="Arial" font-size="24px" font-style="normal" font-weight="normal" text-decoration="none" x="0" y="330">UNREGISTERED</text><text fill="#eeeeee" stroke="none" font-family="Arial" font-size="24px" font-style="normal" font-weight="normal" text-decoration="none" x="0" y="360">UNREGISTERED</text><text fill="#eeeeee" stroke="none" font-family="Arial" font-size="24px" font-style="normal" font-weight="normal" text-decoration="none" x="0" y="390">UNREGISTERED</text><text fill="#eeeeee" stroke="none" font-family="Arial" font-size="24px" font-style="normal" font-weight="normal" text-decoration="none" x="0" y="420">UNREGISTERED</text><text fill="#eeeeee" stroke="none" font-family="Arial" font-size="24px" font-style="normal" font-weight="normal" text-decoration="none" x="0" y="450">UNREGISTERED</text><text fill="#eeeeee" stroke="none" font-family="Arial" font-size="24px" font-style="normal" font-weight="normal" text-decoration="none" x="0" y="480">UNREGISTERED</text><text fill="#eeeeee" stroke="none" font-family="Arial" font-size="24px" font-style="normal" font-weight="normal" text-decoration="none" x="0" y="510">UNREGISTERED</text><text fill="#eeeeee" stroke="none" font-family="Arial" font-size="24px" font-style="normal" font-weight="normal" text-decoration="none" x="200" y="0">UNREGISTERED</text><text fill="#eeeeee" stroke="none" font-family="Arial" font-size="24px" font-style="normal" font-weight="normal" text-decoration="none" x="200" y="30">UNREGISTERED</text><text fill="#eeeeee" stroke="none" font-family="Arial" font-size="24px" font-style="normal" font-weight="normal" text-decoration="none" x="200" y="60">UNREGISTERED</text><text fill="#eeeeee" stroke="none" font-family="Arial" font-size="24px" font-style="normal" font-weight="normal" text-decoration="none" x="200" y="90">UNREGISTERED</text><text fill="#eeeeee" stroke="none" font-family="Arial" font-size="24px" font-style="normal" font-weight="normal" text-decoration="none" x="200" y="120">UNREGISTERED</text><text fill="#eeeeee" stroke="none" font-family="Arial" font-size="24px" font-style="normal" font-weight="normal" text-decoration="none" x="200" y="150">UNREGISTERED</text><text fill="#eeeeee" stroke="none" font-family="Arial" font-size="24px" font-style="normal" font-weight="normal" text-decoration="none" x="200" y="180">UNREGISTERED</text><text fill="#eeeeee" stroke="none" font-family="Arial" font-size="24px" font-style="normal" font-weight="normal" text-decoration="none" x="200" y="210">UNREGISTERED</text><text fill="#eeeeee" stroke="none" font-family="Arial" font-size="24px" font-style="normal" font-weight="normal" text-decoration="none" x="200" y="240">UNREGISTERED</text><text fill="#eeeeee" stroke="none" font-family="Arial" font-size="24px" font-style="normal" font-weight="normal" text-decoration="none" x="200" y="270">UNREGISTERED</text><text fill="#eeeeee" stroke="none" font-family="Arial" font-size="24px" font-style="normal" font-weight="normal" text-decoration="none" x="200" y="300">UNREGISTERED</text><text fill="#eeeeee" stroke="none" font-family="Arial" font-size="24px" font-style="normal" font-weight="normal" text-decoration="none" x="200" y="330">UNREGISTERED</text><text fill="#eeeeee" stroke="none" font-family="Arial" font-size="24px" font-style="normal" font-weight="normal" text-decoration="none" x="200" y="360">UNREGISTERED</text><text fill="#eeeeee" stroke="none" font-family="Arial" font-size="24px" font-style="normal" font-weight="normal" text-decoration="none" x="200" y="390">UNREGISTERED</text><text fill="#eeeeee" stroke="none" font-family="Arial" font-size="24px" font-style="normal" font-weight="normal" text-decoration="none" x="200" y="420">UNREGISTERED</text><text fill="#eeeeee" stroke="none" font-family="Arial" font-size="24px" font-style="normal" font-weight="normal" text-decoration="none" x="200" y="450">UNREGISTERED</text><text fill="#eeeeee" stroke="none" font-family="Arial" font-size="24px" font-style="normal" font-weight="normal" text-decoration="none" x="200" y="480">UNREGISTERED</text><text fill="#eeeeee" stroke="none" font-family="Arial" font-size="24px" font-style="normal" font-weight="normal" text-decoration="none" x="200" y="510">UNREGISTERED</text><text fill="#eeeeee" stroke="none" font-family="Arial" font-size="24px" font-style="normal" font-weight="normal" text-decoration="none" x="400" y="0">UNREGISTERED</text><text fill="#eeeeee" stroke="none" font-family="Arial" font-size="24px" font-style="normal" font-weight="normal" text-decoration="none" x="400" y="30">UNREGISTERED</text><text fill="#eeeeee" stroke="none" font-family="Arial" font-size="24px" font-style="normal" font-weight="normal" text-decoration="none" x="400" y="60">UNREGISTERED</text><text fill="#eeeeee" stroke="none" font-family="Arial" font-size="24px" font-style="normal" font-weight="normal" text-decoration="none" x="400" y="90">UNREGISTERED</text><text fill="#eeeeee" stroke="none" font-family="Arial" font-size="24px" font-style="normal" font-weight="normal" text-decoration="none" x="400" y="120">UNREGISTERED</text><text fill="#eeeeee" stroke="none" font-family="Arial" font-size="24px" font-style="normal" font-weight="normal" text-decoration="none" x="400" y="150">UNREGISTERED</text><text fill="#eeeeee" stroke="none" font-family="Arial" font-size="24px" font-style="normal" font-weight="normal" text-decoration="none" x="400" y="180">UNREGISTERED</text><text fill="#eeeeee" stroke="none" font-family="Arial" font-size="24px" font-style="normal" font-weight="normal" text-decoration="none" x="400" y="210">UNREGISTERED</text><text fill="#eeeeee" stroke="none" font-family="Arial" font-size="24px" font-style="normal" font-weight="normal" text-decoration="none" x="400" y="240">UNREGISTERED</text><text fill="#eeeeee" stroke="none" font-family="Arial" font-size="24px" font-style="normal" font-weight="normal" text-decoration="none" x="400" y="270">UNREGISTERED</text><text fill="#eeeeee" stroke="none" font-family="Arial" font-size="24px" font-style="normal" font-weight="normal" text-decoration="none" x="400" y="300">UNREGISTERED</text><text fill="#eeeeee" stroke="none" font-family="Arial" font-size="24px" font-style="normal" font-weight="normal" text-decoration="none" x="400" y="330">UNREGISTERED</text><text fill="#eeeeee" stroke="none" font-family="Arial" font-size="24px" font-style="normal" font-weight="normal" text-decoration="none" x="400" y="360">UNREGISTERED</text><text fill="#eeeeee" stroke="none" font-family="Arial" font-size="24px" font-style="normal" font-weight="normal" text-decoration="none" x="400" y="390">UNREGISTERED</text><text fill="#eeeeee" stroke="none" font-family="Arial" font-size="24px" font-style="normal" font-weight="normal" text-decoration="none" x="400" y="420">UNREGISTERED</text><text fill="#eeeeee" stroke="none" font-family="Arial" font-size="24px" font-style="normal" font-weight="normal" text-decoration="none" x="400" y="450">UNREGISTERED</text><text fill="#eeeeee" stroke="none" font-family="Arial" font-size="24px" font-style="normal" font-weight="normal" text-decoration="none" x="400" y="480">UNREGISTERED</text><text fill="#eeeeee" stroke="none" font-family="Arial" font-size="24px" font-style="normal" font-weight="normal" text-decoration="none" x="400" y="510">UNREGISTERED</text><text fill="#eeeeee" stroke="none" font-family="Arial" font-size="24px" font-style="normal" font-weight="normal" text-decoration="none" x="600" y="0">UNREGISTERED</text><text fill="#eeeeee" stroke="none" font-family="Arial" font-size="24px" font-style="normal" font-weight="normal" text-decoration="none" x="600" y="30">UNREGISTERED</text><text fill="#eeeeee" stroke="none" font-family="Arial" font-size="24px" font-style="normal" font-weight="normal" text-decoration="none" x="600" y="60">UNREGISTERED</text><text fill="#eeeeee" stroke="none" font-family="Arial" font-size="24px" font-style="normal" font-weight="normal" text-decoration="none" x="600" y="90">UNREGISTERED</text><text fill="#eeeeee" stroke="none" font-family="Arial" font-size="24px" font-style="normal" font-weight="normal" text-decoration="none" x="600" y="120">UNREGISTERED</text><text fill="#eeeeee" stroke="none" font-family="Arial" font-size="24px" font-style="normal" font-weight="normal" text-decoration="none" x="600" y="150">UNREGISTERED</text><text fill="#eeeeee" stroke="none" font-family="Arial" font-size="24px" font-style="normal" font-weight="normal" text-decoration="none" x="600" y="180">UNREGISTERED</text><text fill="#eeeeee" stroke="none" font-family="Arial" font-size="24px" font-style="normal" font-weight="normal" text-decoration="none" x="600" y="210">UNREGISTERED</text><text fill="#eeeeee" stroke="none" font-family="Arial" font-size="24px" font-style="normal" font-weight="normal" text-decoration="none" x="600" y="240">UNREGISTERED</text><text fill="#eeeeee" stroke="none" font-family="Arial" font-size="24px" font-style="normal" font-weight="normal" text-decoration="none" x="600" y="270">UNREGISTERED</text><text fill="#eeeeee" stroke="none" font-family="Arial" font-size="24px" font-style="normal" font-weight="normal" text-decoration="none" x="600" y="300">UNREGISTERED</text><text fill="#eeeeee" stroke="none" font-family="Arial" font-size="24px" font-style="normal" font-weight="normal" text-decoration="none" x="600" y="330">UNREGISTERED</text><text fill="#eeeeee" stroke="none" font-family="Arial" font-size="24px" font-style="normal" font-weight="normal" text-decoration="none" x="600" y="360">UNREGISTERED</text><text fill="#eeeeee" stroke="none" font-family="Arial" font-size="24px" font-style="normal" font-weight="normal" text-decoration="none" x="600" y="390">UNREGISTERED</text><text fill="#eeeeee" stroke="none" font-family="Arial" font-size="24px" font-style="normal" font-weight="normal" text-decoration="none" x="600" y="420">UNREGISTERED</text><text fill="#eeeeee" stroke="none" font-family="Arial" font-size="24px" font-style="normal" font-weight="normal" text-decoration="none" x="600" y="450">UNREGISTERED</text><text fill="#eeeeee" stroke="none" font-family="Arial" font-size="24px" font-style="normal" font-weight="normal" text-decoration="none" x="600" y="480">UNREGISTERED</text><text fill="#eeeeee" stroke="none" font-family="Arial" font-size="24px" font-style="normal" font-weight="normal" text-decoration="none" x="600" y="510">UNREGISTERED</text><g transform="translate(-70,-38) scale(1,1)"><rect fill="#C0C0C0" stroke="none" x="87" y="55" width="105.6" height="15" opacity="0.2"/></g><g transform="translate(-70,-38) scale(1,1)"><rect fill="#C0C0C0" stroke="none" x="87" y="69" width="264" height="170" opacity="0.2"/></g><g transform="translate(-70,-38) scale(1,1)"><rect fill="#ffffff" stroke="none" x="80" y="63" width="264" height="169"/></g><g transform="translate(-70,-38) scale(1,1)"><path fill="none" stroke="#000000" d="M 80 63 L 344 63 L 344 232 L 80 232 L 80 63 Z Z" stroke-miterlimit="10"/></g><g transform="translate(-70,-38) scale(1,1)"><rect fill="#ffffff" stroke="none" x="80" y="48" width="105.6" height="15"/></g><g transform="translate(-70,-38) scale(1,1)"><path fill="none" stroke="#000000" d="M 80 48 L 185.6 48 L 185.6 63 L 80 63 L 80 48 Z Z" stroke-miterlimit="10"/></g><g transform="translate(-70,-38) scale(1,1)"><rect fill="#ffffff" stroke="none" x="80" y="62" width="264" height="170"/></g><g transform="translate(-70,-38) scale(1,1)"><path fill="none" stroke="#000000" d="M 80 62 L 344 62 L 344 232 L 80 232 L 80 62 Z Z" stroke-miterlimit="10"/></g><g transform="translate(-70,-38) scale(1,1)"><g><path fill="none" stroke="none"/><text fill="#000000" stroke="none" font-family="Arial" font-size="13px" font-style="normal" font-weight="bold" text-decoration="none" x="196.832275390625" y="82.5">livres</text></g></g><g transform="translate(-70,-38) scale(1,1)"><rect fill="#C0C0C0" stroke="none" x="127" y="271" width="163.2" height="15" opacity="0.2"/></g><g transform="translate(-70,-38) scale(1,1)"><rect fill="#C0C0C0" stroke="none" x="127" y="285" width="408" height="266" opacity="0.2"/></g><g transform="translate(-70,-38) scale(1,1)"><rect fill="#ffffff" stroke="none" x="120" y="279" width="408" height="265"/></g><g transform="translate(-70,-38) scale(1,1)"><path fill="none" stroke="#000000" d="M 120 279 L 528 279 L 528 544 L 120 544 L 120 279 Z Z" stroke-miterlimit="10"/></g><g transform="translate(-70,-38) scale(1,1)"><rect fill="#ffffff" stroke="none" x="120" y="264" width="163.2" height="15"/></g><g transform="translate(-70,-38) scale(1,1)"><path fill="none" stroke="#000000" d="M 120 264 L 283.2 264 L 283.2 279 L 120 279 L 120 264 Z Z" stroke-miterlimit="10"/></g><g transform="translate(-70,-38) scale(1,1)"><rect fill="#ffffff" stroke="none" x="120" y="278" width="408" height="266"/></g><g transform="translate(-70,-38) scale(1,1)"><path fill="none" stroke="#000000" d="M 120 278 L 528 278 L 528 544 L 120 544 L 120 278 Z Z" stroke-miterlimit="10"/></g><g transform="translate(-70,-38) scale(1,1)"><g><path fill="none" stroke="none"/><text fill="#000000" stroke="none" font-family="Arial" font-size="13px" font-style="normal" font-weight="bold" text-decoration="none" x="293.6455078125" y="298.5">personnes</text></g></g><g transform="translate(-70,-38) scale(1,1)"><rect fill="#C0C0C0" stroke="none" x="447" y="95" width="134.39999999999998" height="15" opacity="0.2"/></g><g transform="translate(-70,-38) scale(1,1)"><rect fill="#C0C0C0" stroke="none" x="447" y="109" width="336" height="90" opacity="0.2"/></g><g transform="translate(-70,-38) scale(1,1)"><rect fill="#ffffff" stroke="none" x="440" y="103" width="336" height="89"/></g><g transform="translate(-70,-38) scale(1,1)"><path fill="none" stroke="#000000" d="M 440 103 L 776 103 L 776 192 L 440 192 L 440 103 Z Z" stroke-miterlimit="10"/></g><g transform="translate(-70,-38) scale(1,1)"><rect fill="#ffffff" stroke="none" x="440" y="88" width="134.39999999999998" height="15"/></g><g transform="translate(-70,-38) scale(1,1)"><path fill="none" stroke="#000000" d="M 440 88 L 574.4 88 L 574.4 103 L 440 103 L 440 88 Z Z" stroke-miterlimit="10"/></g><g transform="translate(-70,-38) scale(1,1)"><rect fill="#ffffff" stroke="none" x="440" y="102" width="336" height="90"/></g><g transform="translate(-70,-38) scale(1,1)"><path fill="none" stroke="#000000" d="M 440 102 L 776 102 L 776 192 L 440 192 L 440 102 Z Z" stroke-miterlimit="10"/></g><g transform="translate(-70,-38) scale(1,1)"><g><path fill="none" stroke="none"/><text fill="#000000" stroke="none" font-family="Arial" font-size="13px" font-style="normal" font-weight="bold" text-decoration="none" x="580.905029296875" y="122.5">emprunts</text></g></g><g transform="translate(-70,-38) scale(1,1)"><path fill="none" stroke="#000000" d="M 439 140 L 345 140" stroke-miterlimit="10" stroke-dasharray="3"/></g><g transform="translate(-70,-38) scale(1,1)"><path fill="none" stroke="#000000" d="M 355.16267485762415 135.790482243984 L 345 140 L 355.16267485762415 144.209517756016" stroke-miterlimit="10"/></g><g transform="translate(-70,-38) scale(1,1)"><path fill="none" stroke="#000000" d="M 551 193 L 476 263" stroke-miterlimit="10" stroke-dasharray="3"/></g><g transform="translate(-70,-38) scale(1,1)"><path fill="none" stroke="#000000" d="M 480.55724620396126 252.98843133987083 L 476 263 L 486.30170778424974 259.1432116044656" stroke-miterlimit="10"/></g><g transform="translate(-70,-38) scale(1,1)"><rect fill="#C0C0C0" stroke="none" x="135" y="175" width="96" height="24" opacity="0.2"/></g><g transform="translate(-70,-38) scale(1,1)"><rect fill="#ffffff" stroke="none" x="128" y="168" width="96" height="24"/></g><g transform="translate(-70,-38) scale(1,1)"><path fill="none" stroke="#000000" d="M 128 168 L 224 168 L 224 192 L 128 192 L 128 168 Z Z" stroke-miterlimit="10"/></g><g transform="translate(-70,-38) scale(1,1)"><g><path fill="none" stroke="none"/><text fill="#000000" stroke="none" font-family="Arial" font-size="13px" font-style="normal" font-weight="bold" text-decoration="none" x="143.4873046875" y="187.5">Exemplaire</text></g></g><g transform="translate(-70,-38) scale(1,1)"><rect fill="#C0C0C0" stroke="none" x="295" y="407" width="57.3818359375" height="24" opacity="0.2"/></g><g transform="translate(-70,-38) scale(1,1)"><rect fill="#ffffff" stroke="none" x="288" y="400" width="57.3818359375" height="24"/></g><g transform="translate(-70,-38) scale(1,1)"><path fill="none" stroke="#000000" d="M 288 400 L 345.3818359375 400 L 345.3818359375 424 L 288 424 L 288 400 Z Z" stroke-miterlimit="10"/></g><g transform="translate(-70,-38) scale(1,1)"><g><path fill="none" stroke="none"/><text fill="#000000" stroke="none" font-family="Arial" font-size="13px" font-style="normal" font-weight="bold" text-decoration="none" x="294.280517578125" y="419.5">Abonné</text></g></g><g transform="translate(-70,-38) scale(1,1)"><rect fill="#C0C0C0" stroke="none" x="167" y="331" width="68.24267578125" height="24" opacity="0.2"/></g><g transform="translate(-70,-38) scale(1,1)"><rect fill="#ffffff" stroke="none" x="160" y="324" width="68.24267578125" height="24"/></g><g transform="translate(-70,-38) scale(1,1)"><path fill="none" stroke="#000000" d="M 160 324 L 228.24267578125 324 L 228.24267578125 348 L 160 348 L 160 324 Z Z" stroke-miterlimit="10"/></g><g transform="translate(-70,-38) scale(1,1)"><g><path fill="none" stroke="none"/><text fill="#000000" stroke="none" font-family="Arial" font-size="13px" font-style="normal" font-weight="bold" text-decoration="none" x="166.29638671875" y="343.5">Personne</text></g></g><g transform="translate(-70,-38) scale(1,1)"><path fill="none" stroke="#000000" d="M 295 399 L 215 349" stroke-miterlimit="10"/></g><g transform="translate(-70,-38) scale(1,1)"><path fill="#FFFFFF" stroke="none" d="M 236.69794198406694 352.63308596871383 L 215 349 L 227.7737821896148 366.91174163983726"/></g><g transform="translate(-70,-38) scale(1,1)"><path fill="none" stroke="#000000" d="M 236.69794198406694 352.63308596871383 L 215 349 L 227.7737821896148 366.91174163983726 L 236.69794198406694 352.63308596871383" stroke-miterlimit="10"/></g><g transform="translate(-70,-38) scale(1,1)"><rect fill="#C0C0C0" stroke="none" x="103" y="87" width="53.8017578125" height="24" opacity="0.2"/></g><g transform="translate(-70,-38) scale(1,1)"><rect fill="#ffffff" stroke="none" x="96" y="80" width="53.8017578125" height="24"/></g><g transform="translate(-70,-38) scale(1,1)"><path fill="none" stroke="#000000" d="M 96 80 L 149.8017578125 80 L 149.8017578125 104 L 96 104 L 96 80 Z Z" stroke-miterlimit="10"/></g><g transform="translate(-70,-38) scale(1,1)"><g><path fill="none" stroke="none"/><text fill="#000000" stroke="none" font-family="Arial" font-size="13px" font-style="normal" font-weight="bold" text-decoration="none" x="101.58544921875" y="99.5">Oeuvre</text></g></g><g transform="translate(-70,-38) scale(1,1)"><rect fill="#C0C0C0" stroke="none" x="463" y="135" width="128" height="24" opacity="0.2"/></g><g transform="translate(-70,-38) scale(1,1)"><rect fill="#ffffff" stroke="none" x="456" y="128" width="128" height="24"/></g><g transform="translate(-70,-38) scale(1,1)"><path fill="none" stroke="#000000" d="M 456 128 L 584 128 L 584 152 L 456 152 L 456 128 Z Z" stroke-miterlimit="10"/></g><g transform="translate(-70,-38) scale(1,1)"><g><path fill="none" stroke="none"/><text fill="#000000" stroke="none" font-family="Arial" font-size="13px" font-style="normal" font-weight="bold" text-decoration="none" x="495.4345703125" y="147.5">Emprunt</text></g></g><g transform="translate(-70,-38) scale(1,1)"><rect fill="#C0C0C0" stroke="none" x="671" y="135" width="84.11181640625" height="24" opacity="0.2"/></g><g transform="translate(-70,-38) scale(1,1)"><rect fill="#ffffff" stroke="none" x="664" y="128" width="84.11181640625" height="24"/></g><g transform="translate(-70,-38) scale(1,1)"><path fill="none" stroke="#000000" d="M 664 128 L 748.11181640625 128 L 748.11181640625 152 L 664 152 L 664 128 Z Z" stroke-miterlimit="10"/></g><g transform="translate(-70,-38) scale(1,1)"><g><path fill="none" stroke="none"/><text fill="#000000" stroke="none" font-family="Arial" font-size="13px" font-style="normal" font-weight="bold" text-decoration="none" x="671.365966796875" y="147.5">Contentieux</text></g></g><g transform="translate(-70,-38) scale(1,1)"><path fill="none" stroke="#000000" d="M 455 148 L 225 174" stroke-miterlimit="10"/></g><g transform="translate(-70,-38) scale(1,1)"><path fill="none" stroke="#000000" d="M 234.62551019261863 168.67557012143132 L 225 174 L 235.57120400266905 177.04132305649267" stroke-miterlimit="10"/></g><g transform="translate(-70,-38) scale(1,1)"><g><path fill="none" stroke="none"/><text fill="#000000" stroke="none" font-family="Arial" font-size="13px" font-style="normal" font-weight="normal" text-decoration="none" x="446.5" y="162.5">*</text></g></g><g transform="translate(-70,-38) scale(1,1)"><g><path fill="none" stroke="none"/><text fill="#000000" stroke="none" font-family="Arial" font-size="13px" font-style="normal" font-weight="normal" text-decoration="none" x="221.5" y="198.5">+exemp_emprunté</text></g></g><g transform="translate(-70,-38) scale(1,1)"><path fill="none" stroke="#000000" d="M 507 153 L 416 248 L 324 399" stroke-miterlimit="10"/></g><g transform="translate(-70,-38) scale(1,1)"><path fill="none" stroke="#000000" d="M 325.6928537562892 388.1310420849183 L 324 399 L 332.8825422168147 392.5115145244437" stroke-miterlimit="10"/></g><g transform="translate(-70,-38) scale(1,1)"><g><path fill="none" stroke="none"/><text fill="#000000" stroke="none" font-family="Arial" font-size="13px" font-style="normal" font-weight="normal" text-decoration="none" x="503.5" y="172.5">*</text></g></g><g transform="translate(-70,-38) scale(1,1)"><g><path fill="none" stroke="none"/><text fill="#000000" stroke="none" font-family="Arial" font-size="13px" font-style="normal" font-weight="normal" text-decoration="none" x="341.5" y="385.5">+emprunteur</text></g></g><g transform="translate(-70,-38) scale(1,1)"><path fill="none" stroke="#000000" d="M 130 105 L 168 167" stroke-miterlimit="10"/></g><g transform="translate(-70,-38) scale(1,1)"><g><path fill="none" stroke="none"/><text fill="#000000" stroke="none" font-family="Arial" font-size="13px" font-style="normal" font-weight="normal" text-decoration="none" x="119.5" y="118.5">1</text></g></g><g transform="translate(-70,-38) scale(1,1)"><g><path fill="none" stroke="none"/><text fill="#000000" stroke="none" font-family="Arial" font-size="13px" font-style="normal" font-weight="normal" text-decoration="none" x="128.5" y="155.5">1..*</text></g></g><g transform="translate(-70,-38) scale(1,1)"><path fill="none" stroke="#000000" d="M 193 349 L 189 431" stroke-miterlimit="10"/></g><g transform="translate(-70,-38) scale(1,1)"><path fill="none" stroke="#000000" d="M 185.29063314463417 420.6442963767635 L 189 431 L 193.69966979861084 421.0544932867136" stroke-miterlimit="10"/></g><g transform="translate(-70,-38) scale(1,1)"><path fill="#000000" stroke="none" d="M 196.70936685536583 359.3557036232365 L 193 349 L 188.30033020138916 358.9455067132864 L 191.928103818305 370.9738717247477"/></g><g transform="translate(-70,-38) scale(1,1)"><path fill="none" stroke="#000000" d="M 196.70936685536583 359.3557036232365 L 193 349 L 188.30033020138916 358.9455067132864 L 191.928103818305 370.9738717247477 L 196.70936685536583 359.3557036232365" stroke-miterlimit="10"/></g><g transform="translate(-70,-38) scale(1,1)"><g><path fill="none" stroke="none"/><text fill="#000000" stroke="none" font-family="Arial" font-size="13px" font-style="normal" font-weight="normal" text-decoration="none" x="148.5" y="411.5">+adresse principale</text></g></g><g transform="translate(-70,-38) scale(1,1)"><rect fill="#C0C0C0" stroke="none" x="159" y="439" width="72.2353515625" height="24" opacity="0.2"/></g><g transform="translate(-70,-38) scale(1,1)"><rect fill="#ffffff" stroke="none" x="152" y="432" width="72.2353515625" height="24"/></g><g transform="translate(-70,-38) scale(1,1)"><path fill="none" stroke="#000000" d="M 152 432 L 224.2353515625 432 L 224.2353515625 456 L 152 456 L 152 432 Z Z" stroke-miterlimit="10"/></g><g transform="translate(-70,-38) scale(1,1)"><g><path fill="none" stroke="none"/><text fill="#000000" stroke="none" font-family="Arial" font-size="13px" font-style="normal" font-weight="bold" text-decoration="none" x="164.272705078125" y="451.5">Adresse</text></g></g><g transform="translate(-70,-38) scale(1,1)"><path fill="none" stroke="#000000" d="M 585 140 L 663 140" stroke-miterlimit="10"/></g><g transform="translate(-70,-38) scale(1,1)"><g><path fill="none" stroke="none"/><text fill="#000000" stroke="none" font-family="Arial" font-size="13px" font-style="normal" font-weight="normal" text-decoration="none" x="648.970458984375" y="156.5">*</text></g></g></g></svg>