<svg version="1.1" xmlns="http://www.w3.org/2000/svg" xmlns:xlink="http://www.w3.org/1999/xlink" width="459.63623046875" height="318"><defs/><g><text fill="#eeeeee" stroke="none" font-family="Arial" font-size="24px" font-style="normal" font-weight="normal" text-decoration="none" x="0" y="0">UNREGISTERED</text><text fill="#eeeeee" stroke="none" font-family="Arial" font-size="24px" font-style="normal" font-weight="normal" text-decoration="none" x="0" y="30">UNREGISTERED</text><text fill="#eeeeee" stroke="none" font-family="Arial" font-size="24px" font-style="normal" font-weight="normal" text-decoration="none" x="0" y="60">UNREGISTERED</text><text fill="#eeeeee" stroke="none" font-family="Arial" font-size="24px" font-style="normal" font-weight="normal" text-decoration="none" x="0" y="90">UNREGISTERED</text><text fill="#eeeeee" stroke="none" font-family="Arial" font-size="24px" font-style="normal" font-weight="normal" text-decoration="none" x="0" y="120">UNREGISTERED</text><text fill="#eeeeee" stroke="none" font-family="Arial" font-size="24px" font-style="normal" font-weight="normal" text-decoration="none" x="0" y="150">UNREGISTERED</text><text fill="#eeeeee" stroke="none" font-family="Arial" font-size="24px" font-style="normal" font-weight="normal" text-decoration="none" x="0" y="180">UNREGISTERED</text><text fill="#eeeeee" stroke="none" font-family="Arial" font-size="24px" font-style="normal" font-weight="normal" text-decoration="none" x="0" y="210">UNREGISTERED</text><text fill="#eeeeee" stroke="none" font-family="Arial" font-size="24px" font-style="normal" font-weight="normal" text-decoration="none" x="0" y="240">UNREGISTERED</text><text fill="#eeeeee" stroke="none" font-family="Arial" font-size="24px" font-style="normal" font-weight="normal" text-decoration="none" x="0" y="270">UNREGISTERED</text><text fill="#eeeeee" stroke="none" font-family="Arial" font-size="24px" font-style="normal" font-weight="normal" text-decoration="none" x="0" y="300">UNREGISTERED</text><text fill="#eeeeee" stroke="none" font-family="Arial" font-size="24px" font-style="normal" font-weight="normal" text-decoration="none" x="200" y="0">UNREGISTERED</text><text fill="#eeeeee" stroke="none" font-family="Arial" font-size="24px" font-style="normal" font-weight="normal" text-decoration="none" x="200" y="30">UNREGISTERED</text><text fill="#eeeeee" stroke="none" font-family="Arial" font-size="24px" font-style="normal" font-weight="normal" text-decoration="none" x="200" y="60">UNREGISTERED</text><text fill="#eeeeee" stroke="none" font-family="Arial" font-size="24px" font-style="normal" font-weight="normal" text-decoration="none" x="200" y="90">UNREGISTERED</text><text fill="#eeeeee" stroke="none" font-family="Arial" font-size="24px" font-style="normal" font-weight="normal" text-decoration="none" x="200" y="120">UNREGISTERED</text><text fill="#eeeeee" stroke="none" font-family="Arial" font-size="24px" font-style="normal" font-weight="normal" text-decoration="none" x="200" y="150">UNREGISTERED</text><text fill="#eeeeee" stroke="none" font-family="Arial" font-size="24px" font-style="normal" font-weight="normal" text-decoration="none" x="200" y="180">UNREGISTERED</text><text fill="#eeeeee" stroke="none" font-family="Arial" font-size="24px" font-style="normal" font-weight="normal" text-decoration="none" x="200" y="210">UNREGISTERED</text><text fill="#eeeeee" stroke="none" font-family="Arial" font-size="24px" font-style="normal" font-weight="normal" text-decoration="none" x="200" y="240">UNREGISTERED</text><text fill="#eeeeee" stroke="none" font-family="Arial" font-size="24px" font-style="normal" font-weight="normal" text-decoration="none" x="200" y="270">UNREGISTERED</text><text fill="#eeeeee" stroke="none" font-family="Arial" font-size="24px" font-style="normal" font-weight="normal" text-decoration="none" x="200" y="300">UNREGISTERED</text><text fill="#eeeeee" stroke="none" font-family="Arial" font-size="24px" font-style="normal" font-weight="normal" text-decoration="none" x="400" y="0">UNREGISTERED</text><text fill="#eeeeee" stroke="none" font-family="Arial" font-size="24px" font-style="normal" font-weight="normal" text-decoration="none" x="400" y="30">UNREGISTERED</text><text fill="#eeeeee" stroke="none" font-family="Arial" font-size="24px" font-style="normal" font-weight="normal" text-decoration="none" x="400" y="60">UNREGISTERED</text><text fill="#eeeeee" stroke="none" font-family="Arial" font-size="24px" font-style="normal" font-weight="normal" text-decoration="none" x="400" y="90">UNREGISTERED</text><text fill="#eeeeee" stroke="none" font-family="Arial" font-size="24px" font-style="normal" font-weight="normal" text-decoration="none" x="400" y="120">UNREGISTERED</text><text fill="#eeeeee" stroke="none" font-family="Arial" font-size="24px" font-style="normal" font-weight="normal" text-decoration="none" x="400" y="150">UNREGISTERED</text><text fill="#eeeeee" stroke="none" font-family="Arial" font-size="24px" font-style="normal" font-weight="normal" text-decoration="none" x="400" y="180">UNREGISTERED</text><text fill="#eeeeee" stroke="none" font-family="Arial" font-size="24px" font-style="normal" font-weight="normal" text-decoration="none" x="400" y="210">UNREGISTERED</text><text fill="#eeeeee" stroke="none" font-family="Arial" font-size="24px" font-style="normal" font-weight="normal" text-decoration="none" x="400" y="240">UNREGISTERED</text><text fill="#eeeeee" stroke="none" font-family="Arial" font-size="24px" font-style="normal" font-weight="normal" text-decoration="none" x="400" y="270">UNREGISTERED</text><text fill="#eeeeee" stroke="none" font-family="Arial" font-size="24px" font-style="normal" font-weight="normal" text-decoration="none" x="400" y="300">UNREGISTERED</text><g transform="translate(-70,-62) scale(1,1)"><rect fill="#C0C0C0" stroke="none" x="119" y="79" width="175.58154296875" height="87" opacity="0.2"/></g><g transform="translate(-70,-62) scale(1,1)"><rect fill="#ffffff" stroke="none" x="112" y="72" width="175.58154296875" height="87"/></g><g transform="translate(-70,-62) scale(1,1)"><path fill="none" stroke="#000000" d="M 112 72 L 287.58154296875 72 L 287.58154296875 159 L 112 159 L 112 72 Z Z" stroke-miterlimit="10"/></g><g transform="translate(-70,-62) scale(1,1)"><path fill="none" stroke="#000000" d="M 112 97 L 287.58154296875 97" stroke-miterlimit="10"/></g><g transform="translate(-70,-62) scale(1,1)"><path fill="none" stroke="#000000" d="M 112 150 L 287.58154296875 150" stroke-miterlimit="10"/></g><g transform="translate(-70,-62) scale(1,1)"><g><path fill="none" stroke="none"/><text fill="#000000" stroke="none" font-family="Arial" font-size="13px" font-style="normal" font-weight="bold" text-decoration="none" x="167.278076171875" y="91.5">Exemplaire</text></g></g><g transform="translate(-70,-62) scale(1,1)"><g><path fill="none" stroke="none"/><text fill="#000000" stroke="none" font-family="Arial" font-size="13px" font-style="normal" font-weight="normal" text-decoration="none" x="117" y="114.5">+numero: integer {id}</text></g></g><g transform="translate(-70,-62) scale(1,1)"><g><path fill="none" stroke="none"/><text fill="#000000" stroke="none" font-family="Arial" font-size="13px" font-style="normal" font-weight="normal" text-decoration="none" x="117" y="129.5">+etatPhysique: EtatPhysique</text></g></g><g transform="translate(-70,-62) scale(1,1)"><g><path fill="none" stroke="none"/><text fill="#000000" stroke="none" font-family="Arial" font-size="13px" font-style="normal" font-weight="normal" text-decoration="none" x="117" y="144.5">+usage: Usage</text></g></g><g transform="translate(-70,-62) scale(1,1)"><rect fill="#C0C0C0" stroke="none" x="432" y="123" width="94.63623046875" height="102" opacity="0.2"/></g><g transform="translate(-70,-62) scale(1,1)"><rect fill="#ffffff" stroke="none" x="425" y="116" width="94.63623046875" height="102"/></g><g transform="translate(-70,-62) scale(1,1)"><path fill="none" stroke="#000000" d="M 425 116 L 519.63623046875 116 L 519.63623046875 218 L 425 218 L 425 116 Z Z" stroke-miterlimit="10"/></g><g transform="translate(-70,-62) scale(1,1)"><path fill="none" stroke="#000000" d="M 425 141 L 519.63623046875 141" stroke-miterlimit="10"/></g><g transform="translate(-70,-62) scale(1,1)"><path fill="none" stroke="#000000" d="M 425 209 L 519.63623046875 209" stroke-miterlimit="10"/></g><g transform="translate(-70,-62) scale(1,1)"><g><path fill="none" stroke="none"/><text fill="#000000" stroke="none" font-family="Arial" font-size="13px" font-style="normal" font-weight="bold" text-decoration="none" x="451.002685546875" y="135.5">Oeuvre</text></g></g><g transform="translate(-70,-62) scale(1,1)"><g><path fill="none" stroke="none"/><text fill="#000000" stroke="none" font-family="Arial" font-size="13px" font-style="normal" font-weight="normal" text-decoration="none" x="430" y="158.5">+numISBN {id}</text></g></g><g transform="translate(-70,-62) scale(1,1)"><g><path fill="none" stroke="none"/><text fill="#000000" stroke="none" font-family="Arial" font-size="13px" font-style="normal" font-weight="normal" text-decoration="none" x="430" y="173.5">+titre</text></g></g><g transform="translate(-70,-62) scale(1,1)"><g><path fill="none" stroke="none"/><text fill="#000000" stroke="none" font-family="Arial" font-size="13px" font-style="normal" font-weight="normal" text-decoration="none" x="430" y="188.5">+auteur</text></g></g><g transform="translate(-70,-62) scale(1,1)"><g><path fill="none" stroke="none"/><text fill="#000000" stroke="none" font-family="Arial" font-size="13px" font-style="normal" font-weight="normal" text-decoration="none" x="430" y="203.5">+editeur</text></g></g><g transform="translate(-70,-62) scale(1,1)"><rect fill="#C0C0C0" stroke="none" x="87" y="279" width="125.34619140625" height="90" opacity="0.2"/></g><g transform="translate(-70,-62) scale(1,1)"><rect fill="#ffffff" stroke="none" x="80" y="272" width="125.34619140625" height="90"/></g><g transform="translate(-70,-62) scale(1,1)"><path fill="none" stroke="#000000" d="M 80 272 L 205.34619140625 272 L 205.34619140625 362 L 80 362 L 80 272 Z Z" stroke-miterlimit="10"/></g><g transform="translate(-70,-62) scale(1,1)"><path fill="none" stroke="#000000" d="M 80 310 L 205.34619140625 310" stroke-miterlimit="10"/></g><g transform="translate(-70,-62) scale(1,1)"><g><path fill="none" stroke="none"/><text fill="#000000" stroke="none" font-family="Arial" font-size="13px" font-style="normal" font-weight="normal" text-decoration="none" x="99.30908203125" y="289.5">«enumeration»</text></g></g><g transform="translate(-70,-62) scale(1,1)"><g><path fill="none" stroke="none"/><text fill="#000000" stroke="none" font-family="Arial" font-size="13px" font-style="normal" font-weight="bold" text-decoration="none" x="104.371337890625" y="304.5">EtatPhysique</text></g></g><g transform="translate(-70,-62) scale(1,1)"><g><path fill="none" stroke="none"/><text fill="#000000" stroke="none" font-family="Arial" font-size="13px" font-style="normal" font-weight="normal" text-decoration="none" x="85" y="327.5">BON_ETAT</text></g></g><g transform="translate(-70,-62) scale(1,1)"><g><path fill="none" stroke="none"/><text fill="#000000" stroke="none" font-family="Arial" font-size="13px" font-style="normal" font-weight="normal" text-decoration="none" x="85" y="342.5">ABIME</text></g></g><g transform="translate(-70,-62) scale(1,1)"><g><path fill="none" stroke="none"/><text fill="#000000" stroke="none" font-family="Arial" font-size="13px" font-style="normal" font-weight="normal" text-decoration="none" x="85" y="357.5">HS</text></g></g><g transform="translate(-70,-62) scale(1,1)"><rect fill="#C0C0C0" stroke="none" x="279" y="287" width="125.34619140625" height="90" opacity="0.2"/></g><g transform="translate(-70,-62) scale(1,1)"><rect fill="#ffffff" stroke="none" x="272" y="280" width="125.34619140625" height="90"/></g><g transform="translate(-70,-62) scale(1,1)"><path fill="none" stroke="#000000" d="M 272 280 L 397.34619140625 280 L 397.34619140625 370 L 272 370 L 272 280 Z Z" stroke-miterlimit="10"/></g><g transform="translate(-70,-62) scale(1,1)"><path fill="none" stroke="#000000" d="M 272 318 L 397.34619140625 318" stroke-miterlimit="10"/></g><g transform="translate(-70,-62) scale(1,1)"><g><path fill="none" stroke="none"/><text fill="#000000" stroke="none" font-family="Arial" font-size="13px" font-style="normal" font-weight="normal" text-decoration="none" x="291.30908203125" y="297.5">«enumeration»</text></g></g><g transform="translate(-70,-62) scale(1,1)"><g><path fill="none" stroke="none"/><text fill="#000000" stroke="none" font-family="Arial" font-size="13px" font-style="normal" font-weight="bold" text-decoration="none" x="315.884033203125" y="312.5">Usage</text></g></g><g transform="translate(-70,-62) scale(1,1)"><g><path fill="none" stroke="none"/><text fill="#000000" stroke="none" font-family="Arial" font-size="13px" font-style="normal" font-weight="normal" text-decoration="none" x="277" y="335.5">DISPONIBLE</text></g></g><g transform="translate(-70,-62) scale(1,1)"><g><path fill="none" stroke="none"/><text fill="#000000" stroke="none" font-family="Arial" font-size="13px" font-style="normal" font-weight="normal" text-decoration="none" x="277" y="350.5">EN_REPARATION</text></g></g><g transform="translate(-70,-62) scale(1,1)"><g><path fill="none" stroke="none"/><text fill="#000000" stroke="none" font-family="Arial" font-size="13px" font-style="normal" font-weight="normal" text-decoration="none" x="277" y="365.5">EMPRUNTE</text></g></g><g transform="translate(-70,-62) scale(1,1)"><path fill="none" stroke="#000000" d="M 424 158 L 289 132" stroke-miterlimit="10"/></g><g transform="translate(-70,-62) scale(1,1)"><g><path fill="none" stroke="none"/><text fill="#000000" stroke="none" font-family="Arial" font-size="13px" font-style="normal" font-weight="normal" text-decoration="none" x="401.5" y="147.5">1</text></g></g><g transform="translate(-70,-62) scale(1,1)"><g><path fill="none" stroke="none"/><text fill="#000000" stroke="none" font-family="Arial" font-size="13px" font-style="normal" font-weight="normal" text-decoration="none" x="302.5" y="129.5">1..*</text></g></g></g></svg>