<svg version="1.1" xmlns="http://www.w3.org/2000/svg" xmlns:xlink="http://www.w3.org/1999/xlink" width="978.17529296875" height="572"><defs/><g><text fill="#eeeeee" stroke="none" font-family="Arial" font-size="24px" font-style="normal" font-weight="normal" text-decoration="none" x="0" y="0">UNREGISTERED</text><text fill="#eeeeee" stroke="none" font-family="Arial" font-size="24px" font-style="normal" font-weight="normal" text-decoration="none" x="0" y="30">UNREGISTERED</text><text fill="#eeeeee" stroke="none" font-family="Arial" font-size="24px" font-style="normal" font-weight="normal" text-decoration="none" x="0" y="60">UNREGISTERED</text><text fill="#eeeeee" stroke="none" font-family="Arial" font-size="24px" font-style="normal" font-weight="normal" text-decoration="none" x="0" y="90">UNREGISTERED</text><text fill="#eeeeee" stroke="none" font-family="Arial" font-size="24px" font-style="normal" font-weight="normal" text-decoration="none" x="0" y="120">UNREGISTERED</text><text fill="#eeeeee" stroke="none" font-family="Arial" font-size="24px" font-style="normal" font-weight="normal" text-decoration="none" x="0" y="150">UNREGISTERED</text><text fill="#eeeeee" stroke="none" font-family="Arial" font-size="24px" font-style="normal" font-weight="normal" text-decoration="none" x="0" y="180">UNREGISTERED</text><text fill="#eeeeee" stroke="none" font-family="Arial" font-size="24px" font-style="normal" font-weight="normal" text-decoration="none" x="0" y="210">UNREGISTERED</text><text fill="#eeeeee" stroke="none" font-family="Arial" font-size="24px" font-style="normal" font-weight="normal" text-decoration="none" x="0" y="240">UNREGISTERED</text><text fill="#eeeeee" stroke="none" font-family="Arial" font-size="24px" font-style="normal" font-weight="normal" text-decoration="none" x="0" y="270">UNREGISTERED</text><text fill="#eeeeee" stroke="none" font-family="Arial" font-size="24px" font-style="normal" font-weight="normal" text-decoration="none" x="0" y="300">UNREGISTERED</text><text fill="#eeeeee" stroke="none" font-family="Arial" font-size="24px" font-style="normal" font-weight="normal" text-decoration="none" x="0" y="330">UNREGISTERED</text><text fill="#eeeeee" stroke="none" font-family="Arial" font-size="24px" font-style="normal" font-weight="normal" text-decoration="none" x="0" y="360">UNREGISTERED</text><text fill="#eeeeee" stroke="none" font-family="Arial" font-size="24px" font-style="normal" font-weight="normal" text-decoration="none" x="0" y="390">UNREGISTERED</text><text fill="#eeeeee" stroke="none" font-family="Arial" font-size="24px" font-style="normal" font-weight="normal" text-decoration="none" x="0" y="420">UNREGISTERED</text><text fill="#eeeeee" stroke="none" font-family="Arial" font-size="24px" font-style="normal" font-weight="normal" text-decoration="none" x="0" y="450">UNREGISTERED</text><text fill="#eeeeee" stroke="none" font-family="Arial" font-size="24px" font-style="normal" font-weight="normal" text-decoration="none" x="0" y="480">UNREGISTERED</text><text fill="#eeeeee" stroke="none" font-family="Arial" font-size="24px" font-style="normal" font-weight="normal" text-decoration="none" x="0" y="510">UNREGISTERED</text><text fill="#eeeeee" stroke="none" font-family="Arial" font-size="24px" font-style="normal" font-weight="normal" text-decoration="none" x="0" y="540">UNREGISTERED</text><text fill="#eeeeee" stroke="none" font-family="Arial" font-size="24px" font-style="normal" font-weight="normal" text-decoration="none" x="0" y="570">UNREGISTERED</text><text fill="#eeeeee" stroke="none" font-family="Arial" font-size="24px" font-style="normal" font-weight="normal" text-decoration="none" x="200" y="0">UNREGISTERED</text><text fill="#eeeeee" stroke="none" font-family="Arial" font-size="24px" font-style="normal" font-weight="normal" text-decoration="none" x="200" y="30">UNREGISTERED</text><text fill="#eeeeee" stroke="none" font-family="Arial" font-size="24px" font-style="normal" font-weight="normal" text-decoration="none" x="200" y="60">UNREGISTERED</text><text fill="#eeeeee" stroke="none" font-family="Arial" font-size="24px" font-style="normal" font-weight="normal" text-decoration="none" x="200" y="90">UNREGISTERED</text><text fill="#eeeeee" stroke="none" font-family="Arial" font-size="24px" font-style="normal" font-weight="normal" text-decoration="none" x="200" y="120">UNREGISTERED</text><text fill="#eeeeee" stroke="none" font-family="Arial" font-size="24px" font-style="normal" font-weight="normal" text-decoration="none" x="200" y="150">UNREGISTERED</text><text fill="#eeeeee" stroke="none" font-family="Arial" font-size="24px" font-style="normal" font-weight="normal" text-decoration="none" x="200" y="180">UNREGISTERED</text><text fill="#eeeeee" stroke="none" font-family="Arial" font-size="24px" font-style="normal" font-weight="normal" text-decoration="none" x="200" y="210">UNREGISTERED</text><text fill="#eeeeee" stroke="none" font-family="Arial" font-size="24px" font-style="normal" font-weight="normal" text-decoration="none" x="200" y="240">UNREGISTERED</text><text fill="#eeeeee" stroke="none" font-family="Arial" font-size="24px" font-style="normal" font-weight="normal" text-decoration="none" x="200" y="270">UNREGISTERED</text><text fill="#eeeeee" stroke="none" font-family="Arial" font-size="24px" font-style="normal" font-weight="normal" text-decoration="none" x="200" y="300">UNREGISTERED</text><text fill="#eeeeee" stroke="none" font-family="Arial" font-size="24px" font-style="normal" font-weight="normal" text-decoration="none" x="200" y="330">UNREGISTERED</text><text fill="#eeeeee" stroke="none" font-family="Arial" font-size="24px" font-style="normal" font-weight="normal" text-decoration="none" x="200" y="360">UNREGISTERED</text><text fill="#eeeeee" stroke="none" font-family="Arial" font-size="24px" font-style="normal" font-weight="normal" text-decoration="none" x="200" y="390">UNREGISTERED</text><text fill="#eeeeee" stroke="none" font-family="Arial" font-size="24px" font-style="normal" font-weight="normal" text-decoration="none" x="200" y="420">UNREGISTERED</text><text fill="#eeeeee" stroke="none" font-family="Arial" font-size="24px" font-style="normal" font-weight="normal" text-decoration="none" x="200" y="450">UNREGISTERED</text><text fill="#eeeeee" stroke="none" font-family="Arial" font-size="24px" font-style="normal" font-weight="normal" text-decoration="none" x="200" y="480">UNREGISTERED</text><text fill="#eeeeee" stroke="none" font-family="Arial" font-size="24px" font-style="normal" font-weight="normal" text-decoration="none" x="200" y="510">UNREGISTERED</text><text fill="#eeeeee" stroke="none" font-family="Arial" font-size="24px" font-style="normal" font-weight="normal" text-decoration="none" x="200" y="540">UNREGISTERED</text><text fill="#eeeeee" stroke="none" font-family="Arial" font-size="24px" font-style="normal" font-weight="normal" text-decoration="none" x="200" y="570">UNREGISTERED</text><text fill="#eeeeee" stroke="none" font-family="Arial" font-size="24px" font-style="normal" font-weight="normal" text-decoration="none" x="400" y="0">UNREGISTERED</text><text fill="#eeeeee" stroke="none" font-family="Arial" font-size="24px" font-style="normal" font-weight="normal" text-decoration="none" x="400" y="30">UNREGISTERED</text><text fill="#eeeeee" stroke="none" font-family="Arial" font-size="24px" font-style="normal" font-weight="normal" text-decoration="none" x="400" y="60">UNREGISTERED</text><text fill="#eeeeee" stroke="none" font-family="Arial" font-size="24px" font-style="normal" font-weight="normal" text-decoration="none" x="400" y="90">UNREGISTERED</text><text fill="#eeeeee" stroke="none" font-family="Arial" font-size="24px" font-style="normal" font-weight="normal" text-decoration="none" x="400" y="120">UNREGISTERED</text><text fill="#eeeeee" stroke="none" font-family="Arial" font-size="24px" font-style="normal" font-weight="normal" text-decoration="none" x="400" y="150">UNREGISTERED</text><text fill="#eeeeee" stroke="none" font-family="Arial" font-size="24px" font-style="normal" font-weight="normal" text-decoration="none" x="400" y="180">UNREGISTERED</text><text fill="#eeeeee" stroke="none" font-family="Arial" font-size="24px" font-style="normal" font-weight="normal" text-decoration="none" x="400" y="210">UNREGISTERED</text><text fill="#eeeeee" stroke="none" font-family="Arial" font-size="24px" font-style="normal" font-weight="normal" text-decoration="none" x="400" y="240">UNREGISTERED</text><text fill="#eeeeee" stroke="none" font-family="Arial" font-size="24px" font-style="normal" font-weight="normal" text-decoration="none" x="400" y="270">UNREGISTERED</text><text fill="#eeeeee" stroke="none" font-family="Arial" font-size="24px" font-style="normal" font-weight="normal" text-decoration="none" x="400" y="300">UNREGISTERED</text><text fill="#eeeeee" stroke="none" font-family="Arial" font-size="24px" font-style="normal" font-weight="normal" text-decoration="none" x="400" y="330">UNREGISTERED</text><text fill="#eeeeee" stroke="none" font-family="Arial" font-size="24px" font-style="normal" font-weight="normal" text-decoration="none" x="400" y="360">UNREGISTERED</text><text fill="#eeeeee" stroke="none" font-family="Arial" font-size="24px" font-style="normal" font-weight="normal" text-decoration="none" x="400" y="390">UNREGISTERED</text><text fill="#eeeeee" stroke="none" font-family="Arial" font-size="24px" font-style="normal" font-weight="normal" text-decoration="none" x="400" y="420">UNREGISTERED</text><text fill="#eeeeee" stroke="none" font-family="Arial" font-size="24px" font-style="normal" font-weight="normal" text-decoration="none" x="400" y="450">UNREGISTERED</text><text fill="#eeeeee" stroke="none" font-family="Arial" font-size="24px" font-style="normal" font-weight="normal" text-decoration="none" x="400" y="480">UNREGISTERED</text><text fill="#eeeeee" stroke="none" font-family="Arial" font-size="24px" font-style="normal" font-weight="normal" text-decoration="none" x="400" y="510">UNREGISTERED</text><text fill="#eeeeee" stroke="none" font-family="Arial" font-size="24px" font-style="normal" font-weight="normal" text-decoration="none" x="400" y="540">UNREGISTERED</text><text fill="#eeeeee" stroke="none" font-family="Arial" font-size="24px" font-style="normal" font-weight="normal" text-decoration="none" x="400" y="570">UNREGISTERED</text><text fill="#eeeeee" stroke="none" font-family="Arial" font-size="24px" font-style="normal" font-weight="normal" text-decoration="none" x="600" y="0">UNREGISTERED</text><text fill="#eeeeee" stroke="none" font-family="Arial" font-size="24px" font-style="normal" font-weight="normal" text-decoration="none" x="600" y="30">UNREGISTERED</text><text fill="#eeeeee" stroke="none" font-family="Arial" font-size="24px" font-style="normal" font-weight="normal" text-decoration="none" x="600" y="60">UNREGISTERED</text><text fill="#eeeeee" stroke="none" font-family="Arial" font-size="24px" font-style="normal" font-weight="normal" text-decoration="none" x="600" y="90">UNREGISTERED</text><text fill="#eeeeee" stroke="none" font-family="Arial" font-size="24px" font-style="normal" font-weight="normal" text-decoration="none" x="600" y="120">UNREGISTERED</text><text fill="#eeeeee" stroke="none" font-family="Arial" font-size="24px" font-style="normal" font-weight="normal" text-decoration="none" x="600" y="150">UNREGISTERED</text><text fill="#eeeeee" stroke="none" font-family="Arial" font-size="24px" font-style="normal" font-weight="normal" text-decoration="none" x="600" y="180">UNREGISTERED</text><text fill="#eeeeee" stroke="none" font-family="Arial" font-size="24px" font-style="normal" font-weight="normal" text-decoration="none" x="600" y="210">UNREGISTERED</text><text fill="#eeeeee" stroke="none" font-family="Arial" font-size="24px" font-style="normal" font-weight="normal" text-decoration="none" x="600" y="240">UNREGISTERED</text><text fill="#eeeeee" stroke="none" font-family="Arial" font-size="24px" font-style="normal" font-weight="normal" text-decoration="none" x="600" y="270">UNREGISTERED</text><text fill="#eeeeee" stroke="none" font-family="Arial" font-size="24px" font-style="normal" font-weight="normal" text-decoration="none" x="600" y="300">UNREGISTERED</text><text fill="#eeeeee" stroke="none" font-family="Arial" font-size="24px" font-style="normal" font-weight="normal" text-decoration="none" x="600" y="330">UNREGISTERED</text><text fill="#eeeeee" stroke="none" font-family="Arial" font-size="24px" font-style="normal" font-weight="normal" text-decoration="none" x="600" y="360">UNREGISTERED</text><text fill="#eeeeee" stroke="none" font-family="Arial" font-size="24px" font-style="normal" font-weight="normal" text-decoration="none" x="600" y="390">UNREGISTERED</text><text fill="#eeeeee" stroke="none" font-family="Arial" font-size="24px" font-style="normal" font-weight="normal" text-decoration="none" x="600" y="420">UNREGISTERED</text><text fill="#eeeeee" stroke="none" font-family="Arial" font-size="24px" font-style="normal" font-weight="normal" text-decoration="none" x="600" y="450">UNREGISTERED</text><text fill="#eeeeee" stroke="none" font-family="Arial" font-size="24px" font-style="normal" font-weight="normal" text-decoration="none" x="600" y="480">UNREGISTERED</text><text fill="#eeeeee" stroke="none" font-family="Arial" font-size="24px" font-style="normal" font-weight="normal" text-decoration="none" x="600" y="510">UNREGISTERED</text><text fill="#eeeeee" stroke="none" font-family="Arial" font-size="24px" font-style="normal" font-weight="normal" text-decoration="none" x="600" y="540">UNREGISTERED</text><text fill="#eeeeee" stroke="none" font-family="Arial" font-size="24px" font-style="normal" font-weight="normal" text-decoration="none" x="600" y="570">UNREGISTERED</text><text fill="#eeeeee" stroke="none" font-family="Arial" font-size="24px" font-style="normal" font-weight="normal" text-decoration="none" x="800" y="0">UNREGISTERED</text><text fill="#eeeeee" stroke="none" font-family="Arial" font-size="24px" font-style="normal" font-weight="normal" text-decoration="none" x="800" y="30">UNREGISTERED</text><text fill="#eeeeee" stroke="none" font-family="Arial" font-size="24px" font-style="normal" font-weight="normal" text-decoration="none" x="800" y="60">UNREGISTERED</text><text fill="#eeeeee" stroke="none" font-family="Arial" font-size="24px" font-style="normal" font-weight="normal" text-decoration="none" x="800" y="90">UNREGISTERED</text><text fill="#eeeeee" stroke="none" font-family="Arial" font-size="24px" font-style="normal" font-weight="normal" text-decoration="none" x="800" y="120">UNREGISTERED</text><text fill="#eeeeee" stroke="none" font-family="Arial" font-size="24px" font-style="normal" font-weight="normal" text-decoration="none" x="800" y="150">UNREGISTERED</text><text fill="#eeeeee" stroke="none" font-family="Arial" font-size="24px" font-style="normal" font-weight="normal" text-decoration="none" x="800" y="180">UNREGISTERED</text><text fill="#eeeeee" stroke="none" font-family="Arial" font-size="24px" font-style="normal" font-weight="normal" text-decoration="none" x="800" y="210">UNREGISTERED</text><text fill="#eeeeee" stroke="none" font-family="Arial" font-size="24px" font-style="normal" font-weight="normal" text-decoration="none" x="800" y="240">UNREGISTERED</text><text fill="#eeeeee" stroke="none" font-family="Arial" font-size="24px" font-style="normal" font-weight="normal" text-decoration="none" x="800" y="270">UNREGISTERED</text><text fill="#eeeeee" stroke="none" font-family="Arial" font-size="24px" font-style="normal" font-weight="normal" text-decoration="none" x="800" y="300">UNREGISTERED</text><text fill="#eeeeee" stroke="none" font-family="Arial" font-size="24px" font-style="normal" font-weight="normal" text-decoration="none" x="800" y="330">UNREGISTERED</text><text fill="#eeeeee" stroke="none" font-family="Arial" font-size="24px" font-style="normal" font-weight="normal" text-decoration="none" x="800" y="360">UNREGISTERED</text><text fill="#eeeeee" stroke="none" font-family="Arial" font-size="24px" font-style="normal" font-weight="normal" text-decoration="none" x="800" y="390">UNREGISTERED</text><text fill="#eeeeee" stroke="none" font-family="Arial" font-size="24px" font-style="normal" font-weight="normal" text-decoration="none" x="800" y="420">UNREGISTERED</text><text fill="#eeeeee" stroke="none" font-family="Arial" font-size="24px" font-style="normal" font-weight="normal" text-decoration="none" x="800" y="450">UNREGISTERED</text><text fill="#eeeeee" stroke="none" font-family="Arial" font-size="24px" font-style="normal" font-weight="normal" text-decoration="none" x="800" y="480">UNREGISTERED</text><text fill="#eeeeee" stroke="none" font-family="Arial" font-size="24px" font-style="normal" font-weight="normal" text-decoration="none" x="800" y="510">UNREGISTERED</text><text fill="#eeeeee" stroke="none" font-family="Arial" font-size="24px" font-style="normal" font-weight="normal" text-decoration="none" x="800" y="540">UNREGISTERED</text><text fill="#eeeeee" stroke="none" font-family="Arial" font-size="24px" font-style="normal" font-weight="normal" text-decoration="none" x="800" y="570">UNREGISTERED</text><g transform="translate(10,-22) scale(1,1)"><rect fill="#C0C0C0" stroke="none" x="119" y="39" width="680" height="552" opacity="0.2"/></g><g transform="translate(10,-22) scale(1,1)"><rect fill="#ffffff" stroke="none" x="112" y="32" width="680" height="552"/></g><g transform="translate(10,-22) scale(1,1)"><path fill="none" stroke="#000000" d="M 112 32 L 792 32 L 792 584 L 112 584 L 112 32 Z Z" stroke-miterlimit="10"/></g><g transform="translate(10,-22) scale(1,1)"><g><path fill="none" stroke="none"/><text fill="#000000" stroke="none" font-family="Arial" font-size="13px" font-style="normal" font-weight="bold" text-decoration="none" x="395.2646484375" y="51.5">logiciel bibliotheque</text></g></g><g transform="translate(10,-22) scale(1,1)"><path fill="#ffffff" stroke="none" d="M 92.72478000710227 465.68 C 92.72478000710227 460.886167936 96.61062233204773 457 101.404052734375 457 C 106.19748313670227 457 110.08332546164773 460.886167936 110.08332546164773 465.68 C 110.08332546164773 470.473832064 106.19748313670227 474.36 101.404052734375 474.36 C 96.61062233204773 474.36 92.72478000710227 470.473832064 92.72478000710227 465.68 Z"/></g><g transform="translate(10,-22) scale(1,1)"><path fill="none" stroke="#000000" d="M 92.72478000710227 465.68 C 92.72478000710227 460.886167936 96.61062233204773 457 101.404052734375 457 C 106.19748313670227 457 110.08332546164773 460.886167936 110.08332546164773 465.68 C 110.08332546164773 470.473832064 106.19748313670227 474.36 101.404052734375 474.36 C 96.61062233204773 474.36 92.72478000710227 470.473832064 92.72478000710227 465.68 Z" stroke-miterlimit="10"/></g><g transform="translate(10,-22) scale(1,1)"><path fill="none" stroke="#000000" d="M 101.404052734375 474.36 L 101.404052734375 491.64" stroke-miterlimit="10"/></g><g transform="translate(10,-22) scale(1,1)"><path fill="none" stroke="#000000" d="M 92.21423455255682 480.84 L 110.59387091619318 480.84" stroke-miterlimit="10"/></g><g transform="translate(10,-22) scale(1,1)"><path fill="none" stroke="#000000" d="M 101.404052734375 491.64 L 88.64041637073863 509" stroke-miterlimit="10"/></g><g transform="translate(10,-22) scale(1,1)"><path fill="none" stroke="#000000" d="M 101.404052734375 491.64 L 114.16768909801137 509" stroke-miterlimit="10"/></g><g transform="translate(10,-22) scale(1,1)"><g><path fill="none" stroke="none"/><text fill="#000000" stroke="none" font-family="Arial" font-size="13px" font-style="normal" font-weight="bold" text-decoration="none" x="25.5146484375" y="529.5">Responsable abonnement</text></g></g><g transform="translate(10,-22) scale(1,1)"><path fill="#ffffff" stroke="none" d="M 894.4083737571023 97.68 C 894.4083737571023 92.886167936 898.2942160820477 89 903.087646484375 89 C 907.8810768867023 89 911.7669192116477 92.886167936 911.7669192116477 97.68 C 911.7669192116477 102.473832064 907.8810768867023 106.36 903.087646484375 106.36 C 898.2942160820477 106.36 894.4083737571023 102.473832064 894.4083737571023 97.68 Z"/></g><g transform="translate(10,-22) scale(1,1)"><path fill="none" stroke="#000000" d="M 894.4083737571023 97.68 C 894.4083737571023 92.886167936 898.2942160820477 89 903.087646484375 89 C 907.8810768867023 89 911.7669192116477 92.886167936 911.7669192116477 97.68 C 911.7669192116477 102.473832064 907.8810768867023 106.36 903.087646484375 106.36 C 898.2942160820477 106.36 894.4083737571023 102.473832064 894.4083737571023 97.68 Z" stroke-miterlimit="10"/></g><g transform="translate(10,-22) scale(1,1)"><path fill="none" stroke="#000000" d="M 903.087646484375 106.36 L 903.087646484375 123.64" stroke-miterlimit="10"/></g><g transform="translate(10,-22) scale(1,1)"><path fill="none" stroke="#000000" d="M 893.8978283025568 112.84 L 912.2774646661932 112.84" stroke-miterlimit="10"/></g><g transform="translate(10,-22) scale(1,1)"><path fill="none" stroke="#000000" d="M 903.087646484375 123.64 L 890.3240101207386 141" stroke-miterlimit="10"/></g><g transform="translate(10,-22) scale(1,1)"><path fill="none" stroke="#000000" d="M 903.087646484375 123.64 L 915.8512828480114 141" stroke-miterlimit="10"/></g><g transform="translate(10,-22) scale(1,1)"><g><path fill="none" stroke="none"/><text fill="#000000" stroke="none" font-family="Arial" font-size="13px" font-style="normal" font-weight="normal" text-decoration="none" x="852.5" y="159.5">«logiciel externe»</text></g></g><g transform="translate(10,-22) scale(1,1)"><g><path fill="none" stroke="none"/><text fill="#000000" stroke="none" font-family="Arial" font-size="13px" font-style="normal" font-weight="bold" text-decoration="none" x="858.285888671875" y="174.5">logiciel_compta</text></g></g><g transform="translate(10,-22) scale(1,1)"><path fill="#ffffff" stroke="none" d="M 38.80388156960227 105.68 C 38.80388156960227 100.886167936 42.689723894547726 97 47.483154296875 97 C 52.276584699202274 97 56.16242702414773 100.886167936 56.16242702414773 105.68 C 56.16242702414773 110.473832064 52.276584699202274 114.36 47.483154296875 114.36 C 42.689723894547726 114.36 38.80388156960227 110.473832064 38.80388156960227 105.68 Z"/></g><g transform="translate(10,-22) scale(1,1)"><path fill="none" stroke="#000000" d="M 38.80388156960227 105.68 C 38.80388156960227 100.886167936 42.689723894547726 97 47.483154296875 97 C 52.276584699202274 97 56.16242702414773 100.886167936 56.16242702414773 105.68 C 56.16242702414773 110.473832064 52.276584699202274 114.36 47.483154296875 114.36 C 42.689723894547726 114.36 38.80388156960227 110.473832064 38.80388156960227 105.68 Z" stroke-miterlimit="10"/></g><g transform="translate(10,-22) scale(1,1)"><path fill="none" stroke="#000000" d="M 47.483154296875 114.36 L 47.483154296875 131.64" stroke-miterlimit="10"/></g><g transform="translate(10,-22) scale(1,1)"><path fill="none" stroke="#000000" d="M 38.29333611505682 120.84 L 56.67297247869318 120.84" stroke-miterlimit="10"/></g><g transform="translate(10,-22) scale(1,1)"><path fill="none" stroke="#000000" d="M 47.483154296875 131.64 L 34.719517933238635 149" stroke-miterlimit="10"/></g><g transform="translate(10,-22) scale(1,1)"><path fill="none" stroke="#000000" d="M 47.483154296875 131.64 L 60.246790660511365 149" stroke-miterlimit="10"/></g><g transform="translate(10,-22) scale(1,1)"><g><path fill="none" stroke="none"/><text fill="#000000" stroke="none" font-family="Arial" font-size="13px" font-style="normal" font-weight="bold" text-decoration="none" x="8.4609375" y="169.5">Bibliothecaire</text></g></g><g transform="translate(10,-22) scale(1,1)"><path fill="#C0C0C0" stroke="none" d="M 247 496 C 247 486.6111584 282.36950079999997 479 326 479 C 369.63049920000003 479 405 486.6111584 405 496 C 405 505.3888416 369.63049920000003 513 326 513 C 282.36950079999997 513 247 505.3888416 247 496 Z" opacity="0.2"/></g><g transform="translate(10,-22) scale(1,1)"><path fill="#a3e0ff" stroke="none" d="M 240 489 C 240 479.6111584 275.36950079999997 472 319 472 C 362.63049920000003 472 398 479.6111584 398 489 C 398 498.3888416 362.63049920000003 506 319 506 C 275.36950079999997 506 240 498.3888416 240 489 Z"/></g><g transform="translate(10,-22) scale(1,1)"><path fill="none" stroke="#000000" d="M 240 489 C 240 479.6111584 275.36950079999997 472 319 472 C 362.63049920000003 472 398 479.6111584 398 489 C 398 498.3888416 362.63049920000003 506 319 506 C 275.36950079999997 506 240 498.3888416 240 489 Z" stroke-miterlimit="10"/></g><g transform="translate(10,-22) scale(1,1)"><g><path fill="none" stroke="none"/><text fill="#000000" stroke="none" font-family="Arial" font-size="13px" font-style="normal" font-weight="bold" text-decoration="none" x="274.556884765625" y="496">inscrire abonné</text></g></g><g transform="translate(10,-22) scale(1,1)"><path fill="none" stroke="#000000" d="M 188 493 L 239 491" stroke-miterlimit="10"/></g><g transform="translate(10,-22) scale(1,1)"><path fill="none" stroke="#000000" d="M 229.01008291614946 495.60451481241955 L 239 491 L 228.68017823858216 487.19194553445374" stroke-miterlimit="10"/></g><g transform="translate(10,-22) scale(1,1)"><path fill="#C0C0C0" stroke="none" d="M 287 200 C 287 190.6111584 317.6684912 183 355.5 183 C 393.3315088 183 424 190.6111584 424 200 C 424 209.3888416 393.3315088 217 355.5 217 C 317.6684912 217 287 209.3888416 287 200 Z" opacity="0.2"/></g><g transform="translate(10,-22) scale(1,1)"><path fill="#ffffff" stroke="none" d="M 280 193 C 280 183.6111584 310.6684912 176 348.5 176 C 386.3315088 176 417 183.6111584 417 193 C 417 202.3888416 386.3315088 210 348.5 210 C 310.6684912 210 280 202.3888416 280 193 Z"/></g><g transform="translate(10,-22) scale(1,1)"><path fill="none" stroke="#000000" d="M 280 193 C 280 183.6111584 310.6684912 176 348.5 176 C 386.3315088 176 417 183.6111584 417 193 C 417 202.3888416 386.3315088 210 348.5 210 C 310.6684912 210 280 202.3888416 280 193 Z" stroke-miterlimit="10"/></g><g transform="translate(10,-22) scale(1,1)"><g><path fill="none" stroke="none"/><text fill="#000000" stroke="none" font-family="Arial" font-size="13px" font-style="normal" font-weight="bold" text-decoration="none" x="307.675048828125" y="200">gérer emprunt</text></g></g><g transform="translate(10,-22) scale(1,1)"><path fill="#C0C0C0" stroke="none" d="M 215 96 C 215 86.6111584 266.93496319999997 79 331 79 C 395.06503680000003 79 447 86.6111584 447 96 C 447 105.3888416 395.06503680000003 113 331 113 C 266.93496319999997 113 215 105.3888416 215 96 Z" opacity="0.2"/></g><g transform="translate(10,-22) scale(1,1)"><path fill="#ffffff" stroke="none" d="M 208 89 C 208 79.6111584 259.93496319999997 72 324 72 C 388.06503680000003 72 440 79.6111584 440 89 C 440 98.3888416 388.06503680000003 106 324 106 C 259.93496319999997 106 208 98.3888416 208 89 Z"/></g><g transform="translate(10,-22) scale(1,1)"><path fill="none" stroke="#000000" d="M 208 89 C 208 79.6111584 259.93496319999997 72 324 72 C 388.06503680000003 72 440 79.6111584 440 89 C 440 98.3888416 388.06503680000003 106 324 106 C 259.93496319999997 106 208 98.3888416 208 89 Z" stroke-miterlimit="10"/></g><g transform="translate(10,-22) scale(1,1)"><g><path fill="none" stroke="none"/><text fill="#000000" stroke="none" font-family="Arial" font-size="13px" font-style="normal" font-weight="bold" text-decoration="none" x="252.4619140625" y="96">enregistrer nouveau livre</text></g></g><g transform="translate(10,-22) scale(1,1)"><path fill="#C0C0C0" stroke="none" d="M 143 264 C 143 254.6111584 197.1735392 247 264 247 C 330.8264608 247 385 254.6111584 385 264 C 385 273.3888416 330.8264608 281 264 281 C 197.1735392 281 143 273.3888416 143 264 Z" opacity="0.2"/></g><g transform="translate(10,-22) scale(1,1)"><path fill="#a3e0ff" stroke="none" d="M 136 257 C 136 247.6111584 190.1735392 240 257 240 C 323.8264608 240 378 247.6111584 378 257 C 378 266.3888416 323.8264608 274 257 274 C 190.1735392 274 136 266.3888416 136 257 Z"/></g><g transform="translate(10,-22) scale(1,1)"><path fill="none" stroke="#000000" d="M 136 257 C 136 247.6111584 190.1735392 240 257 240 C 323.8264608 240 378 247.6111584 378 257 C 378 266.3888416 323.8264608 274 257 274 C 190.1735392 274 136 266.3888416 136 257 Z" stroke-miterlimit="10"/></g><g transform="translate(10,-22) scale(1,1)"><g><path fill="none" stroke="none"/><text fill="#000000" stroke="none" font-family="Arial" font-size="13px" font-style="normal" font-weight="bold" text-decoration="none" x="182.208740234375" y="264">enregistrer début emprunt</text></g></g><g transform="translate(10,-22) scale(1,1)"><path fill="#C0C0C0" stroke="none" d="M 431 256 C 431 246.6111584 479.129384 239 538.5 239 C 597.870616 239 646 246.6111584 646 256 C 646 265.3888416 597.870616 273 538.5 273 C 479.129384 273 431 265.3888416 431 256 Z" opacity="0.2"/></g><g transform="translate(10,-22) scale(1,1)"><path fill="#ffffff" stroke="none" d="M 424 249 C 424 239.6111584 472.129384 232 531.5 232 C 590.870616 232 639 239.6111584 639 249 C 639 258.3888416 590.870616 266 531.5 266 C 472.129384 266 424 258.3888416 424 249 Z"/></g><g transform="translate(10,-22) scale(1,1)"><path fill="none" stroke="#000000" d="M 424 249 C 424 239.6111584 472.129384 232 531.5 232 C 590.870616 232 639 239.6111584 639 249 C 639 258.3888416 590.870616 266 531.5 266 C 472.129384 266 424 258.3888416 424 249 Z" stroke-miterlimit="10"/></g><g transform="translate(10,-22) scale(1,1)"><g><path fill="none" stroke="none"/><text fill="#000000" stroke="none" font-family="Arial" font-size="13px" font-style="normal" font-weight="bold" text-decoration="none" x="466.109619140625" y="256">enregistrer fin emprunt</text></g></g><g transform="translate(10,-22) scale(1,1)"><path fill="none" stroke="#000000" d="M 283 239 L 322 211" stroke-miterlimit="10"/></g><g transform="translate(10,-22) scale(1,1)"><path fill="#FFFFFF" stroke="none" d="M 310.3992746504591 229.69286418301164 L 322 211 L 300.5791974150503 216.01489946226363"/></g><g transform="translate(10,-22) scale(1,1)"><path fill="none" stroke="#000000" d="M 310.3992746504591 229.69286418301164 L 322 211 L 300.5791974150503 216.01489946226363 L 310.3992746504591 229.69286418301164" stroke-miterlimit="10"/></g><g transform="translate(10,-22) scale(1,1)"><path fill="none" stroke="#000000" d="M 472 231 L 407 211" stroke-miterlimit="10"/></g><g transform="translate(10,-22) scale(1,1)"><path fill="#FFFFFF" stroke="none" d="M 428.9024618077162 208.93066030784348 L 407 211 L 423.9506233978178 225.02413514001313"/></g><g transform="translate(10,-22) scale(1,1)"><path fill="none" stroke="#000000" d="M 428.9024618077162 208.93066030784348 L 407 211 L 423.9506233978178 225.02413514001313 L 428.9024618077162 208.93066030784348" stroke-miterlimit="10"/></g><g transform="translate(10,-22) scale(1,1)"><path fill="none" stroke="#000000" d="M 96 144 L 279 180" stroke-miterlimit="10"/></g><g transform="translate(10,-22) scale(1,1)"><path fill="none" stroke="#000000" d="M 268.2159108183735 182.1687370801289 L 279 180 L 269.8409687147815 173.90802610672128" stroke-miterlimit="10"/></g><g transform="translate(10,-22) scale(1,1)"><path fill="#C0C0C0" stroke="none" d="M 167 360 C 167 350.6111584 211.3238048 343 266 343 C 320.6761952 343 365 350.6111584 365 360 C 365 369.3888416 320.6761952 377 266 377 C 211.3238048 377 167 369.3888416 167 360 Z" opacity="0.2"/></g><g transform="translate(10,-22) scale(1,1)"><path fill="#a3e0ff" stroke="none" d="M 160 353 C 160 343.6111584 204.3238048 336 259 336 C 313.6761952 336 358 343.6111584 358 353 C 358 362.3888416 313.6761952 370 259 370 C 204.3238048 370 160 362.3888416 160 353 Z"/></g><g transform="translate(10,-22) scale(1,1)"><path fill="none" stroke="#000000" d="M 160 353 C 160 343.6111584 204.3238048 336 259 336 C 313.6761952 336 358 343.6111584 358 353 C 358 362.3888416 313.6761952 370 259 370 C 204.3238048 370 160 362.3888416 160 353 Z" stroke-miterlimit="10"/></g><g transform="translate(10,-22) scale(1,1)"><g><path fill="none" stroke="none"/><text fill="#000000" stroke="none" font-family="Arial" font-size="13px" font-style="normal" font-weight="bold" text-decoration="none" x="199.385986328125" y="360">identifier emprunteur</text></g></g><g transform="translate(10,-22) scale(1,1)"><path fill="none" stroke="#000000" d="M 257 275 L 259 335" stroke-miterlimit="10" stroke-dasharray="3"/></g><g transform="translate(10,-22) scale(1,1)"><path fill="none" stroke="#000000" d="M 254.45425113032024 324.9832057416654 L 259 335 L 262.86861329449727 324.7027270028595" stroke-miterlimit="10"/></g><g transform="translate(10,-22) scale(1,1)"><g><path fill="none" stroke="none"/><text fill="#000000" stroke="none" font-family="Arial" font-size="13px" font-style="normal" font-weight="normal" text-decoration="none" x="187.5" y="303.5">«include»</text></g></g><g transform="translate(10,-22) scale(1,1)"><path fill="#C0C0C0" stroke="none" d="M 415 368 C 415 358.6111584 454.8466528 351 504 351 C 553.1533472 351 593 358.6111584 593 368 C 593 377.3888416 553.1533472 385 504 385 C 454.8466528 385 415 377.3888416 415 368 Z" opacity="0.2"/></g><g transform="translate(10,-22) scale(1,1)"><path fill="#ffffff" stroke="none" d="M 408 361 C 408 351.6111584 447.8466528 344 497 344 C 546.1533472 344 586 351.6111584 586 361 C 586 370.3888416 546.1533472 378 497 378 C 447.8466528 378 408 370.3888416 408 361 Z"/></g><g transform="translate(10,-22) scale(1,1)"><path fill="none" stroke="#000000" d="M 408 361 C 408 351.6111584 447.8466528 344 497 344 C 546.1533472 344 586 351.6111584 586 361 C 586 370.3888416 546.1533472 378 497 378 C 447.8466528 378 408 370.3888416 408 361 Z" stroke-miterlimit="10"/></g><g transform="translate(10,-22) scale(1,1)"><g><path fill="none" stroke="none"/><text fill="#000000" stroke="none" font-family="Arial" font-size="13px" font-style="normal" font-weight="bold" text-decoration="none" x="443.16552734375" y="368">lancer restauration</text></g></g><g transform="translate(10,-22) scale(1,1)"><path fill="none" stroke="#000000" d="M 502 343 L 526 267" stroke-miterlimit="10" stroke-dasharray="3"/></g><g transform="translate(10,-22) scale(1,1)"><path fill="none" stroke="#000000" d="M 526.9538229789349 277.9585684158496 L 526 267 L 518.9255766575125 275.4233327354004" stroke-miterlimit="10"/></g><g transform="translate(10,-22) scale(1,1)"><g><path fill="none" stroke="none"/><text fill="#000000" stroke="none" font-family="Arial" font-size="13px" font-style="normal" font-weight="normal" text-decoration="none" x="458.5" y="301.5">«extend»</text></g></g><g transform="translate(10,-22) scale(1,1)"><path fill="none" stroke="#000000" d="M 96 127 L 216 107" stroke-miterlimit="10"/></g><g transform="translate(10,-22) scale(1,1)"><path fill="none" stroke="#000000" d="M 206.6676397266908 112.82297619170473 L 216 107 L 205.28355881442488 104.51849071810933" stroke-miterlimit="10"/></g><g transform="translate(10,-22) scale(1,1)"><path fill="#C0C0C0" stroke="none" d="M 535 152 C 535 142.6111584 577.9806592 135 631 135 C 684.0193408 135 727 142.6111584 727 152 C 727 161.3888416 684.0193408 169 631 169 C 577.9806592 169 535 161.3888416 535 152 Z" opacity="0.2"/></g><g transform="translate(10,-22) scale(1,1)"><path fill="#ffffff" stroke="none" d="M 528 145 C 528 135.6111584 570.9806592 128 624 128 C 677.0193408 128 720 135.6111584 720 145 C 720 154.3888416 677.0193408 162 624 162 C 570.9806592 162 528 154.3888416 528 145 Z"/></g><g transform="translate(10,-22) scale(1,1)"><path fill="none" stroke="#000000" d="M 528 145 C 528 135.6111584 570.9806592 128 624 128 C 677.0193408 128 720 135.6111584 720 145 C 720 154.3888416 677.0193408 162 624 162 C 570.9806592 162 528 154.3888416 528 145 Z" stroke-miterlimit="10"/></g><g transform="translate(10,-22) scale(1,1)"><g><path fill="none" stroke="none"/><text fill="#000000" stroke="none" font-family="Arial" font-size="13px" font-style="normal" font-weight="bold" text-decoration="none" x="565.82373046875" y="152">notifier nouvel achat</text></g></g><g transform="translate(10,-22) scale(1,1)"><path fill="none" stroke="#000000" d="M 420 107 L 528 127" stroke-miterlimit="10" stroke-dasharray="3"/></g><g transform="translate(10,-22) scale(1,1)"><path fill="none" stroke="#000000" d="M 517.2407167160729 129.28862911285498 L 528 127 L 518.7737326639074 121.0103429945488" stroke-miterlimit="10"/></g><g transform="translate(10,-22) scale(1,1)"><g><path fill="none" stroke="none"/><text fill="#000000" stroke="none" font-family="Arial" font-size="13px" font-style="normal" font-weight="normal" text-decoration="none" x="486.5" y="113.5">«include»</text></g></g><g transform="translate(10,-22) scale(1,1)"><path fill="none" stroke="#000000" d="M 721 141 L 847 136" stroke-miterlimit="10"/></g><g transform="translate(10,-22) scale(1,1)"><path fill="none" stroke="#000000" d="M 837.0122302946153 140.60917089205847 L 847 136 L 836.6784043189707 132.1967563058151" stroke-miterlimit="10"/></g><g transform="translate(10,-22) scale(1,1)"><path fill="#ffffff" stroke="none" d="M 552 296 L 613 296 L 623 306 L 623 327 L 552 327 L 552 296"/></g><g transform="translate(10,-22) scale(1,1)"><path fill="none" stroke="#000000" d="M 552 296 L 613 296 L 623 306 L 623 327 L 552 327 L 552 296 L 552 296" stroke-miterlimit="10"/></g><g transform="translate(10,-22) scale(1,1)"><path fill="none" stroke="#000000" d="M 613 296 L 613 306 L 623 306 L 613 296" stroke-miterlimit="10"/></g><g transform="translate(10,-22) scale(1,1)"><g><path fill="none" stroke="none"/><text fill="#000000" stroke="none" font-family="Arial" font-size="13px" font-style="normal" font-weight="normal" text-decoration="none" x="557" y="314">si abîmé</text></g></g><g transform="translate(10,-22) scale(1,1)"><path fill="none" stroke="#000000" d="M 551 309 L 514 305" stroke-miterlimit="10" stroke-dasharray="3"/></g><g transform="translate(10,-22) scale(1,1)"><path fill="#C0C0C0" stroke="none" d="M 263 560 C 263 550.6111584 300.3842192 543 346.5 543 C 392.6157808 543 430 550.6111584 430 560 C 430 569.3888416 392.6157808 577 346.5 577 C 300.3842192 577 263 569.3888416 263 560 Z" opacity="0.2"/></g><g transform="translate(10,-22) scale(1,1)"><path fill="#ffffff" stroke="none" d="M 256 553 C 256 543.6111584 293.3842192 536 339.5 536 C 385.6157808 536 423 543.6111584 423 553 C 423 562.3888416 385.6157808 570 339.5 570 C 293.3842192 570 256 562.3888416 256 553 Z"/></g><g transform="translate(10,-22) scale(1,1)"><path fill="none" stroke="#000000" d="M 256 553 C 256 543.6111584 293.3842192 536 339.5 536 C 385.6157808 536 423 543.6111584 423 553 C 423 562.3888416 385.6157808 570 339.5 570 C 293.3842192 570 256 562.3888416 256 553 Z" stroke-miterlimit="10"/></g><g transform="translate(10,-22) scale(1,1)"><g><path fill="none" stroke="none"/><text fill="#000000" stroke="none" font-family="Arial" font-size="13px" font-style="normal" font-weight="bold" text-decoration="none" x="289.274169921875" y="560">gérer contentieux</text></g></g><g transform="translate(10,-22) scale(1,1)"><path fill="none" stroke="#000000" d="M 188 516 L 265 535" stroke-miterlimit="10"/></g><g transform="translate(10,-22) scale(1,1)"><path fill="none" stroke="#000000" d="M 254.12480117343745 536.6522864408851 L 265 535 L 256.1417302161732 528.4784161097981" stroke-miterlimit="10"/></g><g transform="translate(10,-22) scale(1,1)"><path fill="#C0C0C0" stroke="none" d="M 223 152 C 223 142.6111584 268.4430928 135 324.5 135 C 380.5569072 135 426 142.6111584 426 152 C 426 161.3888416 380.5569072 169 324.5 169 C 268.4430928 169 223 161.3888416 223 152 Z" opacity="0.2"/></g><g transform="translate(10,-22) scale(1,1)"><path fill="#ffffff" stroke="none" d="M 216 145 C 216 135.6111584 261.4430928 128 317.5 128 C 373.5569072 128 419 135.6111584 419 145 C 419 154.3888416 373.5569072 162 317.5 162 C 261.4430928 162 216 154.3888416 216 145 Z"/></g><g transform="translate(10,-22) scale(1,1)"><path fill="none" stroke="#000000" d="M 216 145 C 216 135.6111584 261.4430928 128 317.5 128 C 373.5569072 128 419 135.6111584 419 145 C 419 154.3888416 373.5569072 162 317.5 162 C 261.4430928 162 216 154.3888416 216 145 Z" stroke-miterlimit="10"/></g><g transform="translate(10,-22) scale(1,1)"><g><path fill="none" stroke="none"/><text fill="#000000" stroke="none" font-family="Arial" font-size="13px" font-style="normal" font-weight="bold" text-decoration="none" x="255.36279296875" y="152">réintégrer livre réparé</text></g></g><g transform="translate(10,-22) scale(1,1)"><path fill="none" stroke="#000000" d="M 96 137 L 215 141" stroke-miterlimit="10"/></g><g transform="translate(10,-22) scale(1,1)"><path fill="none" stroke="#000000" d="M 204.70164497360315 144.86573198117597 L 215 141 L 204.984478027629 136.45144862390745" stroke-miterlimit="10"/></g><g transform="translate(10,-22) scale(1,1)"><path fill="#C0C0C0" stroke="none" d="M 223 432 C 223 422.6111584 277.1735392 415 344 415 C 410.8264608 415 465 422.6111584 465 432 C 465 441.3888416 410.8264608 449 344 449 C 277.1735392 449 223 441.3888416 223 432 Z" opacity="0.2"/></g><g transform="translate(10,-22) scale(1,1)"><path fill="#a3e0ff" stroke="none" d="M 216 425 C 216 415.6111584 270.1735392 408 337 408 C 403.8264608 408 458 415.6111584 458 425 C 458 434.3888416 403.8264608 442 337 442 C 270.1735392 442 216 434.3888416 216 425 Z"/></g><g transform="translate(10,-22) scale(1,1)"><path fill="none" stroke="#000000" d="M 216 425 C 216 415.6111584 270.1735392 408 337 408 C 403.8264608 408 458 415.6111584 458 425 C 458 434.3888416 403.8264608 442 337 442 C 270.1735392 442 216 434.3888416 216 425 Z" stroke-miterlimit="10"/></g><g transform="translate(10,-22) scale(1,1)"><g><path fill="none" stroke="none"/><text fill="#000000" stroke="none" font-family="Arial" font-size="13px" font-style="normal" font-weight="bold" text-decoration="none" x="262.945068359375" y="432">vérifier droits à emprunter</text></g></g><g transform="translate(10,-22) scale(1,1)"><path fill="none" stroke="#000000" d="M 296 275 L 392 320 L 376 360 L 348 407" stroke-miterlimit="10" stroke-dasharray="3"/></g><g transform="translate(10,-22) scale(1,1)"><path fill="none" stroke="#000000" d="M 349.58490638163096 396.1147773673909 L 348 407 L 356.81771278824027 400.4236833117539" stroke-miterlimit="10"/></g><g transform="translate(10,-22) scale(1,1)"><g><path fill="none" stroke="none"/><text fill="#000000" stroke="none" font-family="Arial" font-size="13px" font-style="normal" font-weight="normal" text-decoration="none" x="375.5" y="308.5">«include»</text></g></g><g transform="translate(10,-22) scale(1,1)"><path fill="#C0C0C0" stroke="none" d="M 575 400 C 575 390.6111584 623.5770992 383 683.5 383 C 743.4229008 383 792 390.6111584 792 400 C 792 409.3888416 743.4229008 417 683.5 417 C 623.5770992 417 575 409.3888416 575 400 Z" opacity="0.2"/></g><g transform="translate(10,-22) scale(1,1)"><path fill="#ffffff" stroke="none" d="M 568 393 C 568 383.6111584 616.5770992 376 676.5 376 C 736.4229008 376 785 383.6111584 785 393 C 785 402.3888416 736.4229008 410 676.5 410 C 616.5770992 410 568 402.3888416 568 393 Z"/></g><g transform="translate(10,-22) scale(1,1)"><path fill="none" stroke="#000000" d="M 568 393 C 568 383.6111584 616.5770992 376 676.5 376 C 736.4229008 376 785 383.6111584 785 393 C 785 402.3888416 736.4229008 410 676.5 410 C 616.5770992 410 568 402.3888416 568 393 Z" stroke-miterlimit="10"/></g><g transform="translate(10,-22) scale(1,1)"><g><path fill="none" stroke="none"/><text fill="#000000" stroke="none" font-family="Arial" font-size="13px" font-style="normal" font-weight="bold" text-decoration="none" x="610.379638671875" y="400">enregistrer contentieux</text></g></g><g transform="translate(10,-22) scale(1,1)"><path fill="none" stroke="#000000" d="M 682 375 L 712 288 L 615 267" stroke-miterlimit="10" stroke-dasharray="3"/></g><g transform="translate(10,-22) scale(1,1)"><path fill="none" stroke="#000000" d="M 625.8232746094936 265.03614493215747 L 615 267 L 624.0418661067562 273.2645556352781" stroke-miterlimit="10"/></g><g transform="translate(10,-22) scale(1,1)"><g><path fill="none" stroke="none"/><text fill="#000000" stroke="none" font-family="Arial" font-size="13px" font-style="normal" font-weight="normal" text-decoration="none" x="735.5" y="280.5">«extend»</text></g></g><g transform="translate(10,-22) scale(1,1)"><path fill="none" stroke="#000000" d="M 624 295 L 663 277" stroke-miterlimit="10" stroke-dasharray="3"/></g><g transform="translate(10,-22) scale(1,1)"><path fill="#C0C0C0" stroke="none" d="M 487 520 C 487 510.6111584 528.8613712 503 580.5 503 C 632.1386288 503 674 510.6111584 674 520 C 674 529.3888416 632.1386288 537 580.5 537 C 528.8613712 537 487 529.3888416 487 520 Z" opacity="0.2"/></g><g transform="translate(10,-22) scale(1,1)"><path fill="#ffffff" stroke="none" d="M 480 513 C 480 503.6111584 521.8613712 496 573.5 496 C 625.1386288 496 667 503.6111584 667 513 C 667 522.3888416 625.1386288 530 573.5 530 C 521.8613712 530 480 522.3888416 480 513 Z"/></g><g transform="translate(10,-22) scale(1,1)"><path fill="none" stroke="#000000" d="M 480 513 C 480 503.6111584 521.8613712 496 573.5 496 C 625.1386288 496 667 503.6111584 667 513 C 667 522.3888416 625.1386288 530 573.5 530 C 521.8613712 530 480 522.3888416 480 513 Z" stroke-miterlimit="10"/></g><g transform="translate(10,-22) scale(1,1)"><g><path fill="none" stroke="none"/><text fill="#000000" stroke="none" font-family="Arial" font-size="13px" font-style="normal" font-weight="bold" text-decoration="none" x="516.056884765625" y="520">détecter  les retards</text></g></g><g transform="translate(10,-22) scale(1,1)"><path fill="none" stroke="#000000" d="M 424 538 L 479 529" stroke-miterlimit="10" stroke-dasharray="3"/></g><g transform="translate(10,-22) scale(1,1)"><path fill="none" stroke="#000000" d="M 469.65050348361166 534.7954218905996 L 479 529 L 468.2909254939018 526.4868897312617" stroke-miterlimit="10"/></g><g transform="translate(10,-22) scale(1,1)"><g><path fill="none" stroke="none"/><text fill="#000000" stroke="none" font-family="Arial" font-size="13px" font-style="normal" font-weight="normal" text-decoration="none" x="447.5" y="547.5">«include»</text></g></g></g></svg>