<svg version="1.1" xmlns="http://www.w3.org/2000/svg" xmlns:xlink="http://www.w3.org/1999/xlink" width="475.306640625" height="536"><defs/><g><text fill="#eeeeee" stroke="none" font-family="Arial" font-size="24px" font-style="normal" font-weight="normal" text-decoration="none" x="0" y="0">UNREGISTERED</text><text fill="#eeeeee" stroke="none" font-family="Arial" font-size="24px" font-style="normal" font-weight="normal" text-decoration="none" x="0" y="30">UNREGISTERED</text><text fill="#eeeeee" stroke="none" font-family="Arial" font-size="24px" font-style="normal" font-weight="normal" text-decoration="none" x="0" y="60">UNREGISTERED</text><text fill="#eeeeee" stroke="none" font-family="Arial" font-size="24px" font-style="normal" font-weight="normal" text-decoration="none" x="0" y="90">UNREGISTERED</text><text fill="#eeeeee" stroke="none" font-family="Arial" font-size="24px" font-style="normal" font-weight="normal" text-decoration="none" x="0" y="120">UNREGISTERED</text><text fill="#eeeeee" stroke="none" font-family="Arial" font-size="24px" font-style="normal" font-weight="normal" text-decoration="none" x="0" y="150">UNREGISTERED</text><text fill="#eeeeee" stroke="none" font-family="Arial" font-size="24px" font-style="normal" font-weight="normal" text-decoration="none" x="0" y="180">UNREGISTERED</text><text fill="#eeeeee" stroke="none" font-family="Arial" font-size="24px" font-style="normal" font-weight="normal" text-decoration="none" x="0" y="210">UNREGISTERED</text><text fill="#eeeeee" stroke="none" font-family="Arial" font-size="24px" font-style="normal" font-weight="normal" text-decoration="none" x="0" y="240">UNREGISTERED</text><text fill="#eeeeee" stroke="none" font-family="Arial" font-size="24px" font-style="normal" font-weight="normal" text-decoration="none" x="0" y="270">UNREGISTERED</text><text fill="#eeeeee" stroke="none" font-family="Arial" font-size="24px" font-style="normal" font-weight="normal" text-decoration="none" x="0" y="300">UNREGISTERED</text><text fill="#eeeeee" stroke="none" font-family="Arial" font-size="24px" font-style="normal" font-weight="normal" text-decoration="none" x="0" y="330">UNREGISTERED</text><text fill="#eeeeee" stroke="none" font-family="Arial" font-size="24px" font-style="normal" font-weight="normal" text-decoration="none" x="0" y="360">UNREGISTERED</text><text fill="#eeeeee" stroke="none" font-family="Arial" font-size="24px" font-style="normal" font-weight="normal" text-decoration="none" x="0" y="390">UNREGISTERED</text><text fill="#eeeeee" stroke="none" font-family="Arial" font-size="24px" font-style="normal" font-weight="normal" text-decoration="none" x="0" y="420">UNREGISTERED</text><text fill="#eeeeee" stroke="none" font-family="Arial" font-size="24px" font-style="normal" font-weight="normal" text-decoration="none" x="0" y="450">UNREGISTERED</text><text fill="#eeeeee" stroke="none" font-family="Arial" font-size="24px" font-style="normal" font-weight="normal" text-decoration="none" x="0" y="480">UNREGISTERED</text><text fill="#eeeeee" stroke="none" font-family="Arial" font-size="24px" font-style="normal" font-weight="normal" text-decoration="none" x="0" y="510">UNREGISTERED</text><text fill="#eeeeee" stroke="none" font-family="Arial" font-size="24px" font-style="normal" font-weight="normal" text-decoration="none" x="200" y="0">UNREGISTERED</text><text fill="#eeeeee" stroke="none" font-family="Arial" font-size="24px" font-style="normal" font-weight="normal" text-decoration="none" x="200" y="30">UNREGISTERED</text><text fill="#eeeeee" stroke="none" font-family="Arial" font-size="24px" font-style="normal" font-weight="normal" text-decoration="none" x="200" y="60">UNREGISTERED</text><text fill="#eeeeee" stroke="none" font-family="Arial" font-size="24px" font-style="normal" font-weight="normal" text-decoration="none" x="200" y="90">UNREGISTERED</text><text fill="#eeeeee" stroke="none" font-family="Arial" font-size="24px" font-style="normal" font-weight="normal" text-decoration="none" x="200" y="120">UNREGISTERED</text><text fill="#eeeeee" stroke="none" font-family="Arial" font-size="24px" font-style="normal" font-weight="normal" text-decoration="none" x="200" y="150">UNREGISTERED</text><text fill="#eeeeee" stroke="none" font-family="Arial" font-size="24px" font-style="normal" font-weight="normal" text-decoration="none" x="200" y="180">UNREGISTERED</text><text fill="#eeeeee" stroke="none" font-family="Arial" font-size="24px" font-style="normal" font-weight="normal" text-decoration="none" x="200" y="210">UNREGISTERED</text><text fill="#eeeeee" stroke="none" font-family="Arial" font-size="24px" font-style="normal" font-weight="normal" text-decoration="none" x="200" y="240">UNREGISTERED</text><text fill="#eeeeee" stroke="none" font-family="Arial" font-size="24px" font-style="normal" font-weight="normal" text-decoration="none" x="200" y="270">UNREGISTERED</text><text fill="#eeeeee" stroke="none" font-family="Arial" font-size="24px" font-style="normal" font-weight="normal" text-decoration="none" x="200" y="300">UNREGISTERED</text><text fill="#eeeeee" stroke="none" font-family="Arial" font-size="24px" font-style="normal" font-weight="normal" text-decoration="none" x="200" y="330">UNREGISTERED</text><text fill="#eeeeee" stroke="none" font-family="Arial" font-size="24px" font-style="normal" font-weight="normal" text-decoration="none" x="200" y="360">UNREGISTERED</text><text fill="#eeeeee" stroke="none" font-family="Arial" font-size="24px" font-style="normal" font-weight="normal" text-decoration="none" x="200" y="390">UNREGISTERED</text><text fill="#eeeeee" stroke="none" font-family="Arial" font-size="24px" font-style="normal" font-weight="normal" text-decoration="none" x="200" y="420">UNREGISTERED</text><text fill="#eeeeee" stroke="none" font-family="Arial" font-size="24px" font-style="normal" font-weight="normal" text-decoration="none" x="200" y="450">UNREGISTERED</text><text fill="#eeeeee" stroke="none" font-family="Arial" font-size="24px" font-style="normal" font-weight="normal" text-decoration="none" x="200" y="480">UNREGISTERED</text><text fill="#eeeeee" stroke="none" font-family="Arial" font-size="24px" font-style="normal" font-weight="normal" text-decoration="none" x="200" y="510">UNREGISTERED</text><text fill="#eeeeee" stroke="none" font-family="Arial" font-size="24px" font-style="normal" font-weight="normal" text-decoration="none" x="400" y="0">UNREGISTERED</text><text fill="#eeeeee" stroke="none" font-family="Arial" font-size="24px" font-style="normal" font-weight="normal" text-decoration="none" x="400" y="30">UNREGISTERED</text><text fill="#eeeeee" stroke="none" font-family="Arial" font-size="24px" font-style="normal" font-weight="normal" text-decoration="none" x="400" y="60">UNREGISTERED</text><text fill="#eeeeee" stroke="none" font-family="Arial" font-size="24px" font-style="normal" font-weight="normal" text-decoration="none" x="400" y="90">UNREGISTERED</text><text fill="#eeeeee" stroke="none" font-family="Arial" font-size="24px" font-style="normal" font-weight="normal" text-decoration="none" x="400" y="120">UNREGISTERED</text><text fill="#eeeeee" stroke="none" font-family="Arial" font-size="24px" font-style="normal" font-weight="normal" text-decoration="none" x="400" y="150">UNREGISTERED</text><text fill="#eeeeee" stroke="none" font-family="Arial" font-size="24px" font-style="normal" font-weight="normal" text-decoration="none" x="400" y="180">UNREGISTERED</text><text fill="#eeeeee" stroke="none" font-family="Arial" font-size="24px" font-style="normal" font-weight="normal" text-decoration="none" x="400" y="210">UNREGISTERED</text><text fill="#eeeeee" stroke="none" font-family="Arial" font-size="24px" font-style="normal" font-weight="normal" text-decoration="none" x="400" y="240">UNREGISTERED</text><text fill="#eeeeee" stroke="none" font-family="Arial" font-size="24px" font-style="normal" font-weight="normal" text-decoration="none" x="400" y="270">UNREGISTERED</text><text fill="#eeeeee" stroke="none" font-family="Arial" font-size="24px" font-style="normal" font-weight="normal" text-decoration="none" x="400" y="300">UNREGISTERED</text><text fill="#eeeeee" stroke="none" font-family="Arial" font-size="24px" font-style="normal" font-weight="normal" text-decoration="none" x="400" y="330">UNREGISTERED</text><text fill="#eeeeee" stroke="none" font-family="Arial" font-size="24px" font-style="normal" font-weight="normal" text-decoration="none" x="400" y="360">UNREGISTERED</text><text fill="#eeeeee" stroke="none" font-family="Arial" font-size="24px" font-style="normal" font-weight="normal" text-decoration="none" x="400" y="390">UNREGISTERED</text><text fill="#eeeeee" stroke="none" font-family="Arial" font-size="24px" font-style="normal" font-weight="normal" text-decoration="none" x="400" y="420">UNREGISTERED</text><text fill="#eeeeee" stroke="none" font-family="Arial" font-size="24px" font-style="normal" font-weight="normal" text-decoration="none" x="400" y="450">UNREGISTERED</text><text fill="#eeeeee" stroke="none" font-family="Arial" font-size="24px" font-style="normal" font-weight="normal" text-decoration="none" x="400" y="480">UNREGISTERED</text><text fill="#eeeeee" stroke="none" font-family="Arial" font-size="24px" font-style="normal" font-weight="normal" text-decoration="none" x="400" y="510">UNREGISTERED</text><g transform="translate(-13,-14) scale(1,1)"><path fill="#C0C0C0" stroke="none" d="M 159 96.5 C 159 91.2532944 163.2532944 87 168.5 87 C 173.7467056 87 178 91.2532944 178 96.5 C 178 101.7467056 173.7467056 106 168.5 106 C 163.2532944 106 159 101.7467056 159 96.5 Z" opacity="0.2"/></g><g transform="translate(-13,-14) scale(1,1)"><path fill="#000000" stroke="none" d="M 152 89.5 C 152 84.2532944 156.2532944 80 161.5 80 C 166.7467056 80 171 84.2532944 171 89.5 C 171 94.7467056 166.7467056 99 161.5 99 C 156.2532944 99 152 94.7467056 152 89.5 Z"/></g><g transform="translate(-13,-14) scale(1,1)"><path fill="#C0C0C0" stroke="none" d="M 351 467.5 C 351 460.59644 356.59644 455 363.5 455 C 370.40356 455 376 460.59644 376 467.5 C 376 474.40356 370.40356 480 363.5 480 C 356.59644 480 351 474.40356 351 467.5 Z" opacity="0.2"/></g><g transform="translate(-13,-14) scale(1,1)"><path fill="none" stroke="#000000" d="M 344 460.5 C 344 453.59644 349.59644 448 356.5 448 C 363.40356 448 369 453.59644 369 460.5 C 369 467.40356 363.40356 473 356.5 473 C 349.59644 473 344 467.40356 344 460.5 Z" stroke-miterlimit="10"/></g><g transform="translate(-13,-14) scale(1,1)"><path fill="#000000" stroke="none" d="M 349 460.5 C 349 456.357864 352.357864 453 356.5 453 C 360.642136 453 364 456.357864 364 460.5 C 364 464.642136 360.642136 468 356.5 468 C 352.357864 468 349 464.642136 349 460.5 Z"/></g><g transform="translate(-13,-14) scale(1,1)"><path fill="#C0C0C0" stroke="none" d="M 145 159 L 213.45361328125 159 Q 223.45361328125 159 223.45361328125 169 L 223.45361328125 188 Q 223.45361328125 198 213.45361328125 198 L 145 198 Q 135 198 135 188 L 135 169 Q 135 159 145 159 Z" opacity="0.2"/></g><g transform="translate(-13,-14) scale(1,1)"><path fill="#ffffff" stroke="none" d="M 138 152 L 206.45361328125 152 Q 216.45361328125 152 216.45361328125 162 L 216.45361328125 181 Q 216.45361328125 191 206.45361328125 191 L 138 191 Q 128 191 128 181 L 128 162 Q 128 152 138 152 Z"/></g><g transform="translate(-13,-14) scale(1,1)"><path fill="none" stroke="#000000" d="M 138 152 L 206.45361328125 152 Q 216.45361328125 152 216.45361328125 162 L 216.45361328125 181 Q 216.45361328125 191 206.45361328125 191 L 138 191 Q 128 191 128 181 L 128 162 Q 128 152 138 152 Z" stroke-miterlimit="10"/></g><g transform="translate(-13,-14) scale(1,1)"><g><path fill="none" stroke="none"/><text fill="#000000" stroke="none" font-family="Arial" font-size="13px" font-style="normal" font-weight="bold" text-decoration="none" x="133.214111328125" y="171.5">DISPONIBLE</text></g></g><g transform="translate(-13,-14) scale(1,1)"><path fill="#C0C0C0" stroke="none" d="M 121 271 L 182.947265625 271 Q 192.947265625 271 192.947265625 281 L 192.947265625 300 Q 192.947265625 310 182.947265625 310 L 121 310 Q 111 310 111 300 L 111 281 Q 111 271 121 271 Z" opacity="0.2"/></g><g transform="translate(-13,-14) scale(1,1)"><path fill="#ffffff" stroke="none" d="M 114 264 L 175.947265625 264 Q 185.947265625 264 185.947265625 274 L 185.947265625 293 Q 185.947265625 303 175.947265625 303 L 114 303 Q 104 303 104 293 L 104 274 Q 104 264 114 264 Z"/></g><g transform="translate(-13,-14) scale(1,1)"><path fill="none" stroke="#000000" d="M 114 264 L 175.947265625 264 Q 185.947265625 264 185.947265625 274 L 185.947265625 293 Q 185.947265625 303 175.947265625 303 L 114 303 Q 104 303 104 293 L 104 274 Q 104 264 114 264 Z" stroke-miterlimit="10"/></g><g transform="translate(-13,-14) scale(1,1)"><g><path fill="none" stroke="none"/><text fill="#000000" stroke="none" font-family="Arial" font-size="13px" font-style="normal" font-weight="bold" text-decoration="none" x="108.5" y="283.5">EMPRUNTE</text></g></g><g transform="translate(-13,-14) scale(1,1)"><path fill="none" stroke="#000000" d="M 162 100 L 169 151" stroke-miterlimit="10"/></g><g transform="translate(-13,-14) scale(1,1)"><path fill="none" stroke="#000000" d="M 163.44766127675243 141.5041306505236 L 169 151 L 171.78849724762327 140.35931002707073" stroke-miterlimit="10"/></g><g transform="translate(-13,-14) scale(1,1)"><g><path fill="none" stroke="none"/><text fill="#000000" stroke="none" font-family="Arial" font-size="13px" font-style="normal" font-weight="normal" text-decoration="none" x="167.5" y="124.5">enregistré</text></g></g><g transform="translate(-13,-14) scale(1,1)"><path fill="none" stroke="#000000" d="M 167 192 L 149 263" stroke-miterlimit="10"/></g><g transform="translate(-13,-14) scale(1,1)"><path fill="none" stroke="#000000" d="M 147.41701445166703 252.11449786395826 L 149 263 L 155.5778725612692 254.1834478072377" stroke-miterlimit="10"/></g><g transform="translate(-13,-14) scale(1,1)"><g><path fill="none" stroke="none"/><text fill="#000000" stroke="none" font-family="Arial" font-size="13px" font-style="normal" font-weight="normal" text-decoration="none" x="22.5" y="227.5">emprunté par abonné</text></g></g><g transform="translate(-13,-14) scale(1,1)"><g><path fill="none" stroke="none"/><text fill="#000000" stroke="none" font-family="Arial" font-size="13px" font-style="normal" font-weight="normal" text-decoration="none" x="77" y="42">Diagramme d'états d'un exemplaire (cycle de vie)</text></g></g><g transform="translate(-13,-14) scale(1,1)"><path fill="#C0C0C0" stroke="none" d="M 377 191 L 475.306640625 191 Q 485.306640625 191 485.306640625 201 L 485.306640625 220 Q 485.306640625 230 475.306640625 230 L 377 230 Q 367 230 367 220 L 367 201 Q 367 191 377 191 Z" opacity="0.2"/></g><g transform="translate(-13,-14) scale(1,1)"><path fill="#ffffff" stroke="none" d="M 370 184 L 468.306640625 184 Q 478.306640625 184 478.306640625 194 L 478.306640625 213 Q 478.306640625 223 468.306640625 223 L 370 223 Q 360 223 360 213 L 360 194 Q 360 184 370 184 Z"/></g><g transform="translate(-13,-14) scale(1,1)"><path fill="none" stroke="#000000" d="M 370 184 L 468.306640625 184 Q 478.306640625 184 478.306640625 194 L 478.306640625 213 Q 478.306640625 223 468.306640625 223 L 370 223 Q 360 223 360 213 L 360 194 Q 360 184 370 184 Z" stroke-miterlimit="10"/></g><g transform="translate(-13,-14) scale(1,1)"><g><path fill="none" stroke="none"/><text fill="#000000" stroke="none" font-family="Arial" font-size="13px" font-style="normal" font-weight="bold" text-decoration="none" x="365.21728515625" y="203.5">EN_REPARATION</text></g></g><g transform="translate(-13,-14) scale(1,1)"><path fill="#C0C0C0" stroke="none" d="M 329 311 L 368 311 Q 378 311 378 321 L 378 340 Q 378 350 368 350 L 329 350 Q 319 350 319 340 L 319 321 Q 319 311 329 311 Z" opacity="0.2"/></g><g transform="translate(-13,-14) scale(1,1)"><path fill="#ffffff" stroke="none" d="M 322 304 L 361 304 Q 371 304 371 314 L 371 333 Q 371 343 361 343 L 322 343 Q 312 343 312 333 L 312 314 Q 312 304 322 304 Z"/></g><g transform="translate(-13,-14) scale(1,1)"><path fill="none" stroke="#000000" d="M 322 304 L 361 304 Q 371 304 371 314 L 371 333 Q 371 343 361 343 L 322 343 Q 312 343 312 333 L 312 314 Q 312 304 322 304 Z" stroke-miterlimit="10"/></g><g transform="translate(-13,-14) scale(1,1)"><g><path fill="none" stroke="none"/><text fill="#000000" stroke="none" font-family="Arial" font-size="13px" font-style="normal" font-weight="bold" text-decoration="none" x="318.38818359375" y="323.5">RENDU</text></g></g><g transform="translate(-13,-14) scale(1,1)"><path fill="#C0C0C0" stroke="none" d="M 65 383 L 211.955078125 383 Q 221.955078125 383 221.955078125 393 L 221.955078125 412 Q 221.955078125 422 211.955078125 422 L 65 422 Q 55 422 55 412 L 55 393 Q 55 383 65 383 Z" opacity="0.2"/></g><g transform="translate(-13,-14) scale(1,1)"><path fill="#ffffff" stroke="none" d="M 58 376 L 204.955078125 376 Q 214.955078125 376 214.955078125 386 L 214.955078125 405 Q 214.955078125 415 204.955078125 415 L 58 415 Q 48 415 48 405 L 48 386 Q 48 376 58 376 Z"/></g><g transform="translate(-13,-14) scale(1,1)"><path fill="none" stroke="#000000" d="M 58 376 L 204.955078125 376 Q 214.955078125 376 214.955078125 386 L 214.955078125 405 Q 214.955078125 415 204.955078125 415 L 58 415 Q 48 415 48 405 L 48 386 Q 48 376 58 376 Z" stroke-miterlimit="10"/></g><g transform="translate(-13,-14) scale(1,1)"><g><path fill="none" stroke="none"/><text fill="#000000" stroke="none" font-family="Arial" font-size="13px" font-style="normal" font-weight="bold" text-decoration="none" x="52.858642578125" y="395.5">PERDU_OU_EN_RETARD</text></g></g><g transform="translate(-13,-14) scale(1,1)"><path fill="none" stroke="#000000" d="M 187 292 L 311 317" stroke-miterlimit="10"/></g><g transform="translate(-13,-14) scale(1,1)"><path fill="none" stroke="#000000" d="M 300.2058264175142 319.117974662541 L 311 317 L 301.8697324162556 310.8650009087836" stroke-miterlimit="10"/></g><g transform="translate(-13,-14) scale(1,1)"><g><path fill="none" stroke="none"/><text fill="#000000" stroke="none" font-family="Arial" font-size="13px" font-style="normal" font-weight="normal" text-decoration="none" x="193.5" y="295.5">retourné par abonné</text></g></g><g transform="translate(-13,-14) scale(1,1)"><path fill="none" stroke="#000000" d="M 315 303 L 245 248 L 192 192" stroke-miterlimit="10"/></g><g transform="translate(-13,-14) scale(1,1)"><path fill="none" stroke="#000000" d="M 202.04301343928663 196.48752504820953 L 192 192 L 195.92832351413375 202.27464229880067" stroke-miterlimit="10"/></g><g transform="translate(-13,-14) scale(1,1)"><g><path fill="none" stroke="none"/><text fill="#000000" stroke="none" font-family="Arial" font-size="13px" font-style="normal" font-weight="normal" text-decoration="none" x="238.5" y="235.5">rangé [bon etat]</text></g></g><g transform="translate(-13,-14) scale(1,1)"><path fill="none" stroke="#000000" d="M 354 303 L 405 224" stroke-miterlimit="10"/></g><g transform="translate(-13,-14) scale(1,1)"><path fill="none" stroke="#000000" d="M 403.02466507331906 234.8211853291326 L 405 224 L 395.95149375152323 230.25496080493528" stroke-miterlimit="10"/></g><g transform="translate(-13,-14) scale(1,1)"><g><path fill="none" stroke="none"/><text fill="#000000" stroke="none" font-family="Arial" font-size="13px" font-style="normal" font-weight="normal" text-decoration="none" x="369.5" y="281.5"> [abimé]</text></g></g><g transform="translate(-13,-14) scale(1,1)"><path fill="none" stroke="#000000" d="M 359 195 L 217 177" stroke-miterlimit="10"/></g><g transform="translate(-13,-14) scale(1,1)"><path fill="none" stroke="#000000" d="M 227.61136248031337 174.1018995339365 L 217 177 L 226.5526328595715 182.4540998753447" stroke-miterlimit="10"/></g><g transform="translate(-13,-14) scale(1,1)"><g><path fill="none" stroke="none"/><text fill="#000000" stroke="none" font-family="Arial" font-size="13px" font-style="normal" font-weight="normal" text-decoration="none" x="238.5" y="180.5">réparation terminée</text></g></g><g transform="translate(-13,-14) scale(1,1)"><path fill="none" stroke="#000000" d="M 142 304 L 133 375" stroke-miterlimit="10"/></g><g transform="translate(-13,-14) scale(1,1)"><path fill="none" stroke="#000000" d="M 130.1018995339365 364.3886375196866 L 133 375 L 138.4540998753447 365.4473671404285" stroke-miterlimit="10"/></g><g transform="translate(-13,-14) scale(1,1)"><g><path fill="none" stroke="none"/><text fill="#000000" stroke="none" font-family="Arial" font-size="13px" font-style="normal" font-weight="normal" text-decoration="none" x="142.5" y="349.5">after 1 mois</text></g></g><g transform="translate(-13,-14) scale(1,1)"><g><path fill="none" stroke="none"/><text fill="#000000" stroke="none" font-family="Arial" font-size="13px" font-style="normal" font-weight="normal" text-decoration="none" x="381" y="442">Sorti ,</text><text fill="#000000" stroke="none" font-family="Arial" font-size="13px" font-style="normal" font-weight="normal" text-decoration="none" x="381" y="455">supprimé</text></g></g><g transform="translate(-13,-14) scale(1,1)"><path fill="none" stroke="#000000" d="M 343 344 L 355 447" stroke-miterlimit="10"/></g><g transform="translate(-13,-14) scale(1,1)"><path fill="none" stroke="#000000" d="M 349.64271696609205 437.3927361598319 L 355 447 L 358.00519024801923 436.41846742795684" stroke-miterlimit="10"/></g><g transform="translate(-13,-14) scale(1,1)"><g><path fill="none" stroke="none"/><text fill="#000000" stroke="none" font-family="Arial" font-size="13px" font-style="normal" font-weight="normal" text-decoration="none" x="348.5" y="399.5"> [HS]</text></g></g><g transform="translate(-13,-14) scale(1,1)"><path fill="none" stroke="#000000" d="M 204 416 L 343 456" stroke-miterlimit="10"/></g><g transform="translate(-13,-14) scale(1,1)"><path fill="none" stroke="#000000" d="M 332.06953610065295 457.234892280756 L 343 456 L 334.3977941494994 449.14419556101444" stroke-miterlimit="10"/></g><g transform="translate(-13,-14) scale(1,1)"><g><path fill="none" stroke="none"/><text fill="#000000" stroke="none" font-family="Arial" font-size="13px" font-style="normal" font-weight="normal" text-decoration="none" x="243.5" y="427.5">after 6 mois</text></g></g><g transform="translate(-13,-14) scale(1,1)"><path fill="none" stroke="#000000" d="M 189 375 L 311 333" stroke-miterlimit="10"/></g><g transform="translate(-13,-14) scale(1,1)"><path fill="none" stroke="#000000" d="M 302.7610614473828 340.28833942172 L 311 333 L 300.02055645097767 332.32782490835257" stroke-miterlimit="10"/></g><g transform="translate(-13,-14) scale(1,1)"><g><path fill="none" stroke="none"/><text fill="#000000" stroke="none" font-family="Arial" font-size="13px" font-style="normal" font-weight="normal" text-decoration="none" x="221.5" y="367.5">rendu en retard</text></g></g><g transform="translate(-13,-14) scale(1,1)"><path fill="#ffffff" stroke="none" d="M 40 464 L 98.349609375 464 L 108.349609375 474 L 108.349609375 539 L 40 539 L 40 464"/></g><g transform="translate(-13,-14) scale(1,1)"><path fill="none" stroke="#000000" d="M 40 464 L 98.349609375 464 L 108.349609375 474 L 108.349609375 539 L 40 539 L 40 464 L 40 464" stroke-miterlimit="10"/></g><g transform="translate(-13,-14) scale(1,1)"><path fill="none" stroke="#000000" d="M 98.349609375 464 L 98.349609375 474 L 108.349609375 474 L 98.349609375 464" stroke-miterlimit="10"/></g><g transform="translate(-13,-14) scale(1,1)"><g><path fill="none" stroke="none"/><text fill="#000000" stroke="none" font-family="Arial" font-size="13px" font-style="normal" font-weight="normal" text-decoration="none" x="45" y="482">effectuer</text><text fill="#000000" stroke="none" font-family="Arial" font-size="13px" font-style="normal" font-weight="normal" text-decoration="none" x="45" y="495">relance 1</text><text fill="#000000" stroke="none" font-family="Arial" font-size="13px" font-style="normal" font-weight="normal" text-decoration="none" x="45" y="508">fois par</text><text fill="#000000" stroke="none" font-family="Arial" font-size="13px" font-style="normal" font-weight="normal" text-decoration="none" x="45" y="521">semaine</text></g></g><g transform="translate(-13,-14) scale(1,1)"><path fill="none" stroke="#000000" d="M 95 463 L 120 416" stroke-miterlimit="10" stroke-dasharray="3"/></g></g></svg>